<svg width="7" height="12" viewBox="0 0 7 12" fill="none" xmlns="http://www.w3.org/2000/svg">
<path d="M0.486158 12C0.357244 11.9992 0.233901 11.9473 0.143147 11.8558C0.0977732 11.8105 0.0617708 11.7568 0.0372083 11.6976C0.0126457 11.6384 0 11.5749 0 11.5108C0 11.4467 0.0126457 11.3833 0.0372083 11.3241C0.0617708 11.2649 0.0977732 11.2111 0.143147 11.1659L5.10117 6.20393C5.12875 6.17705 5.15068 6.14494 5.16564 6.10946C5.18061 6.07398 5.18832 6.03585 5.18832 5.99734C5.18832 5.95884 5.18061 5.92072 5.16564 5.88524C5.15068 5.84976 5.12875 5.81763 5.10117 5.79076L0.143147 0.832725C0.0977732 0.787466 0.0617708 0.7337 0.0372083 0.674507C0.0126457 0.615313 0 0.551863 0 0.487775C0 0.423688 0.0126457 0.360226 0.0372083 0.301032C0.0617708 0.241839 0.0977732 0.188073 0.143147 0.142814C0.188073 0.0975592 0.241509 0.0616471 0.300378 0.0371369C0.359248 0.0126266 0.42239 0 0.486158 0C0.549926 0 0.613068 0.0126266 0.671937 0.0371369C0.730807 0.0616471 0.784242 0.0975592 0.829168 0.142814L5.79109 5.10475C5.90883 5.22208 6.00225 5.36149 6.06599 5.51499C6.12973 5.6685 6.16253 5.83308 6.16253 5.9993C6.16253 6.16551 6.12973 6.33009 6.06599 6.4836C6.00225 6.6371 5.90883 6.77652 5.79109 6.89385L0.829168 11.8558C0.738414 11.9473 0.615071 11.9992 0.486158 12Z" fill="white"/>
</svg>
