<svg width="7" height="12" viewBox="0 0 7 12" fill="none" xmlns="http://www.w3.org/2000/svg">
<path d="M5.67595 12C5.80486 11.9992 5.92821 11.9473 6.01896 11.8558C6.06434 11.8105 6.10034 11.7568 6.1249 11.6976C6.14946 11.6384 6.16211 11.5749 6.16211 11.5108C6.16211 11.4467 6.14946 11.3833 6.1249 11.3241C6.10034 11.2649 6.06434 11.2111 6.01896 11.1659L1.06094 6.20393C1.03336 6.17705 1.01143 6.14494 0.996467 6.10946C0.9815 6.07398 0.973794 6.03585 0.973794 5.99734C0.973794 5.95884 0.9815 5.92072 0.996467 5.88524C1.01143 5.84976 1.03336 5.81763 1.06094 5.79076L6.01896 0.832725C6.06434 0.787466 6.10034 0.7337 6.1249 0.674507C6.14946 0.615313 6.16211 0.551863 6.16211 0.487775C6.16211 0.423688 6.14946 0.360226 6.1249 0.301032C6.10034 0.241839 6.06434 0.188073 6.01896 0.142814C5.97404 0.0975592 5.9206 0.0616471 5.86173 0.0371369C5.80286 0.0126266 5.73972 0 5.67595 0C5.61218 0 5.54904 0.0126266 5.49017 0.0371369C5.4313 0.0616471 5.37787 0.0975592 5.33294 0.142814L0.371016 5.10475C0.25328 5.22208 0.159858 5.36149 0.096117 5.51499C0.0323763 5.6685 -0.000424385 5.83308 -0.000424385 5.9993C-0.000424385 6.16551 0.0323763 6.33009 0.096117 6.4836C0.159858 6.6371 0.25328 6.77652 0.371016 6.89385L5.33294 11.8558C5.4237 11.9473 5.54704 11.9992 5.67595 12Z" fill="white"/>
</svg>
