<svg width="27" height="27" viewBox="0 0 27 27" fill="none" xmlns="http://www.w3.org/2000/svg">
<g clip-path="url(#clip0_143_2056)">
<path d="M7.48476 12.9347L19.08 12.9347C19.3241 12.9347 19.5275 13.1428 19.5275 13.3925C19.5275 13.6422 19.3241 13.8503 19.08 13.8503L7.48476 13.8503C7.24065 13.8503 7.03722 13.6422 7.03722 13.3925C7.03722 13.1428 7.24065 12.9347 7.48476 12.9347Z" fill="#171753"/>
<path d="M12.428 7.87796C12.55 7.87796 12.6518 7.91958 12.7535 8.02363C12.9365 8.21091 12.9365 8.50224 12.7535 8.68953L8.13572 13.4133L12.7535 18.1162C12.9365 18.3035 12.9365 18.5949 12.7535 18.7821C12.5704 18.9694 12.2856 18.9694 12.1025 18.7821L7.15928 13.7254C6.97619 13.5381 6.97619 13.2468 7.15928 13.0595L12.1025 8.00282C12.1839 7.91958 12.3059 7.87796 12.428 7.87796Z" fill="#171753"/>
</g>
<path d="M13.5 27C6.06064 27 0 20.9394 0 13.5C0 6.06064 6.06064 0 13.5 0C20.9394 0 27 6.06064 27 13.5C27 20.9394 20.9394 27 13.5 27ZM13.5 1.29255C6.77872 1.29255 1.29255 6.77872 1.29255 13.5C1.29255 20.2213 6.77872 25.7074 13.5 25.7074C20.2213 25.7074 25.7074 20.2213 25.7074 13.5C25.7074 6.77872 20.2213 1.29255 13.5 1.29255Z" fill="#171753"/>
<defs>
<clipPath id="clip0_143_2056">
<rect width="12.5106" height="11.029" fill="white" transform="translate(19.5479 18.907) rotate(-180)"/>
</clipPath>
</defs>
</svg>
