<svg width="11" height="19" viewBox="0 0 11 19" fill="none" xmlns="http://www.w3.org/2000/svg">
<path d="M9.37148 18.4333C9.56805 18.432 9.75613 18.353 9.89452 18.2133C9.96371 18.1443 10.0186 18.0623 10.0561 17.9721C10.0935 17.8818 10.1128 17.7851 10.1128 17.6873C10.1128 17.5896 10.0935 17.4929 10.0561 17.4026C10.0186 17.3123 9.96371 17.2304 9.89452 17.1613L2.33436 9.59521C2.2923 9.55423 2.25887 9.50526 2.23605 9.45116C2.21323 9.39706 2.20148 9.33892 2.20148 9.2802C2.20148 9.22149 2.21323 9.16337 2.23605 9.10927C2.25887 9.05517 2.2923 9.00618 2.33436 8.9652L9.89452 1.40502C9.96371 1.33601 10.0186 1.25402 10.0561 1.16376C10.0935 1.0735 10.1128 0.976753 10.1128 0.87903C10.1128 0.781308 10.0935 0.684538 10.0561 0.594278C10.0186 0.504018 9.96371 0.422034 9.89452 0.353021C9.82601 0.284015 9.74453 0.229255 9.65477 0.191881C9.565 0.154507 9.46872 0.135254 9.37148 0.135254C9.27425 0.135254 9.17797 0.154507 9.0882 0.191881C8.99843 0.229255 8.91695 0.284015 8.84845 0.353021L1.28234 7.91915C1.10281 8.09805 0.96036 8.31063 0.863166 8.5447C0.765971 8.77877 0.715956 9.02973 0.715956 9.28318C0.715956 9.53663 0.765971 9.78759 0.863166 10.0217C0.96036 10.2557 1.10281 10.4683 1.28234 10.6472L8.84845 18.2133C8.98683 18.353 9.17491 18.432 9.37148 18.4333Z" fill="white"/>
</svg>
