<svg width="27" height="20" viewBox="0 0 27 20" fill="none" xmlns="http://www.w3.org/2000/svg">
<g clip-path="url(#clip0_159_3402)">
<path d="M24.6443 20.004C24.5102 19.9923 24.3854 19.9298 24.2943 19.8288C24.2033 19.7278 24.1528 19.5958 24.1528 19.4588C24.1528 19.3217 24.2033 19.1897 24.2943 19.0887C24.3854 18.9877 24.5102 18.9252 24.6443 18.9135C24.8166 18.9135 24.9819 18.8441 25.1041 18.7204C25.2263 18.5968 25.2955 18.4289 25.2965 18.2535V1.75453C25.2965 1.57843 25.2278 1.40955 25.1055 1.28503C24.9832 1.16051 24.8173 1.09055 24.6443 1.09055C24.5102 1.07881 24.3854 1.01628 24.2943 0.915318C24.2033 0.814357 24.1528 0.682308 24.1528 0.545276C24.1528 0.408244 24.2033 0.276195 24.2943 0.175233C24.3854 0.0742718 24.5102 0.0117396 24.6443 0C25.1007 0.00106567 25.538 0.186389 25.8604 0.515311C26.1827 0.844233 26.3637 1.2899 26.3637 1.75453V18.2535C26.3627 18.7175 26.1812 19.1621 25.859 19.4901C25.5368 19.8182 25.1 20.003 24.6443 20.004Z" fill="#373765"/>
<path d="M24.644 13.7665H17.5294C17.0737 13.7654 16.637 13.5807 16.3148 13.2526C15.9926 12.9245 15.8111 12.4799 15.8101 12.016V7.99184C15.8101 7.5272 15.9911 7.08154 16.3134 6.75262C16.6357 6.42369 17.073 6.23837 17.5294 6.2373H24.644C25.1004 6.23837 25.5377 6.42369 25.8601 6.75262C26.1824 7.08154 26.3634 7.5272 26.3634 7.99184V12.016C26.3624 12.4799 26.1809 12.9245 25.8587 13.2526C25.5364 13.5807 25.0997 13.7654 24.644 13.7665ZM17.5294 7.32786C17.3564 7.32786 17.1906 7.39781 17.0683 7.52233C16.9459 7.64685 16.8772 7.81574 16.8772 7.99184V12.016C16.8783 12.1914 16.9475 12.3592 17.0697 12.4829C17.1918 12.6065 17.3571 12.6759 17.5294 12.6759H24.644C24.8163 12.6759 24.9816 12.6065 25.1038 12.4829C25.226 12.3592 25.2952 12.1914 25.2962 12.016V7.99184C25.2962 7.81574 25.2275 7.64685 25.1052 7.52233C24.9829 7.39781 24.817 7.32786 24.644 7.32786H17.5294Z" fill="#373765"/>
<path d="M21.087 20.004H1.71936C1.26367 20.003 0.826952 19.8182 0.504734 19.4901C0.182516 19.1621 0.00104395 18.7175 0 18.2535V1.75453C-1.20036e-06 1.2899 0.181004 0.844233 0.503335 0.515311C0.825666 0.186389 1.26299 0.00106567 1.71936 0H21.087C21.5433 0.00106567 21.9806 0.186389 22.303 0.515311C22.6253 0.844233 22.8063 1.2899 22.8063 1.75453V4.37023C22.8063 4.51431 22.7501 4.65249 22.65 4.75437C22.55 4.85625 22.4142 4.91349 22.2727 4.91349C22.1312 4.91349 21.9955 4.85625 21.8954 4.75437C21.7953 4.65249 21.7391 4.51431 21.7391 4.37023V1.75453C21.7391 1.57843 21.6704 1.40955 21.5481 1.28503C21.4258 1.16051 21.2599 1.09055 21.087 1.09055H1.71936C1.54639 1.09055 1.3805 1.16051 1.25819 1.28503C1.13589 1.40955 1.06717 1.57843 1.06717 1.75453V18.2535C1.06822 18.4289 1.1374 18.5968 1.25959 18.7204C1.38179 18.8441 1.54707 18.9135 1.71936 18.9135H21.087C21.2592 18.9135 21.4245 18.8441 21.5467 18.7204C21.6689 18.5968 21.7381 18.4289 21.7391 18.2535V15.6378C21.7391 15.4938 21.7953 15.3556 21.8954 15.2537C21.9955 15.1518 22.1312 15.0946 22.2727 15.0946C22.4142 15.0946 22.55 15.1518 22.65 15.2537C22.7501 15.3556 22.8063 15.4938 22.8063 15.6378V18.2535C22.8053 18.7175 22.6238 19.1621 22.3016 19.4901C21.9794 19.8182 21.5426 20.003 21.087 20.004Z" fill="#373765"/>
<path d="M19.3081 12.1569C18.8887 12.1577 18.4786 12.0318 18.1296 11.7951C17.7806 11.5584 17.5084 11.2215 17.3476 10.8272C17.1867 10.433 17.1444 9.99893 17.2261 9.58015C17.3077 9.16137 17.5095 8.77667 17.8061 8.47477C18.1026 8.17288 18.4804 7.96737 18.8918 7.88427C19.3031 7.80117 19.7294 7.84422 20.1167 8.00797C20.504 8.17173 20.8348 8.44881 21.0673 8.80413C21.2998 9.15945 21.4235 9.57704 21.4227 10.004C21.4216 10.5746 21.1985 11.1216 20.8022 11.5251C20.4059 11.9287 19.8686 12.1558 19.3081 12.1569ZM19.3081 8.93759C19.1009 8.93759 18.8984 9.00012 18.7261 9.1173C18.5539 9.23448 18.4197 9.40102 18.3404 9.59588C18.2611 9.79074 18.2403 10.0052 18.2807 10.212C18.3212 10.4189 18.421 10.6089 18.5674 10.758C18.7139 10.9072 18.9005 11.0087 19.1037 11.0499C19.3069 11.091 19.5175 11.0699 19.7089 10.9892C19.9003 10.9085 20.0639 10.7718 20.179 10.5964C20.2941 10.4211 20.3555 10.2149 20.3555 10.004C20.3555 9.72116 20.2451 9.44991 20.0487 9.24992C19.8523 9.04993 19.5859 8.93759 19.3081 8.93759Z" fill="#373765"/>
</g>
<defs>
<clipPath id="clip0_159_3402">
<rect width="26.3636" height="20" fill="white"/>
</clipPath>
</defs>
</svg>
