<svg width="27" height="20" viewBox="0 0 27 20" fill="none" xmlns="http://www.w3.org/2000/svg">
<g clip-path="url(#clip0_441_1282)">
<path d="M24.6443 20.004C24.5102 19.9923 24.3854 19.9298 24.2943 19.8288C24.2033 19.7278 24.1528 19.5958 24.1528 19.4588C24.1528 19.3217 24.2033 19.1897 24.2943 19.0887C24.3854 18.9877 24.5102 18.9252 24.6443 18.9135C24.8166 18.9135 24.9819 18.8441 25.1041 18.7204C25.2263 18.5968 25.2955 18.4289 25.2965 18.2535V1.75453C25.2965 1.57843 25.2278 1.40955 25.1055 1.28503C24.9832 1.16051 24.8173 1.09055 24.6443 1.09055C24.5102 1.07881 24.3854 1.01628 24.2943 0.915318C24.2033 0.814357 24.1528 0.682308 24.1528 0.545276C24.1528 0.408244 24.2033 0.276195 24.2943 0.175233C24.3854 0.0742718 24.5102 0.0117396 24.6443 0C25.1007 0.00106567 25.538 0.186389 25.8604 0.515311C26.1827 0.844233 26.3637 1.2899 26.3637 1.75453V18.2535C26.3627 18.7175 26.1812 19.1621 25.859 19.4901C25.5368 19.8182 25.1 20.003 24.6443 20.004Z" fill="white"/>
<path d="M24.6443 13.7665H17.5297C17.074 13.7654 16.6373 13.5807 16.315 13.2526C15.9928 12.9245 15.8113 12.4799 15.8103 12.016V7.99184C15.8103 7.5272 15.9913 7.08154 16.3136 6.75262C16.636 6.42369 17.0733 6.23837 17.5297 6.2373H24.6443C25.1007 6.23837 25.538 6.42369 25.8603 6.75262C26.1826 7.08154 26.3636 7.5272 26.3636 7.99184V12.016C26.3626 12.4799 26.1811 12.9245 25.8589 13.2526C25.5367 13.5807 25.1 13.7654 24.6443 13.7665ZM17.5297 7.32786C17.3567 7.32786 17.1908 7.39781 17.0685 7.52233C16.9462 7.64685 16.8775 7.81574 16.8775 7.99184V12.016C16.8785 12.1914 16.9477 12.3592 17.0699 12.4829C17.1921 12.6065 17.3574 12.6759 17.5297 12.6759H24.6443C24.8166 12.6759 24.9819 12.6065 25.1041 12.4829C25.2262 12.3592 25.2954 12.1914 25.2965 12.016V7.99184C25.2965 7.81574 25.2278 7.64685 25.1055 7.52233C24.9831 7.39781 24.8173 7.32786 24.6443 7.32786H17.5297Z" fill="white"/>
<path d="M21.087 20.004H1.71936C1.26367 20.003 0.826952 19.8182 0.504734 19.4901C0.182516 19.1621 0.00104395 18.7175 0 18.2535V1.75453C-1.20036e-06 1.2899 0.181004 0.844233 0.503335 0.515311C0.825666 0.186389 1.26299 0.00106567 1.71936 0H21.087C21.5433 0.00106567 21.9806 0.186389 22.303 0.515311C22.6253 0.844233 22.8063 1.2899 22.8063 1.75453V4.37023C22.8063 4.51431 22.7501 4.65249 22.65 4.75437C22.55 4.85625 22.4142 4.91349 22.2727 4.91349C22.1312 4.91349 21.9955 4.85625 21.8954 4.75437C21.7953 4.65249 21.7391 4.51431 21.7391 4.37023V1.75453C21.7391 1.57843 21.6704 1.40955 21.5481 1.28503C21.4258 1.16051 21.2599 1.09055 21.087 1.09055H1.71936C1.54639 1.09055 1.3805 1.16051 1.25819 1.28503C1.13589 1.40955 1.06717 1.57843 1.06717 1.75453V18.2535C1.06822 18.4289 1.1374 18.5968 1.25959 18.7204C1.38179 18.8441 1.54707 18.9135 1.71936 18.9135H21.087C21.2592 18.9135 21.4245 18.8441 21.5467 18.7204C21.6689 18.5968 21.7381 18.4289 21.7391 18.2535V15.6378C21.7391 15.4938 21.7953 15.3556 21.8954 15.2537C21.9955 15.1518 22.1312 15.0946 22.2727 15.0946C22.4142 15.0946 22.55 15.1518 22.65 15.2537C22.7501 15.3556 22.8063 15.4938 22.8063 15.6378V18.2535C22.8053 18.7175 22.6238 19.1621 22.3016 19.4901C21.9794 19.8182 21.5426 20.003 21.087 20.004Z" fill="white"/>
<path d="M19.3083 12.1571C18.889 12.1579 18.4788 12.032 18.1298 11.7953C17.7808 11.5586 17.5086 11.2218 17.3478 10.8275C17.187 10.4332 17.1447 9.99917 17.2263 9.58039C17.3079 9.16161 17.5098 8.77691 17.8063 8.47502C18.1028 8.17312 18.4807 7.96761 18.892 7.88451C19.3033 7.80142 19.7296 7.84446 20.1169 8.00822C20.5042 8.17197 20.835 8.44905 21.0675 8.80438C21.3 9.1597 21.4237 9.57728 21.4229 10.0042C21.4219 10.5749 21.1988 11.1219 20.8024 11.5254C20.4061 11.9289 19.8688 12.1561 19.3083 12.1571ZM19.3083 8.93783C19.1011 8.93783 18.8986 9.00037 18.7264 9.11755C18.5541 9.23472 18.4199 9.40127 18.3406 9.59613C18.2613 9.79098 18.2406 10.0054 18.281 10.2123C18.3214 10.4191 18.4212 10.6091 18.5677 10.7583C18.7142 10.9074 18.9008 11.009 19.104 11.0501C19.3072 11.0913 19.5178 11.0702 19.7092 10.9894C19.9006 10.9087 20.0641 10.7721 20.1792 10.5967C20.2943 10.4213 20.3557 10.2151 20.3557 10.0042C20.3557 9.7214 20.2454 9.45015 20.0489 9.25017C19.8525 9.05018 19.5861 8.93783 19.3083 8.93783Z" fill="white"/>
</g>
<defs>
<clipPath id="clip0_441_1282">
<rect width="26.3636" height="20" fill="white"/>
</clipPath>
</defs>
</svg>
