<svg width="27" height="20" viewBox="0 0 27 20" fill="none" xmlns="http://www.w3.org/2000/svg">
<g clip-path="url(#clip0_441_1292)">
<path d="M25.4602 20H1.51581C1.11826 19.999 0.737276 19.8413 0.456159 19.5615C0.175042 19.2817 0.0166563 18.9024 0.015625 18.5067V4.6782C0.0156237 4.2818 0.173554 3.90157 0.454782 3.6209C0.73601 3.34024 1.11758 3.18205 1.51581 3.18102H6.13749C6.27633 3.18102 6.40949 3.12612 6.50766 3.02839C6.60584 2.93067 6.66099 2.79813 6.66099 2.65992V1.49329C6.66202 1.09756 6.82041 0.718333 7.10153 0.438508C7.38264 0.158684 7.76363 0.00102654 8.16118 0H19.2212C19.6187 0.00102654 19.9997 0.158684 20.2808 0.438508C20.5619 0.718333 20.7203 1.09756 20.7214 1.49329V2.65992C20.7213 2.79547 20.7743 2.92571 20.8691 3.023C20.9639 3.12029 21.0931 3.17697 21.2292 3.18102H25.4602C25.8568 3.18205 26.2367 3.33929 26.5171 3.61839C26.7975 3.89748 26.9555 4.27572 26.9565 4.67042V18.4989C26.9576 18.6954 26.9196 18.8901 26.845 19.0719C26.7703 19.2537 26.6603 19.4191 26.5213 19.5585C26.3823 19.6979 26.217 19.8087 26.0349 19.8845C25.8529 19.9602 25.6576 19.9995 25.4602 20ZM1.51581 4.16099C1.44725 4.16048 1.37926 4.17348 1.31577 4.19924C1.25228 4.225 1.19454 4.26302 1.14587 4.3111C1.09721 4.35918 1.05859 4.41637 1.03223 4.47937C1.00588 4.54238 0.992309 4.60995 0.992311 4.6782V18.5067C0.992311 18.6449 1.04746 18.7775 1.14564 18.8752C1.24382 18.9729 1.37697 19.0278 1.51581 19.0278H25.4759C25.5444 19.0278 25.6123 19.0143 25.6756 18.9881C25.7389 18.9618 25.7964 18.9234 25.8447 18.8749C25.893 18.8265 25.9312 18.769 25.957 18.7058C25.9829 18.6426 25.996 18.5749 25.9955 18.5067V4.6782C25.996 4.61014 25.9829 4.54264 25.957 4.47966C25.931 4.41667 25.8928 4.35946 25.8444 4.31133C25.7961 4.2632 25.7386 4.22512 25.6753 4.19931C25.612 4.1735 25.5442 4.16047 25.4759 4.16099H21.2292C20.8317 4.15996 20.4507 4.0023 20.1696 3.72248C19.8885 3.44266 19.7301 3.06343 19.729 2.6677V1.50106C19.729 1.36286 19.6739 1.23032 19.5757 1.1326C19.4775 1.03487 19.3444 0.979968 19.2055 0.979968H8.15728C8.08853 0.979968 8.02045 0.993454 7.95694 1.01964C7.89343 1.04583 7.83571 1.08421 7.7871 1.1326C7.73849 1.18099 7.69993 1.23843 7.67362 1.30165C7.64731 1.36487 7.63377 1.43263 7.63377 1.50106V2.6677C7.63274 3.06343 7.47435 3.44266 7.19324 3.72248C6.91212 4.0023 6.53114 4.15996 6.13358 4.16099H1.51581Z" fill="#373765"/>
<path d="M13.4782 16.889C12.0545 16.8869 10.6898 16.3228 9.68347 15.3203C8.67713 14.3179 8.11138 12.959 8.11035 11.5419C8.11138 10.1248 8.67713 8.76589 9.68347 7.76345C10.6898 6.76101 12.0545 6.19688 13.4782 6.19482C14.9029 6.19585 16.2691 6.75941 17.2769 7.76185C18.2847 8.76428 18.8518 10.1237 18.8539 11.5419C18.8518 12.9601 18.2847 14.3195 17.2769 15.3219C16.2691 16.3244 14.9029 16.8879 13.4782 16.889ZM13.4782 7.16702C12.3136 7.16908 11.1973 7.63079 10.3741 8.45091C9.55092 9.27102 9.08807 10.3826 9.08704 11.5419C9.08807 12.7012 9.55092 13.8128 10.3741 14.6329C11.1973 15.453 12.3136 15.9147 13.4782 15.9168C14.6439 15.9157 15.7616 15.4546 16.5863 14.6345C17.4109 13.8144 17.8751 12.7022 17.8772 11.5419C17.8751 10.3816 17.4109 9.26941 16.5863 8.44929C15.7616 7.62918 14.6439 7.16805 13.4782 7.16702Z" fill="#373765"/>
</g>
<defs>
<clipPath id="clip0_441_1292">
<rect width="26.9565" height="20" fill="white"/>
</clipPath>
</defs>
</svg>
