<svg width="15" height="15" viewBox="0 0 15 15" fill="none" xmlns="http://www.w3.org/2000/svg">
<path d="M3.52838 10.5994C3.35049 10.4215 3.35049 10.125 3.52838 9.94709L9.94719 3.52828C10.1251 3.35039 10.4216 3.35039 10.5995 3.52828C10.7773 3.70617 10.7773 4.00266 10.5995 4.18055L4.18065 10.5994C4.00276 10.7772 3.70627 10.7772 3.52838 10.5994Z" fill="#FFC78F"/>
<path d="M9.94749 10.5842L3.54339 4.18005C3.36549 4.00216 3.36549 3.70568 3.54338 3.52779C3.72127 3.3499 4.01775 3.3499 4.19564 3.52779L10.6146 9.94672C10.7925 10.1246 10.7925 10.4211 10.6146 10.599C10.4367 10.7769 10.1402 10.7769 9.94749 10.5842Z" fill="#FFC78F"/>
</svg>
