<svg width="24" height="23" viewBox="0 0 24 23" fill="none" xmlns="http://www.w3.org/2000/svg">
<g clip-path="url(#clip0_143_3651)">
<path d="M12.0001 22.9998H11.907C8.8487 22.9874 5.92021 21.7623 3.76421 19.5932C1.60821 17.4241 0.40084 14.4883 0.407006 11.43C0.413172 8.37172 1.63239 5.44079 3.79712 3.28042C5.96184 1.12005 8.89522 -0.0932617 11.9535 -0.0932617C15.0118 -0.0932617 17.9452 1.12005 20.1099 3.28042C22.2747 5.44079 23.4939 8.37172 23.5001 11.43C23.5062 14.4883 22.2988 17.4241 20.1428 19.5932C17.9869 21.7623 15.0584 22.9874 12.0001 22.9998ZM12.0001 1.16373C9.25879 1.15323 6.62562 2.23214 4.67981 4.1631C2.73401 6.09406 1.63501 8.7189 1.62451 11.4602C1.61402 14.2015 2.69293 16.8347 4.62389 18.7805C6.55485 20.7263 9.17968 21.8253 11.921 21.8358H12.0047C14.746 21.8469 17.3794 20.7686 19.3257 18.8381C21.2719 16.9075 22.3716 14.2829 22.3827 11.5417C22.3938 8.80038 21.3155 6.16695 19.385 4.22071C17.4544 2.27447 14.8299 1.17484 12.0886 1.16373H12.0001Z" fill="#171753"/>
<path d="M10.4449 15.0151C10.1121 15.0165 9.79225 14.8859 9.55559 14.6519L7.35337 12.6219C7.24618 12.516 7.18424 12.3727 7.18059 12.2221C7.17694 12.0714 7.23189 11.9252 7.33382 11.8143C7.43574 11.7033 7.57671 11.6362 7.72711 11.627C7.87751 11.6179 8.02562 11.6675 8.14024 11.7653L10.3611 13.8092C10.3811 13.8285 10.4077 13.8394 10.4356 13.8394C10.4634 13.8394 10.4901 13.8285 10.5101 13.8092L15.841 8.49685C15.9503 8.38756 16.0985 8.32617 16.2531 8.32617C16.4076 8.32617 16.5558 8.38756 16.6651 8.49685C16.7744 8.60613 16.8358 8.75434 16.8358 8.90889C16.8358 9.06343 16.7744 9.21166 16.6651 9.32094L11.3248 14.6333C11.2106 14.7518 11.074 14.8466 10.923 14.9121C10.772 14.9776 10.6095 15.0126 10.4449 15.0151Z" fill="#171753"/>
</g>
<defs>
<clipPath id="clip0_143_3651">
<rect width="23" height="23" fill="white" transform="translate(0.5)"/>
</clipPath>
</defs>
</svg>
