<svg width="27" height="27" viewBox="0 0 27 27" fill="none" xmlns="http://www.w3.org/2000/svg">
<path d="M13.5 26.9995C6.06064 26.9995 0 20.939 0 13.4998C0 6.06053 6.06064 0 13.5 0C20.9394 0 27 6.06053 27 13.4998C27 20.939 20.9394 26.9995 13.5 26.9995ZM13.5 1.29253C6.77872 1.29253 1.29255 6.7786 1.29255 13.4998C1.29255 20.2209 6.77872 25.707 13.5 25.707C20.2213 25.707 25.7074 20.2209 25.7074 13.4998C25.7074 6.7786 20.2213 1.29253 13.5 1.29253Z" fill="#171753"/>
<path d="M8.65975 18.3489C8.41601 18.1051 8.41601 17.6989 8.65975 17.4552L17.4547 8.66023C17.6984 8.41649 18.1046 8.4165 18.3484 8.66024C18.5921 8.90399 18.5921 9.31022 18.3484 9.55396L9.55347 18.3489C9.30973 18.5926 8.9035 18.5926 8.65975 18.3489Z" fill="#171753"/>
<path d="M17.4555 18.3285L8.68069 9.55371C8.43694 9.30996 8.43694 8.90373 8.68068 8.65999C8.92442 8.41625 9.33065 8.41625 9.5744 8.66L18.3695 17.4551C18.6132 17.6988 18.6133 18.1051 18.3695 18.3488C18.1258 18.5925 17.7195 18.5925 17.4555 18.3285Z" fill="#171753"/>
</svg>
