<svg width="19" height="10" viewBox="0 0 19 10" fill="none" xmlns="http://www.w3.org/2000/svg">
<path d="M18.9998 0.74131C18.9986 0.544739 18.9182 0.356661 18.7764 0.218276C18.7062 0.149089 18.6229 0.094191 18.5312 0.0567372C18.4394 0.0192833 18.3411 7.84043e-07 18.2418 7.79702e-07C18.1425 7.75361e-07 18.0441 0.0192833 17.9524 0.0567372C17.8607 0.094191 17.7774 0.149089 17.7072 0.218276L10.0181 7.77844C9.97643 7.82049 9.92666 7.85392 9.87168 7.87675C9.8167 7.89957 9.75762 7.91132 9.69795 7.91132C9.63828 7.91132 9.57922 7.89957 9.52424 7.87675C9.46925 7.85392 9.41946 7.82049 9.37782 7.77844L1.69471 0.218276C1.62458 0.149088 1.54126 0.0941903 1.44953 0.0567364C1.3578 0.0192826 1.25948 3.73812e-08 1.16017 3.30401e-08C1.06086 2.86991e-08 0.962513 0.0192826 0.870785 0.0567364C0.779057 0.0941903 0.695741 0.149088 0.625605 0.218275C0.555477 0.286781 0.499827 0.36826 0.461845 0.458027C0.423863 0.547793 0.404297 0.644074 0.404297 0.74131C0.404297 0.838545 0.423863 0.934826 0.461845 1.02459C0.499827 1.11436 0.555477 1.19584 0.625605 1.26434L8.31476 8.83045C8.49657 9.00998 8.71261 9.15243 8.95048 9.24963C9.18836 9.34682 9.4434 9.39684 9.70097 9.39684C9.95854 9.39684 10.2136 9.34682 10.4515 9.24963C10.6893 9.15243 10.9054 9.00998 11.0872 8.83045L18.7763 1.26434C18.9182 1.12596 18.9986 0.937882 18.9998 0.74131Z" fill="white"/>
</svg>
