<svg width="24" height="23" viewBox="0 0 24 23" fill="none" xmlns="http://www.w3.org/2000/svg">
<g clip-path="url(#clip0_441_1027)">
<path d="M15.709 23H3.24565C2.38485 23 1.55931 22.6581 0.950629 22.0494C0.341951 21.4407 0 20.6152 0 19.7544V7.29106C0 6.43026 0.341951 5.60473 0.950629 4.99605C1.55931 4.38737 2.38485 4.04541 3.24565 4.04541H15.709C16.5698 4.04541 17.3953 4.38737 18.004 4.99605C18.6127 5.60473 18.9546 6.43026 18.9546 7.29106V19.7544C18.9546 20.6152 18.6127 21.4407 18.004 22.0494C17.3953 22.6581 16.5698 23 15.709 23ZM3.24565 5.34367C2.72917 5.34367 2.23384 5.54885 1.86864 5.91405C1.50343 6.27926 1.29826 6.77458 1.29826 7.29106V19.7544C1.29826 20.2709 1.50343 20.7662 1.86864 21.1314C2.23384 21.4966 2.72917 21.7018 3.24565 21.7018H15.709C16.2254 21.7018 16.7208 21.4966 17.086 21.1314C17.4512 20.7662 17.6564 20.2709 17.6564 19.7544V7.29106C17.6564 6.77458 17.4512 6.27926 17.086 5.91405C16.7208 5.54885 16.2254 5.34367 15.709 5.34367H3.24565Z" fill="#171753"/>
<path d="M20.8812 18.9754C20.7091 18.9754 20.5439 18.907 20.4222 18.7853C20.3005 18.6635 20.2321 18.4984 20.2321 18.3263C20.2321 18.1541 20.3005 17.989 20.4222 17.8673C20.5439 17.7455 20.7091 17.6771 20.8812 17.6771C21.1962 17.6758 21.4979 17.55 21.7206 17.3273C21.9433 17.1046 22.0691 16.8029 22.0704 16.4879V2.48747C22.0691 2.1725 21.9433 1.87081 21.7206 1.64809C21.4979 1.42536 21.1962 1.29963 20.8812 1.29826H6.90153C6.58655 1.29963 6.28487 1.42536 6.06214 1.64809C5.83942 1.87081 5.71369 2.1725 5.71232 2.48747C5.71232 2.65963 5.64393 2.82474 5.5222 2.94648C5.40046 3.06821 5.23535 3.1366 5.06319 3.1366C4.89103 3.1366 4.72593 3.06821 4.60419 2.94648C4.48245 2.82474 4.41406 2.65963 4.41406 2.48747C4.41543 1.82818 4.67795 1.19628 5.14414 0.730082C5.61034 0.263888 6.24223 0.00137211 6.90153 0H20.8812C21.5405 0.00137211 22.1724 0.263888 22.6386 0.730082C23.1048 1.19628 23.3673 1.82818 23.3687 2.48747V16.4672C23.3707 16.7954 23.3079 17.1208 23.1839 17.4246C23.0599 17.7285 22.8771 18.0049 22.646 18.238C22.4148 18.471 22.14 18.6561 21.8371 18.7827C21.5343 18.9092 21.2094 18.9747 20.8812 18.9754V18.9754Z" fill="#171753"/>
</g>
<defs>
<clipPath id="clip0_441_1027">
<rect width="23.3687" height="23" fill="white"/>
</clipPath>
</defs>
</svg>
