<svg width="20" height="20" viewBox="0 0 20 20" fill="none" xmlns="http://www.w3.org/2000/svg">
<g clip-path="url(#clip0_143_2138)">
<path d="M14.1209 20.0001H2.90698C2.136 20.0001 1.3966 19.6938 0.85144 19.1486C0.306277 18.6035 0 17.8641 0 17.0931V5.87914C0.00123001 5.10854 0.307891 4.36985 0.852789 3.82496C1.39769 3.28006 2.13638 2.9734 2.90698 2.97217H14.1209C14.8912 2.97462 15.6291 3.28167 16.1738 3.82631C16.7184 4.37094 17.0255 5.10892 17.0279 5.87914V17.0931C17.0267 17.8637 16.72 18.6024 16.1751 19.1473C15.6302 19.6922 14.8915 19.9988 14.1209 20.0001ZM2.90698 4.13496C2.44477 4.13619 2.00184 4.32034 1.675 4.64717C1.34817 4.974 1.16402 5.41694 1.16279 5.87914V17.0931C1.16279 17.5557 1.34656 17.9993 1.67366 18.3264C2.00075 18.6535 2.44439 18.8373 2.90698 18.8373H14.1209C14.5831 18.8361 15.0261 18.6519 15.3529 18.3251C15.6797 17.9982 15.8639 17.5553 15.8651 17.0931V5.87914C15.8639 5.41694 15.6797 4.974 15.3529 4.64717C15.0261 4.32034 14.5831 4.13619 14.1209 4.13496H2.90698Z" fill="#9BE7C4"/>
<path d="M17.7675 17.0279C17.6133 17.0279 17.4654 16.9667 17.3564 16.8576C17.2474 16.7486 17.1861 16.6007 17.1861 16.4465C17.1861 16.2923 17.2474 16.1444 17.3564 16.0354C17.4654 15.9264 17.6133 15.8651 17.7675 15.8651C18.0517 15.8639 18.3237 15.7502 18.5242 15.5488C18.7247 15.3474 18.8373 15.0748 18.8373 14.7907V2.23255C18.8373 1.94883 18.7246 1.67673 18.5239 1.47611C18.3233 1.27549 18.0512 1.16279 17.7675 1.16279H5.20938C4.92523 1.16279 4.65264 1.27534 4.45128 1.47583C4.24992 1.67632 4.13619 1.94841 4.13496 2.23255C4.13496 2.38675 4.0737 2.53463 3.96467 2.64366C3.85564 2.75269 3.70776 2.81395 3.55356 2.81395C3.39937 2.81395 3.25147 2.75269 3.14244 2.64366C3.03341 2.53463 2.97217 2.38675 2.97217 2.23255C2.9734 1.64001 3.20964 1.07217 3.62906 0.653616C4.04849 0.235063 4.61684 -1.28055e-06 5.20938 0H17.7675C18.0607 0 18.351 0.0577509 18.6219 0.169947C18.8927 0.282144 19.1389 0.446587 19.3462 0.653899C19.5535 0.861212 19.7179 1.10734 19.8301 1.3782C19.9423 1.64907 20.0001 1.93937 20.0001 2.23255V14.7907C20.0001 15.3832 19.765 15.9516 19.3465 16.371C18.9279 16.7904 18.36 17.0267 17.7675 17.0279Z" fill="#9BE7C4"/>
</g>
<defs>
<clipPath id="clip0_143_2138">
<rect width="20" height="20" fill="white"/>
</clipPath>
</defs>
</svg>
