<svg width="52" height="52" viewBox="0 0 52 52" fill="none" xmlns="http://www.w3.org/2000/svg">
<g filter="url(#filter0_d_143_3822)">
<circle cx="26" cy="24" r="22" fill="#BEF0ED"/>
</g>
<g clip-path="url(#clip0_143_3822)">
<path d="M22.5124 31.344C22.4198 31.343 22.3286 31.3213 22.2455 31.2807C22.0998 31.2104 21.988 31.0852 21.9346 30.9325C21.8812 30.7799 21.8905 30.6123 21.9605 30.4665L28.2934 17.3482C28.3273 17.2753 28.3754 17.2099 28.435 17.1559C28.4946 17.1019 28.5644 17.0603 28.6403 17.0338C28.7163 17.0072 28.7967 16.9961 28.877 17.0012C28.9573 17.0063 29.0357 17.0274 29.1077 17.0633C29.2533 17.1336 29.3651 17.2588 29.4185 17.4115C29.4719 17.5641 29.4626 17.7317 29.3926 17.8775L23.0597 30.9957C23.01 31.099 22.9324 31.1863 22.8357 31.2479C22.739 31.3094 22.627 31.3427 22.5124 31.344Z" fill="#171753"/>
<path d="M34.3685 31.1813C34.2851 31.1843 34.2019 31.1703 34.1241 31.1399C34.0463 31.1096 33.9755 31.0636 33.9162 31.0048C33.8594 30.9481 33.8144 30.8808 33.7837 30.8067C33.7529 30.7325 33.7371 30.6531 33.7371 30.5729C33.7371 30.4926 33.7529 30.4132 33.7837 30.339C33.8144 30.2649 33.8594 30.1976 33.9162 30.1409L39.6972 24.396C39.7514 24.3402 39.7817 24.2656 39.7817 24.1879C39.7817 24.1102 39.7514 24.0355 39.6972 23.9798L33.9388 18.2214C33.882 18.1646 33.837 18.0973 33.8063 18.0232C33.7756 17.949 33.7597 17.8696 33.7597 17.7894C33.7597 17.7091 33.7756 17.6297 33.8063 17.5556C33.837 17.4814 33.882 17.4141 33.9388 17.3574C34.0539 17.2438 34.2091 17.1802 34.3708 17.1802C34.5325 17.1802 34.6877 17.2438 34.8028 17.3574L40.5612 23.1158C40.8435 23.4012 41.0019 23.7864 41.0019 24.1879C41.0019 24.5893 40.8435 24.9746 40.5612 25.26L34.8028 31.0003C34.6874 31.1154 34.5314 31.1804 34.3685 31.1813Z" fill="#171753"/>
<path d="M17.6315 31.1811C17.548 31.1842 17.4648 31.1702 17.387 31.1398C17.3092 31.1095 17.2384 31.0635 17.1791 31.0047L11.4207 25.2463C11.2798 25.1055 11.168 24.9384 11.0918 24.7545C11.0155 24.5705 10.9763 24.3733 10.9763 24.1742C10.9763 23.9751 11.0155 23.7779 11.0918 23.5939C11.168 23.41 11.2798 23.2429 11.4207 23.1021L17.1791 17.3437C17.2942 17.2301 17.4494 17.1665 17.6111 17.1665C17.7728 17.1665 17.928 17.2301 18.0431 17.3437C18.0999 17.4004 18.1449 17.4677 18.1756 17.5419C18.2063 17.616 18.2222 17.6954 18.2222 17.7757C18.2222 17.8559 18.2063 17.9354 18.1756 18.0095C18.1449 18.0836 18.0999 18.151 18.0431 18.2077L12.3073 23.9435C12.2531 23.9992 12.2228 24.0739 12.2228 24.1516C12.2228 24.2293 12.2531 24.3039 12.3073 24.3597L18.0657 30.1181C18.1225 30.1748 18.1675 30.2422 18.1982 30.3163C18.229 30.3904 18.2448 30.4699 18.2448 30.5501C18.2448 30.6303 18.229 30.7098 18.1982 30.7839C18.1675 30.858 18.1225 30.9254 18.0657 30.9821C18.0101 31.0424 17.9431 31.091 17.8685 31.1251C17.794 31.1593 17.7134 31.1783 17.6315 31.1811Z" fill="#171753"/>
</g>
<defs>
<filter id="filter0_d_143_3822" x="0" y="0" width="52" height="52" filterUnits="userSpaceOnUse" color-interpolation-filters="sRGB">
<feFlood flood-opacity="0" result="BackgroundImageFix"/>
<feColorMatrix in="SourceAlpha" type="matrix" values="0 0 0 0 0 0 0 0 0 0 0 0 0 0 0 0 0 0 127 0" result="hardAlpha"/>
<feOffset dy="2"/>
<feGaussianBlur stdDeviation="2"/>
<feColorMatrix type="matrix" values="0 0 0 0 0 0 0 0 0 0 0 0 0 0 0 0 0 0 0.16 0"/>
<feBlend mode="normal" in2="BackgroundImageFix" result="effect1_dropShadow_143_3822"/>
<feBlend mode="normal" in="SourceGraphic" in2="effect1_dropShadow_143_3822" result="shape"/>
</filter>
<clipPath id="clip0_143_3822">
<rect width="30" height="14.3441" fill="white" transform="translate(11 17)"/>
</clipPath>
</defs>
</svg>
