<svg width="19" height="10" viewBox="0 0 19 10" fill="none" xmlns="http://www.w3.org/2000/svg">
<path d="M0.404465 9.25869C0.405706 9.45526 0.486067 9.64334 0.627947 9.78172C0.698082 9.85091 0.781399 9.90581 0.873127 9.94326C0.964855 9.98072 1.06319 10 1.1625 10C1.26181 10 1.36016 9.98072 1.45188 9.94326C1.54361 9.90581 1.62693 9.85091 1.69706 9.78172L9.38622 2.22156C9.42786 2.17951 9.47763 2.14608 9.53261 2.12326C9.5876 2.10043 9.64667 2.08868 9.70635 2.08868C9.76602 2.08868 9.82508 2.10043 9.88006 2.12326C9.93504 2.14608 9.98483 2.17951 10.0265 2.22156L17.7096 9.78172C17.7797 9.85091 17.863 9.90581 17.9548 9.94326C18.0465 9.98072 18.1448 10 18.2441 10C18.3434 10 18.4418 9.98072 18.5335 9.94326C18.6252 9.90581 18.7086 9.85091 18.7787 9.78172C18.8488 9.71322 18.9045 9.63174 18.9425 9.54197C18.9804 9.45221 19 9.35593 19 9.25869C19 9.16145 18.9804 9.06517 18.9425 8.97541C18.9045 8.88564 18.8488 8.80416 18.7787 8.73566L11.0895 1.16955C10.9077 0.990021 10.6917 0.847567 10.4538 0.750373C10.2159 0.653178 9.9609 0.603163 9.70332 0.603163C9.44575 0.603163 9.19071 0.653178 8.95284 0.750373C8.71496 0.847566 8.49891 0.990021 8.31709 1.16955L0.627947 8.73566C0.486067 8.87404 0.405706 9.06212 0.404465 9.25869Z" fill="white"/>
</svg>
