<svg width="27" height="18" viewBox="0 0 27 18" fill="none" xmlns="http://www.w3.org/2000/svg">
<g filter="url(#filter0_d_947_631)">
<path d="M22.9999 0.74131C22.9987 0.544739 22.9196 0.356661 22.78 0.218276C22.711 0.149089 22.629 0.094191 22.5387 0.0567372C22.4485 0.0192833 22.3517 7.71498e-07 22.254 7.67226e-07C22.1563 7.62955e-07 22.0595 0.0192833 21.9692 0.0567371C21.879 0.094191 21.797 0.149089 21.728 0.218276L14.1619 7.77844C14.1209 7.82049 14.0719 7.85392 14.0178 7.87675C13.9637 7.89957 13.9056 7.91132 13.8469 7.91132C13.7881 7.91132 13.73 7.89957 13.6759 7.87675C13.6218 7.85392 13.5728 7.82049 13.5318 7.77844L5.97167 0.218276C5.90266 0.149088 5.82067 0.0941903 5.73041 0.0567364C5.64015 0.0192826 5.5434 3.67831e-08 5.44568 3.25115e-08C5.34796 2.82399e-08 5.25119 0.0192826 5.16093 0.0567364C5.07067 0.0941903 4.98868 0.149088 4.91967 0.218275C4.85067 0.286781 4.79591 0.36826 4.75853 0.458027C4.72116 0.547793 4.7019 0.644074 4.7019 0.74131C4.7019 0.838545 4.72116 0.934826 4.75853 1.02459C4.79591 1.11436 4.85067 1.19584 4.91967 1.26434L12.4858 8.83045C12.6647 9.00998 12.8773 9.15243 13.1113 9.24963C13.3454 9.34682 13.5964 9.39684 13.8498 9.39684C14.1033 9.39684 14.3542 9.34682 14.5883 9.24963C14.8224 9.15243 15.035 9.00998 15.2139 8.83045L22.78 1.26434C22.9196 1.12596 22.9987 0.937882 22.9999 0.74131Z" fill="#171753"/>
</g>
<defs>
<filter id="filter0_d_947_631" x="0.701904" y="0" width="26.298" height="17.3969" filterUnits="userSpaceOnUse" color-interpolation-filters="sRGB">
<feFlood flood-opacity="0" result="BackgroundImageFix"/>
<feColorMatrix in="SourceAlpha" type="matrix" values="0 0 0 0 0 0 0 0 0 0 0 0 0 0 0 0 0 0 127 0" result="hardAlpha"/>
<feOffset dy="4"/>
<feGaussianBlur stdDeviation="2"/>
<feComposite in2="hardAlpha" operator="out"/>
<feColorMatrix type="matrix" values="0 0 0 0 0 0 0 0 0 0 0 0 0 0 0 0 0 0 0.25 0"/>
<feBlend mode="normal" in2="BackgroundImageFix" result="effect1_dropShadow_947_631"/>
<feBlend mode="normal" in="SourceGraphic" in2="effect1_dropShadow_947_631" result="shape"/>
</filter>
</defs>
</svg>
