<svg width="13" height="13" viewBox="0 0 13 13" fill="none" xmlns="http://www.w3.org/2000/svg">
<g clip-path="url(#clip0_347_5374)">
<path d="M6.49999 12.9998H6.44814C5.59393 12.9953 4.74911 12.8212 3.9627 12.4877C3.1763 12.1541 2.46396 11.6677 1.86703 11.0567C1.26657 10.4501 0.792387 9.73039 0.471914 8.9393C0.151441 8.14821 -0.00896128 7.30141 -3.02776e-06 6.44791C0.00446877 5.5937 0.178538 4.74888 0.512093 3.96248C0.845649 3.17607 1.33205 2.46373 1.94308 1.86679C2.55113 1.26732 3.27156 0.793813 4.06305 0.473423C4.85453 0.153033 5.70149 -0.00792818 6.55532 -0.000224259C7.41187 0.00241611 8.25931 0.175594 9.04821 0.509203C9.83712 0.842812 10.5517 1.33017 11.1503 1.94286C11.751 2.55 12.2253 3.27027 12.5458 4.06196C12.8663 4.85366 13.0265 5.70105 13.0173 6.5551C13.0124 7.41286 12.8365 8.26104 12.4999 9.05001C12.1633 9.83899 11.6727 10.5529 11.0569 11.15C9.84216 12.3447 8.20376 13.0098 6.49999 12.9998ZM6.49999 0.933285C5.03896 0.929367 3.6357 1.5036 2.59654 2.53063C2.07363 3.04227 1.6574 3.65255 1.37194 4.32614C1.08648 4.99973 0.937458 5.72326 0.933512 6.45483C0.925651 7.18586 1.06276 7.91121 1.33693 8.58893C1.6111 9.26665 2.01691 9.8833 2.53085 10.4032C3.04249 10.9261 3.65277 11.3424 4.32636 11.6278C4.99996 11.9133 5.72347 12.0623 6.45504 12.0663C7.1868 12.0728 7.91259 11.934 8.59035 11.658C9.26811 11.3821 9.88438 10.9744 10.4035 10.4586C10.9264 9.94691 11.3426 9.33663 11.6281 8.66304C11.9135 7.98945 12.0625 7.26592 12.0665 6.53435C12.0716 5.80433 11.9322 5.08052 11.6563 4.40463C11.3803 3.72875 10.9733 3.11417 10.4588 2.59632C9.94713 2.0734 9.33685 1.65717 8.66326 1.37171C7.98967 1.08625 7.26615 0.937232 6.53458 0.933285H6.49999Z" fill="#9D9DAF"/>
<path d="M9.38698 6.96671H3.61303C3.48924 6.96671 3.37052 6.91754 3.28299 6.83001C3.19546 6.74247 3.14627 6.62375 3.14627 6.49996C3.14627 6.37617 3.19546 6.25745 3.28299 6.16992C3.37052 6.08238 3.48924 6.0332 3.61303 6.0332H9.38698C9.51077 6.0332 9.62949 6.08238 9.71702 6.16992C9.80455 6.25745 9.85372 6.37617 9.85372 6.49996C9.85372 6.62375 9.80455 6.74247 9.71702 6.83001C9.62949 6.91754 9.51077 6.96671 9.38698 6.96671Z" fill="#9D9DAF"/>
</g>
<defs>
<clipPath id="clip0_347_5374">
<rect width="13" height="13" fill="white"/>
</clipPath>
</defs>
</svg>
