<svg width="115" height="86" viewBox="0 0 115 86" fill="none" xmlns="http://www.w3.org/2000/svg">
<g filter="url(#filter0_d_143_2090)">
<path d="M76.8745 43.5489C76.8745 40.5089 79.3067 38.0769 82.347 38.0769C85.3873 38.0769 87.8195 40.5089 87.8195 43.5489C87.8195 46.5888 85.3873 49.0208 82.347 49.0208C79.3067 49.0208 76.8745 46.4875 76.8745 43.5489Z" fill="white"/>
<path d="M109.912 56.8235C109.709 58.5462 109.506 60.2688 109 61.8901C107.48 67.6661 104.135 72.9354 98.6627 75.874C91.1633 79.7247 82.2451 78.306 74.7457 75.3674C68.5638 79.7247 68.5638 79.7247 68.5638 79.7247C67.145 80.6367 65.3208 79.1167 66.1316 77.5967C64.4087 77.9007 63.902 76.2794 64.4087 74.962C62.9899 76.0767 61.7738 74.05 62.5846 72.8341C63.0913 72.0234 63.902 71.1114 64.5101 70.4021C55.7946 65.4368 47.8898 59.3568 39.8837 53.3782C44.4442 56.2155 62.6859 65.5381 67.145 67.4634C71.8068 69.4901 76.4686 71.5167 81.333 72.6314C85.3867 73.5434 90.5552 74.05 94.3049 71.7194C97.7506 69.6927 99.068 65.5381 99.5748 61.7888C100.791 53.6822 97.9533 44.5623 93.6969 37.6717C89.2378 30.4771 81.9411 23.9918 73.631 21.8638C70.5907 21.0531 67.5504 21.0531 64.7128 21.5598C58.1255 22.6745 52.1462 26.7278 47.5858 31.7944C40.9985 39.0903 36.4381 48.1089 32.283 57.0262C29.4454 63.0048 25.493 77.5967 16.1695 71.8207C12.0144 69.1861 9.3795 64.6261 7.55533 60.1675C5.52847 55.4049 4.10966 49.0209 5.42712 43.853C8.26473 33.0104 23.4662 42.637 28.6347 46.0823C28.3306 45.9809 16.1695 40.4077 11.7104 44.765C9.68353 46.7916 9.78487 50.4396 10.0889 53.0742C10.697 57.8368 13.0278 64.9301 17.4869 67.5648C23.2635 70.9087 26.2024 60.4715 27.7226 56.8235C30.2562 50.6422 32.6884 44.461 35.526 38.381C38.6676 31.6931 42.4173 25.1064 47.5858 19.7358C46.471 18.4185 44.8495 16.7972 44.7482 15.0745C44.5455 13.1492 46.471 11.0212 48.4979 12.0346C46.167 9.39991 49.3086 5.44795 52.3489 6.96793C50.9301 4.73862 53.1597 1.90131 55.4906 2.00264C56.808 2.00264 58.1255 3.11729 59.1389 3.82662C61.7738 5.54927 64.4087 7.37326 67.145 9.09591C92.3794 5.14395 112.141 33.821 109.912 56.8235Z" fill="white"/>
<path d="M109 61.89C107.48 67.666 104.135 72.9353 98.6627 75.8739C91.1633 79.7245 82.2452 78.3059 74.7458 75.3672C68.5639 79.7245 68.5639 79.7245 68.5639 79.7245C67.1451 80.6365 65.3209 79.1166 66.1316 77.5966C64.4088 77.9006 63.9021 76.2792 64.4088 74.9619C62.99 76.0766 61.7739 74.0499 62.5846 72.8339C63.0913 72.0233 63.9021 71.1113 64.5101 70.4019C55.7946 65.4367 47.8899 59.3567 39.8838 53.3781C44.4442 56.2154 62.686 65.538 67.1451 67.4633C71.8068 69.49 76.4686 71.5166 81.3331 72.6313C85.3868 73.5433 90.5553 74.0499 94.305 71.7193C97.7506 69.6926 99.0681 65.538 99.5748 61.7887C100.791 53.6821 97.9533 44.5622 93.6969 37.6715C89.2378 30.4769 81.9411 23.9917 73.631 21.8637C70.5907 21.053 67.5504 21.053 64.7128 21.5597C76.0632 18.1144 97.9533 22.6743 105.655 40.2049C109.304 48.8181 110.013 55.7087 109 61.89Z" fill="white"/>
</g>
<defs>
<filter id="filter0_d_143_2090" x="0.916504" y="0" width="113.167" height="86" filterUnits="userSpaceOnUse" color-interpolation-filters="sRGB">
<feFlood flood-opacity="0" result="BackgroundImageFix"/>
<feColorMatrix in="SourceAlpha" type="matrix" values="0 0 0 0 0 0 0 0 0 0 0 0 0 0 0 0 0 0 127 0" result="hardAlpha"/>
<feOffset dy="2"/>
<feGaussianBlur stdDeviation="2"/>
<feColorMatrix type="matrix" values="0 0 0 0 0 0 0 0 0 0 0 0 0 0 0 0 0 0 0.16 0"/>
<feBlend mode="normal" in2="BackgroundImageFix" result="effect1_dropShadow_143_2090"/>
<feBlend mode="normal" in="SourceGraphic" in2="effect1_dropShadow_143_2090" result="shape"/>
</filter>
</defs>
</svg>
