<svg width="31" height="26" viewBox="0 0 31 26" fill="none" xmlns="http://www.w3.org/2000/svg">
<g clip-path="url(#clip0_285_1106)">
<path d="M14.3893 17.1846C13.9572 17.186 13.529 17.102 13.1293 16.9374C12.7297 16.7729 12.3664 16.5311 12.0604 16.2259C11.7513 15.9202 11.5059 15.5562 11.3385 15.1549C11.171 14.7537 11.0847 14.3233 11.0847 13.8885C11.0814 13.0117 11.4262 12.1693 12.0434 11.5465C12.6606 10.9237 13.4998 10.5714 14.3766 10.5669H14.453C14.8852 10.5656 15.3134 10.6496 15.713 10.8141C16.1127 10.9786 16.4759 11.2204 16.7819 11.5256C17.0914 11.8313 17.3374 12.1952 17.5055 12.5964C17.6737 12.9976 17.7608 13.428 17.7618 13.863C17.763 14.2985 17.6782 14.7299 17.5125 15.1325C17.3468 15.5352 17.1033 15.9012 16.796 16.2097C16.4887 16.5182 16.1235 16.7631 15.7215 16.9304C15.3195 17.0977 14.8884 17.1841 14.453 17.1846H14.3766H14.3893ZM14.4657 11.7123H14.3936C13.8205 11.7156 13.2722 11.9462 12.869 12.3534C12.4658 12.7606 12.2406 13.3112 12.2428 13.8843C12.2451 14.4558 12.4734 15.0033 12.878 15.4071C13.2826 15.8109 13.8305 16.0381 14.4021 16.0393H14.453C15.0264 16.0359 15.5752 15.8054 15.9791 15.3984C16.383 14.9913 16.6091 14.4407 16.608 13.8673C16.608 13.2946 16.3814 12.7451 15.9776 12.339C15.5738 11.9328 15.0257 11.7029 14.453 11.6996L14.4657 11.7123Z" fill="#171753"/>
<path d="M2.74893 26.0041C2.39674 26.0046 2.04792 25.9356 1.7225 25.8009C1.39707 25.6662 1.10148 25.4686 0.85271 25.2193C0.600218 24.9713 0.399642 24.6756 0.262712 24.3493C0.125781 24.023 0.0552384 23.6727 0.0551881 23.3188L3.8351e-05 9.71854C-0.0018517 9.36464 0.0661362 9.01384 0.200079 8.68626C0.334022 8.35869 0.531298 8.06077 0.780601 7.80958C1.02903 7.55804 1.32496 7.35839 1.65122 7.22221C1.97747 7.08602 2.32753 7.01603 2.68107 7.0163L20.5744 6.93994C21.2873 6.93994 21.9712 7.22258 22.4761 7.72592C22.9811 8.22926 23.2659 8.91225 23.2681 9.62521L23.3275 23.2255C23.329 23.579 23.2604 23.9294 23.1257 24.2563C22.991 24.5833 22.7928 24.8803 22.5427 25.1302C22.2954 25.3834 21.9997 25.5845 21.6733 25.7215C21.3469 25.8585 20.9963 25.9286 20.6422 25.9277L2.75317 26.0041H2.74893ZM20.5871 8.08532L2.6938 8.16168C2.49061 8.16077 2.2893 8.20087 2.10197 8.2796C1.91464 8.35832 1.74513 8.47404 1.60357 8.61982C1.4592 8.76288 1.345 8.93347 1.26776 9.12147C1.19052 9.30947 1.15181 9.51105 1.15391 9.71429L1.20906 23.3146C1.21012 23.7204 1.37179 24.1093 1.65872 24.3963C1.95142 24.6825 2.34384 24.8437 2.75317 24.846L20.6465 24.7696C20.8503 24.7706 21.0523 24.7305 21.2403 24.6518C21.4283 24.5731 21.5986 24.4574 21.7409 24.3115C21.884 24.1676 21.997 23.9968 22.0735 23.8089C22.1499 23.621 22.1883 23.4198 22.1864 23.217L22.1312 9.61673C22.1322 9.41289 22.0922 9.21093 22.0135 9.0229C21.9347 8.83486 21.819 8.6646 21.6731 8.52226C21.383 8.23894 20.9926 8.08187 20.5871 8.08532Z" fill="#171753"/>
<path d="M24.9012 22.458C24.7497 22.4569 24.6047 22.3962 24.4975 22.289C24.3903 22.1819 24.3297 22.0368 24.3286 21.8853C24.3286 21.7334 24.3889 21.5877 24.4963 21.4804C24.6037 21.3729 24.7493 21.3126 24.9012 21.3126C25.008 21.3129 25.1138 21.2917 25.2122 21.2501C25.3107 21.2086 25.3996 21.1476 25.4739 21.0708C25.5488 20.9956 25.608 20.9062 25.648 20.8079C25.6881 20.7096 25.7082 20.6043 25.7072 20.4981L25.6478 5.4216C25.6426 5.20699 25.5562 5.00235 25.406 4.84892C25.3318 4.77266 25.2426 4.71257 25.1441 4.67242C25.0455 4.63227 24.9397 4.61292 24.8333 4.6156L5.4638 4.6962C5.35739 4.69603 5.25198 4.71694 5.15369 4.75771C5.0554 4.79849 4.96617 4.85832 4.89112 4.93376C4.74083 5.08812 4.65705 5.29526 4.65778 5.51069C4.65779 5.66185 4.59804 5.80687 4.49156 5.91415C4.38507 6.02143 4.2405 6.08226 4.08935 6.08338C3.9382 6.08338 3.79316 6.02363 3.68588 5.91714C3.5786 5.81066 3.51777 5.66608 3.51665 5.51493C3.51481 5.25759 3.56411 5.00244 3.6617 4.76431C3.75928 4.52618 3.90321 4.30981 4.08511 4.12776C4.26531 3.94515 4.47997 3.80013 4.71664 3.70109C4.9533 3.60206 5.20725 3.55099 5.4638 3.55083L24.8333 3.47023C25.0886 3.46937 25.3416 3.51917 25.5775 3.61674C25.8135 3.71432 26.0277 3.85773 26.2078 4.03867C26.3914 4.21838 26.5373 4.43284 26.6371 4.66955C26.7369 4.90627 26.7885 5.16048 26.789 5.41736L26.8484 20.4939C26.8504 20.7513 26.8012 21.0065 26.7036 21.2446C26.606 21.4828 26.462 21.6992 26.2799 21.8811C26.0994 22.0633 25.8847 22.2081 25.6481 22.3071C25.4115 22.4061 25.1577 22.4574 24.9012 22.458Z" fill="#171753"/>
<path d="M28.4179 18.9878C28.2671 18.9867 28.1227 18.9266 28.0157 18.8203C27.9086 18.7141 27.8475 18.5701 27.8452 18.4193C27.8452 18.267 27.9054 18.1209 28.0127 18.0129C28.12 17.9048 28.2656 17.8435 28.4179 17.8424C28.5243 17.8418 28.6296 17.8203 28.7277 17.7791C28.8258 17.7379 28.9148 17.6777 28.9896 17.6021C29.0645 17.5264 29.1237 17.4368 29.1639 17.3383C29.2041 17.2398 29.2245 17.1343 29.2239 17.0279L29.1603 1.95562C29.1592 1.74107 29.0735 1.53563 28.9217 1.38392C28.77 1.23221 28.5646 1.14649 28.3501 1.14537L8.98048 1.22597C8.87407 1.22581 8.7687 1.24671 8.6704 1.28748C8.57211 1.32825 8.48286 1.38809 8.40781 1.46353C8.25713 1.61764 8.1733 1.82494 8.1745 2.04046C8.1745 2.11567 8.15967 2.19014 8.13089 2.25962C8.10211 2.3291 8.05992 2.39223 8.00674 2.44541C7.95356 2.49859 7.89045 2.54077 7.82097 2.56955C7.75149 2.59833 7.677 2.61315 7.60179 2.61315C7.45131 2.61099 7.30754 2.55053 7.20073 2.44451C7.09391 2.33849 7.0324 2.19516 7.02912 2.0447C7.02704 1.78732 7.07623 1.53211 7.17383 1.29395C7.27142 1.05578 7.41548 0.839432 7.59757 0.657525C7.77749 0.474539 7.99206 0.329266 8.22879 0.230205C8.46552 0.131143 8.71965 0.0802817 8.97626 0.080595L28.3458 0C28.8638 0.00110788 29.3604 0.206783 29.7274 0.572256C30.0945 0.937729 30.3023 1.4334 30.3057 1.95137L30.3651 17.0237C30.3662 17.2805 30.3167 17.535 30.2194 17.7727C30.1222 18.0104 29.9791 18.2266 29.7983 18.409C29.6175 18.5914 29.4025 18.7363 29.1657 18.8357C28.9288 18.935 28.6747 18.9866 28.4179 18.9878Z" fill="#171753"/>
<path d="M20.9858 23.0982C17.9697 23.0982 13.8675 22.517 11.2628 19.7724C7.8352 16.1581 3.68216 16.6417 0.797517 17.6852C0.726771 17.7109 0.651662 17.7224 0.576478 17.719C0.501295 17.7156 0.427507 17.6974 0.359349 17.6655C0.29119 17.6336 0.229987 17.5886 0.179245 17.533C0.128502 17.4774 0.0892285 17.4124 0.0636375 17.3416C0.0379689 17.2709 0.0264951 17.1958 0.0298745 17.1206C0.0332539 17.0454 0.0514031 16.9716 0.0833154 16.9035C0.115228 16.8353 0.160276 16.7741 0.215856 16.7234C0.271436 16.6726 0.336474 16.6333 0.407249 16.6077C3.02888 15.6575 8.04307 14.7073 12.0943 18.9833C14.9493 21.991 19.9719 22.0928 22.6996 21.8892C22.8502 21.8786 22.9989 21.928 23.1133 22.0265C23.2277 22.125 23.2986 22.2647 23.3105 22.4152C23.3169 22.4902 23.3083 22.5658 23.2852 22.6375C23.2621 22.7091 23.225 22.7755 23.1761 22.8327C23.1271 22.89 23.0673 22.9369 23.0001 22.9708C22.9329 23.0047 22.8596 23.025 22.7845 23.0303C22.2627 23.0727 21.6646 23.0982 20.9858 23.0982Z" fill="#171753"/>
</g>
<defs>
<clipPath id="clip0_285_1106">
<rect width="30.3694" height="26" fill="white"/>
</clipPath>
</defs>
</svg>
