<svg width="28" height="36" viewBox="0 0 28 36" fill="none" xmlns="http://www.w3.org/2000/svg">
<g clip-path="url(#clip0_320_5459)">
<path d="M13.9174 25.3807H13.8542C12.9751 25.3807 12.132 25.0283 11.5104 24.401C10.8888 23.7738 10.5396 22.923 10.5396 22.0359C10.5396 21.1489 10.8888 20.2981 11.5104 19.6708C12.132 19.0435 12.9751 18.6912 13.8542 18.6912H13.9174C14.7965 18.6912 15.6396 19.0435 16.2613 19.6708C16.8829 20.2981 17.2321 21.1489 17.2321 22.0359C17.2321 22.923 16.8829 23.7738 16.2613 24.401C15.6396 25.0283 14.7965 25.3807 13.9174 25.3807ZM13.8542 20.1269C13.3525 20.1269 12.8713 20.3281 12.5165 20.6861C12.1617 21.0441 11.9624 21.5296 11.9624 22.0359C11.9624 22.2866 12.0113 22.5348 12.1064 22.7665C12.2015 22.9981 12.3408 23.2085 12.5165 23.3858C12.6922 23.5631 12.9007 23.7037 13.1302 23.7996C13.3598 23.8956 13.6058 23.9449 13.8542 23.9449H13.9174C14.1659 23.9449 14.4119 23.8956 14.6414 23.7996C14.8709 23.7037 15.0795 23.5631 15.2552 23.3858C15.4308 23.2085 15.5702 22.9981 15.6653 22.7665C15.7603 22.5348 15.8093 22.2866 15.8093 22.0359C15.8093 21.5296 15.61 21.0441 15.2552 20.6861C14.9004 20.3281 14.4192 20.1269 13.9174 20.1269H13.8542Z" fill="white"/>
<path d="M24.4252 36.0001H3.34628C2.45922 35.9987 1.60889 35.6425 0.98164 35.0096C0.354394 34.3766 0.00139365 33.5186 0 32.6235V16.6707C0.00139365 15.7756 0.354394 14.9176 0.98164 14.2846C1.60889 13.6517 2.45922 13.2955 3.34628 13.2941C3.85598 13.2927 4.3444 13.0877 4.70482 12.724C5.06524 12.3603 5.26833 11.8675 5.26972 11.3532V8.69437C5.26519 7.5172 5.49995 6.35159 5.95949 5.26959C6.41903 4.18759 7.09359 3.2122 7.94147 2.40367C8.78224 1.58579 9.78083 0.951266 10.8751 0.539594C11.9693 0.127922 13.1359 -0.0520902 14.302 0.0107573C16.5418 0.145979 18.6438 1.14711 20.1709 2.80596C21.698 4.46481 22.5328 6.65375 22.5017 8.9177V13.2941H24.4252C25.3122 13.2955 26.1625 13.6517 26.7898 14.2846C27.417 14.9176 27.77 15.7756 27.7714 16.6707V32.6235C27.77 33.5186 27.417 34.3766 26.7898 35.0096C26.1625 35.6425 25.3122 35.9987 24.4252 36.0001ZM13.8857 1.43586C12.0379 1.43096 10.2602 2.14964 8.92691 3.4406C8.21916 4.11603 7.65619 4.93075 7.27279 5.83439C6.88939 6.73803 6.6937 7.7114 6.69782 8.69437V11.3532C6.69643 12.2483 6.34343 13.1063 5.71618 13.7393C5.08893 14.3722 4.2386 14.7284 3.35154 14.7298C2.84184 14.7312 2.35341 14.9362 1.993 15.2999C1.63258 15.6636 1.42949 16.1564 1.4281 16.6707V32.6235C1.42949 33.1378 1.63258 33.6307 1.993 33.9943C2.35341 34.358 2.84184 34.563 3.35154 34.5644H24.4304C24.9401 34.563 25.4286 34.358 25.789 33.9943C26.1494 33.6307 26.3525 33.1378 26.3539 32.6235V16.6707C26.3525 16.1564 26.1494 15.6636 25.789 15.2999C25.4286 14.9362 24.9401 14.7312 24.4304 14.7298H8.87948C8.78586 14.7305 8.69304 14.7124 8.60641 14.6766C8.51978 14.6408 8.44108 14.588 8.37488 14.5211C8.30868 14.4543 8.2563 14.3749 8.2208 14.2875C8.18529 14.2001 8.16737 14.1064 8.16807 14.0119C8.16737 13.9175 8.18529 13.8238 8.2208 13.7364C8.2563 13.649 8.30868 13.5695 8.37488 13.5027C8.44108 13.4359 8.51978 13.3831 8.60641 13.3473C8.69304 13.3115 8.78586 13.2934 8.87948 13.2941H21.0894V8.9177C21.1145 7.02617 20.4169 5.19754 19.1413 3.81131C17.8656 2.42509 16.11 1.58774 14.2388 1.47309L13.8857 1.43586Z" fill="white"/>
<path d="M13.8857 31.746C13.7921 31.7467 13.6993 31.7287 13.6127 31.6928C13.526 31.657 13.4473 31.6042 13.3811 31.5374C13.3149 31.4706 13.2626 31.3911 13.2271 31.3037C13.1916 31.2163 13.1736 31.1226 13.1743 31.0282V24.6471C13.1736 24.5526 13.1916 24.4589 13.2271 24.3715C13.2626 24.2841 13.3149 24.2047 13.3811 24.1379C13.4473 24.0711 13.526 24.0182 13.6127 23.9824C13.6993 23.9466 13.7921 23.9285 13.8857 23.9292C13.9794 23.9285 14.0722 23.9466 14.1588 23.9824C14.2455 24.0182 14.3242 24.0711 14.3904 24.1379C14.4566 24.2047 14.5089 24.2841 14.5444 24.3715C14.5799 24.4589 14.5979 24.5526 14.5972 24.6471V31.0282C14.5979 31.1226 14.5799 31.2163 14.5444 31.3037C14.5089 31.3911 14.4566 31.4706 14.3904 31.5374C14.3242 31.6042 14.2455 31.657 14.1588 31.6928C14.0722 31.7287 13.9794 31.7467 13.8857 31.746Z" fill="white"/>
</g>
<defs>
<clipPath id="clip0_320_5459">
<rect width="27.7714" height="36" fill="white"/>
</clipPath>
</defs>
</svg>
