<svg width="16" height="13" viewBox="0 0 16 13" fill="none" xmlns="http://www.w3.org/2000/svg">
<g clip-path="url(#clip0_523_5431)">
<path d="M9.45743 6.63047H9.41635C8.85605 6.62986 8.31887 6.40585 7.92268 6.0076C7.52649 5.60934 7.30364 5.06937 7.30304 4.50615C7.30364 3.94293 7.52649 3.40296 7.92268 3.0047C8.31887 2.60645 8.85605 2.38244 9.41635 2.38184H9.45743C10.0177 2.38244 10.5549 2.60645 10.9511 3.0047C11.3473 3.40296 11.5701 3.94293 11.5707 4.50615C11.5701 5.06937 11.3473 5.60934 10.9511 6.0076C10.5549 6.40585 10.0177 6.62986 9.45743 6.63047ZM9.41635 2.99435C9.01929 2.99435 8.63849 3.15291 8.35773 3.43513C8.07696 3.71736 7.91923 4.10014 7.91923 4.49927C7.91923 4.6969 7.95796 4.89259 8.03319 5.07518C8.10843 5.25776 8.21871 5.42366 8.35773 5.56341C8.49675 5.70315 8.66179 5.814 8.84343 5.88963C9.02507 5.96526 9.21975 6.00418 9.41635 6.00418H9.45743C9.65403 6.00418 9.84871 5.96526 10.0304 5.88963C10.212 5.814 10.377 5.70315 10.5161 5.56341C10.6551 5.42366 10.7653 5.25776 10.8406 5.07518C10.9158 4.89259 10.9545 4.6969 10.9545 4.49927C10.9545 4.10014 10.7968 3.71736 10.5161 3.43513C10.2353 3.15291 9.85449 2.99435 9.45743 2.99435H9.41635Z" fill="#BEF0ED"/>
<path d="M13.773 12.4571H1.44919C1.06503 12.4565 0.696771 12.3028 0.425125 12.0297C0.15348 11.7567 0.000603559 11.3865 0 11.0003V1.45699C0.00360521 1.07282 0.157805 0.705576 0.429127 0.434988C0.700449 0.164401 1.06699 0.0123057 1.44919 0.0117188H13.773C14.1572 0.0123255 14.5255 0.165998 14.7971 0.439058C15.0687 0.712118 15.2216 1.08229 15.2222 1.46846V11.0118C15.2186 11.396 15.0644 11.7632 14.7931 12.0338C14.5218 12.3044 14.1552 12.4565 13.773 12.4571ZM1.44919 0.61965C1.22845 0.620255 1.01692 0.708669 0.860837 0.865569C0.70475 1.02247 0.616794 1.2351 0.616192 1.45699V11.0003C0.616794 11.2222 0.70475 11.4349 0.860837 11.5918C1.01692 11.7487 1.22845 11.8371 1.44919 11.8377H13.773C13.9938 11.8371 14.2053 11.7487 14.3614 11.5918C14.5175 11.4349 14.6054 11.2222 14.606 11.0003V1.45699C14.6054 1.2351 14.5175 1.02247 14.3614 0.865569C14.2053 0.708669 13.9938 0.620255 13.773 0.61965H1.44919Z" fill="#BEF0ED"/>
<path d="M13.8027 10.5801C11.8331 10.5801 9.0945 10.197 7.38742 8.36865C5.10751 5.93464 2.33693 6.24663 0.422174 6.93715C0.384128 6.95094 0.343738 6.957 0.303344 6.955C0.262949 6.95299 0.223352 6.94295 0.186845 6.92545C0.150338 6.90795 0.117646 6.88335 0.0906607 6.85307C0.0636758 6.82279 0.0429344 6.78743 0.0296372 6.74903C0.000693711 6.67469 0.0016575 6.59194 0.0323246 6.5183C0.0629917 6.44466 0.120956 6.3859 0.193955 6.35445C1.92157 5.74652 5.19652 5.12483 7.83473 7.94195C9.73124 9.96762 13.0678 10.0525 14.889 9.92174C14.9294 9.91862 14.9699 9.92359 15.0084 9.93635C15.0468 9.94912 15.0823 9.96942 15.1129 9.9961C15.1435 10.0228 15.1685 10.0553 15.1865 10.0917C15.2044 10.1282 15.215 10.1679 15.2176 10.2085C15.2207 10.2491 15.2158 10.2899 15.2031 10.3285C15.1904 10.3671 15.1702 10.4029 15.1437 10.4336C15.1171 10.4643 15.0848 10.4894 15.0485 10.5075C15.0122 10.5256 14.9728 10.5362 14.9324 10.5388C14.5992 10.5641 14.218 10.5801 13.8027 10.5801Z" fill="#BEF0ED"/>
</g>
<defs>
<clipPath id="clip0_523_5431">
<rect width="15.2222" height="12.4545" fill="white"/>
</clipPath>
</defs>
</svg>
