<svg width="25" height="20" viewBox="0 0 25 20" fill="none" xmlns="http://www.w3.org/2000/svg">
<g clip-path="url(#clip0_150_3482)">
<path d="M15.1871 10.6466H15.1212C14.2214 10.6456 13.3588 10.2859 12.7226 9.64637C12.0864 9.00683 11.7285 8.13972 11.7275 7.23528C11.7285 6.33085 12.0864 5.46373 12.7226 4.8242C13.3588 4.18467 14.2214 3.82495 15.1212 3.82397H15.1871C16.0869 3.82495 16.9495 4.18467 17.5857 4.8242C18.222 5.46373 18.5798 6.33085 18.5808 7.23528C18.5798 8.13972 18.222 9.00683 17.5857 9.64637C16.9495 10.2859 16.0869 10.6456 15.1871 10.6466ZM15.1212 4.80758C14.4836 4.80758 13.8721 5.06219 13.4212 5.5154C12.9703 5.96861 12.717 6.5833 12.717 7.22423C12.717 7.54159 12.7792 7.85584 12.9 8.14904C13.0209 8.44225 13.198 8.70866 13.4212 8.93306C13.6444 9.15747 13.9095 9.33548 14.2012 9.45693C14.4928 9.57838 14.8055 9.64088 15.1212 9.64088H15.1871C15.5029 9.64088 15.8155 9.57838 16.1072 9.45693C16.3988 9.33548 16.6639 9.15747 16.8871 8.93306C17.1104 8.70866 17.2875 8.44225 17.4083 8.14904C17.5291 7.85584 17.5913 7.54159 17.5913 7.22423C17.5913 6.5833 17.338 5.96861 16.8871 5.5154C16.4363 5.06219 15.8248 4.80758 15.1871 4.80758H15.1212Z" fill="#373765"/>
<path d="M22.1173 20.0036H2.32717C1.71026 20.0026 1.1189 19.7558 0.682683 19.3173C0.246464 18.8788 0.000969218 18.2844 0 17.6643V2.33918C0.00578938 1.72226 0.25341 1.13253 0.689109 0.698014C1.12481 0.263494 1.71342 0.0192531 2.32717 0.0183105H22.1173C22.7342 0.0192848 23.3255 0.266058 23.7618 0.704548C24.198 1.14304 24.4435 1.73748 24.4444 2.3576V17.6827C24.4387 18.2996 24.191 18.8894 23.7553 19.3239C23.3196 19.7584 22.731 20.0026 22.1173 20.0036ZM2.32717 0.99455C1.9727 0.995522 1.63302 1.1375 1.38237 1.38946C1.13172 1.64141 0.990472 1.98286 0.989505 2.33918V17.6643C0.990472 18.0206 1.13172 18.3621 1.38237 18.614C1.63302 18.866 1.9727 19.0079 2.32717 19.0089H22.1173C22.4717 19.0079 22.8114 18.866 23.0621 18.614C23.3127 18.3621 23.454 18.0206 23.4549 17.6643V2.33918C23.454 1.98286 23.3127 1.64141 23.0621 1.38946C22.8114 1.1375 22.4717 0.995522 22.1173 0.99455H2.32717Z" fill="#373765"/>
<path d="M22.1647 16.9902C19.002 16.9902 14.6042 16.3749 11.8629 13.4389C8.2017 9.53022 3.75259 10.0312 0.677796 11.1401C0.6167 11.1622 0.551841 11.172 0.486974 11.1688C0.422107 11.1655 0.35852 11.1494 0.299896 11.1213C0.241271 11.0932 0.188772 11.0537 0.145439 11.0051C0.102105 10.9564 0.0687978 10.8997 0.0474446 10.838C0.00096608 10.7186 0.00251377 10.5857 0.0517602 10.4675C0.101007 10.3492 0.194089 10.2549 0.311313 10.2044C3.08559 9.22814 8.34463 8.22979 12.5812 12.7536C15.6267 16.0065 20.9846 16.1429 23.9092 15.9329C23.974 15.9279 24.0392 15.9358 24.1009 15.9563C24.1626 15.9768 24.2197 16.0094 24.2688 16.0523C24.3179 16.0951 24.358 16.1473 24.3869 16.2059C24.4157 16.2644 24.4327 16.3281 24.4369 16.3934C24.4419 16.4585 24.434 16.524 24.4136 16.5861C24.3932 16.6481 24.3607 16.7055 24.3181 16.7548C24.2755 16.8042 24.2236 16.8445 24.1653 16.8735C24.1071 16.9025 24.0437 16.9196 23.9788 16.9238C23.4437 16.9644 22.8317 16.9902 22.1647 16.9902Z" fill="#373765"/>
</g>
<defs>
<clipPath id="clip0_150_3482">
<rect width="24.4444" height="20" fill="white"/>
</clipPath>
</defs>
</svg>
