<svg width="25" height="20" viewBox="0 0 25 20" fill="none" xmlns="http://www.w3.org/2000/svg">
<g clip-path="url(#clip0_441_1298)">
<path d="M15.1871 10.6463H15.1212C14.2214 10.6454 13.3588 10.2857 12.7226 9.64612C12.0864 9.00659 11.7285 8.13947 11.7275 7.23504C11.7285 6.3306 12.0864 5.46349 12.7226 4.82396C13.3588 4.18442 14.2214 3.82471 15.1212 3.82373H15.1871C16.0869 3.82471 16.9495 4.18442 17.5857 4.82396C18.222 5.46349 18.5798 6.3306 18.5808 7.23504C18.5798 8.13947 18.222 9.00659 17.5857 9.64612C16.9495 10.2857 16.0869 10.6454 15.1871 10.6463ZM15.1212 4.80734C14.4836 4.80734 13.8721 5.06195 13.4212 5.51516C12.9703 5.96837 12.717 6.58305 12.717 7.22399C12.717 7.54135 12.7792 7.8556 12.9 8.1488C13.0209 8.442 13.198 8.70841 13.4212 8.93282C13.6444 9.15723 13.9095 9.33524 14.2012 9.45668C14.4928 9.57813 14.8055 9.64064 15.1212 9.64064H15.1871C15.5029 9.64064 15.8155 9.57813 16.1072 9.45668C16.3988 9.33524 16.6639 9.15723 16.8871 8.93282C17.1104 8.70841 17.2875 8.442 17.4083 8.1488C17.5291 7.8556 17.5913 7.54135 17.5913 7.22399C17.5913 6.58305 17.338 5.96837 16.8871 5.51516C16.4363 5.06195 15.8248 4.80734 15.1871 4.80734H15.1212Z" fill="white"/>
<path d="M22.1173 20.0038H2.32717C1.71026 20.0028 1.1189 19.7561 0.682683 19.3176C0.246464 18.8791 0.000969218 18.2846 0 17.6645V2.33943C0.00578938 1.72251 0.25341 1.13278 0.689109 0.698258C1.12481 0.263738 1.71342 0.0194973 2.32717 0.0185547H22.1173C22.7342 0.019529 23.3255 0.266302 23.7618 0.704793C24.198 1.14328 24.4435 1.73772 24.4444 2.35784V17.6829C24.4387 18.2999 24.191 18.8896 23.7553 19.3241C23.3196 19.7586 22.731 20.0029 22.1173 20.0038ZM2.32717 0.994794C1.9727 0.995766 1.63302 1.13774 1.38237 1.3897C1.13172 1.64166 0.990472 1.98311 0.989505 2.33943V17.6645C0.990472 18.0208 1.13172 18.3623 1.38237 18.6143C1.63302 18.8662 1.9727 19.0082 2.32717 19.0092H22.1173C22.4717 19.0082 22.8114 18.8662 23.0621 18.6143C23.3127 18.3623 23.454 18.0208 23.4549 17.6645V2.33943C23.454 1.98311 23.3127 1.64166 23.0621 1.3897C22.8114 1.13774 22.4717 0.995766 22.1173 0.994794H2.32717Z" fill="white"/>
<path d="M22.165 16.9904C19.0022 16.9904 14.6044 16.3752 11.8631 13.4391C8.20195 9.53046 3.75284 10.0315 0.67804 11.1403C0.616944 11.1625 0.552085 11.1722 0.487218 11.169C0.422351 11.1658 0.358764 11.1496 0.30014 11.1215C0.241515 11.0935 0.189016 11.0539 0.145683 11.0053C0.102349 10.9567 0.0690419 10.8999 0.0476888 10.8383C0.00121022 10.7189 0.00275791 10.586 0.0520043 10.4677C0.101251 10.3495 0.194333 10.2551 0.311557 10.2046C3.08584 9.22838 8.34487 8.23004 12.5814 12.7539C15.6269 16.0068 20.9849 16.1431 23.9094 15.9331C23.9742 15.9281 24.0394 15.9361 24.1011 15.9566C24.1629 15.9771 24.2199 16.0097 24.269 16.0525C24.3181 16.0954 24.3582 16.1476 24.3871 16.2061C24.416 16.2647 24.433 16.3284 24.4372 16.3936C24.4421 16.4588 24.4342 16.5243 24.4138 16.5863C24.3934 16.6484 24.361 16.7057 24.3184 16.7551C24.2758 16.8044 24.2238 16.8448 24.1656 16.8738C24.1073 16.9028 24.0439 16.9199 23.9791 16.9241C23.444 16.9646 22.832 16.9904 22.165 16.9904Z" fill="white"/>
</g>
<defs>
<clipPath id="clip0_441_1298">
<rect width="24.4444" height="20" fill="white"/>
</clipPath>
</defs>
</svg>
