<svg width="18" height="12" viewBox="0 0 18 12" fill="none" xmlns="http://www.w3.org/2000/svg">
<g clip-path="url(#clip0_143_2513)">
<path d="M9.10902 11.7H8.891C3.44012 11.7 0.802503 7.64299 0.127201 6.40005C0.0458288 6.24826 0.00323486 6.07858 0.00323486 5.90622C0.00323486 5.73386 0.0458288 5.56418 0.127201 5.41239C0.805532 4.14514 3.43709 0 8.90916 0H9.1272C14.5781 0 17.2187 4.14514 17.9092 5.41239C17.9905 5.56418 18.0331 5.73386 18.0331 5.90622C18.0331 6.07858 17.9905 6.24826 17.9092 6.40005C17.1975 7.64299 14.5629 11.7 9.10902 11.7ZM8.891 0.75974C3.85197 0.75974 1.41724 4.59491 0.790391 5.77098C0.768656 5.81163 0.757279 5.85705 0.757279 5.90318C0.757279 5.94931 0.768656 5.99472 0.790391 6.03537C1.41724 7.1841 3.85499 10.9403 8.891 10.9403H9.10902C14.145 10.9403 16.5828 7.1841 17.2096 6.03537C17.2314 5.99472 17.2427 5.94931 17.2427 5.90318C17.2427 5.85705 17.2314 5.81163 17.2096 5.77098C16.5828 4.59491 14.1481 0.75974 9.10902 0.75974H8.891Z" fill="white"/>
<path d="M9 9.49671C8.02386 9.4951 7.08816 9.10525 6.39793 8.41258C5.7077 7.71991 5.31923 6.78092 5.31763 5.80133C5.31843 4.82151 5.70665 3.88204 6.39706 3.1892C7.08746 2.49636 8.02362 2.10676 9 2.10596C9.97637 2.10676 10.9125 2.49636 11.6029 3.1892C12.2933 3.88204 12.6816 4.82151 12.6824 5.80133C12.6808 6.78092 12.2923 7.71991 11.6021 8.41258C10.9118 9.10525 9.97613 9.4951 9 9.49671ZM9 2.8657C8.2244 2.8665 7.48081 3.17605 6.93238 3.72641C6.38395 4.27678 6.07549 5.023 6.07469 5.80133C6.07549 6.57967 6.38395 7.32589 6.93238 7.87625C7.48081 8.42662 8.2244 8.73617 9 8.73697C9.77559 8.73617 10.5192 8.42662 11.0676 7.87625C11.616 7.32589 11.9245 6.57967 11.9253 5.80133C11.9257 5.41542 11.8503 5.03322 11.7035 4.67653C11.5568 4.31984 11.3414 3.99566 11.0698 3.72249C10.7981 3.44933 10.4755 3.23253 10.1204 3.08447C9.76526 2.93642 9.38455 2.86002 9 2.85962V2.8657Z" fill="white"/>
<path d="M9 6.39698C8.83937 6.39698 8.68532 6.33295 8.57174 6.21896C8.45816 6.10498 8.39435 5.95039 8.39435 5.78919C8.39435 5.62799 8.45816 5.4734 8.57174 5.35941C8.68532 5.24543 8.83937 5.1814 9 5.1814C9.16063 5.1814 9.31468 5.24543 9.42826 5.35941C9.54185 5.4734 9.60565 5.62799 9.60565 5.78919C9.60565 5.95039 9.54185 6.10498 9.42826 6.21896C9.31468 6.33295 9.16063 6.39698 9 6.39698ZM9 5.63724C8.95824 5.63724 8.91818 5.65389 8.88865 5.68353C8.85912 5.71316 8.84253 5.75336 8.84253 5.79527C8.84253 5.83718 8.85912 5.87737 8.88865 5.90701C8.91818 5.93664 8.95824 5.9533 9 5.9533C9.04177 5.9533 9.08182 5.93664 9.11135 5.90701C9.14088 5.87737 9.15747 5.83718 9.15747 5.79527C9.15747 5.75336 9.14088 5.71316 9.11135 5.68353C9.08182 5.65389 9.04177 5.63724 9 5.63724Z" fill="white"/>
</g>
<defs>
<clipPath id="clip0_143_2513">
<rect width="18" height="11.7" fill="white"/>
</clipPath>
</defs>
</svg>
