<svg width="18" height="13" viewBox="0 0 18 13" fill="none" xmlns="http://www.w3.org/2000/svg">
<path d="M9.10802 12.4311H8.88873C7.66172 12.4394 6.44416 12.2162 5.29985 11.7733C5.20491 11.7354 5.12869 11.6617 5.08766 11.5681C5.04662 11.4744 5.04408 11.3684 5.08057 11.2729C5.11846 11.178 5.19217 11.1018 5.28579 11.0607C5.37941 11.0197 5.48542 11.0172 5.58091 11.0537C6.63514 11.4648 7.75718 11.6743 8.88873 11.6714H9.10802C14.1362 11.6714 16.5668 7.93732 17.1938 6.79147C17.2152 6.75268 17.2264 6.70912 17.2264 6.66484C17.2264 6.62056 17.2152 6.577 17.1938 6.53821C16.42 5.11431 15.3165 3.89641 13.9756 2.98639C13.8903 2.92919 13.8311 2.84062 13.8108 2.73995C13.7906 2.63929 13.8109 2.53471 13.8675 2.44899C13.9241 2.36393 14.0121 2.30479 14.1123 2.28452C14.2124 2.26426 14.3165 2.28453 14.4018 2.34089C15.8441 3.31999 17.0312 4.62996 17.864 6.16141C17.9467 6.31298 17.9901 6.4829 17.9901 6.65558C17.9901 6.82825 17.9467 6.99817 17.864 7.14974C17.1938 8.39134 14.5593 12.4311 9.10802 12.4311Z" fill="white"/>
<g clip-path="url(#clip0_143_2334)">
<path d="M2.72713 12.9843C2.62498 12.9836 2.52726 12.9425 2.45535 12.87C2.41939 12.8341 2.39086 12.7915 2.3714 12.7446C2.35194 12.6977 2.34192 12.6474 2.34192 12.5966C2.34192 12.5459 2.35194 12.4956 2.3714 12.4487C2.39086 12.4018 2.41939 12.3592 2.45535 12.3233L14.6674 0.123576C14.7401 0.0526424 14.8376 0.0129395 14.9392 0.0129395C15.0408 0.0129395 15.1383 0.0526424 15.211 0.123576C15.247 0.159438 15.2755 0.20204 15.2949 0.248944C15.3144 0.295847 15.3244 0.346133 15.3244 0.396914C15.3244 0.447695 15.3144 0.497972 15.2949 0.544875C15.2755 0.591779 15.247 0.634381 15.211 0.670243L3.00201 12.8823C2.92667 12.95 2.82838 12.9864 2.72713 12.9843Z" fill="white"/>
<path d="M4.40121 11.3195C4.33754 11.3196 4.27488 11.3036 4.21898 11.2732C2.49531 10.3065 1.07502 8.87871 0.117405 7.14998C0.0352283 6.99823 -0.0078125 6.82838 -0.0078125 6.65581C-0.0078125 6.48324 0.0352283 6.31339 0.117405 6.16164C0.793795 4.89843 3.42523 0.769056 8.88268 0.769056H9.10196C10.5869 0.758144 12.0539 1.09447 13.3858 1.75121C13.4313 1.77385 13.4718 1.80526 13.5052 1.84362C13.5385 1.88197 13.5639 1.92654 13.58 1.97474C13.596 2.02295 13.6024 2.07385 13.5988 2.12453C13.5951 2.17522 13.5815 2.22468 13.5587 2.27009C13.5124 2.36138 13.4319 2.43072 13.3348 2.4631C13.2377 2.49547 13.1317 2.48827 13.0398 2.44305C11.8157 1.83905 10.467 1.53018 9.10196 1.54119H8.88268C3.85454 1.54119 1.42385 5.35863 0.796878 6.5261C0.775519 6.56488 0.764322 6.60845 0.764322 6.65273C0.764322 6.69701 0.775519 6.74056 0.796878 6.77935C1.68148 8.37796 2.99369 9.69873 4.58652 10.5937C4.63122 10.6179 4.67069 10.6508 4.70267 10.6903C4.73465 10.7299 4.75849 10.7753 4.77284 10.8241C4.78719 10.8729 4.79176 10.9241 4.78628 10.9746C4.78081 11.0252 4.76541 11.0742 4.74095 11.1187C4.70787 11.1799 4.65877 11.2309 4.59892 11.2662C4.53907 11.3016 4.47072 11.32 4.40121 11.3195V11.3195Z" fill="white"/>
<path d="M9.00004 10.2322C8.02618 10.2233 7.09496 9.83141 6.40776 9.14132C5.72055 8.45122 5.33259 7.51838 5.32776 6.5445C5.32858 5.56699 5.71746 4.62979 6.40895 3.93888C7.10045 3.24797 8.03797 2.85986 9.01547 2.85986C9.99245 2.86068 10.9292 3.24915 11.62 3.93998C12.3108 4.6308 12.6993 5.56752 12.7001 6.5445C12.7001 7.02982 12.6043 7.51035 12.4182 7.95857C12.2321 8.40679 11.9594 8.81388 11.6156 9.15647C11.2719 9.49907 10.8639 9.77046 10.4151 9.95506C9.96621 10.1397 9.48535 10.2338 9.00004 10.2322V10.2322ZM9.00004 3.632C8.22731 3.632 7.48618 3.93875 6.9395 4.48486C6.39281 5.03097 6.08527 5.77177 6.08445 6.5445C6.08445 7.31776 6.39162 8.05934 6.9384 8.60612C7.48518 9.1529 8.22678 9.46007 9.00004 9.46007C9.77276 9.45925 10.5136 9.15172 11.0597 8.60503C11.6058 8.05834 11.9125 7.31722 11.9125 6.5445C11.9117 5.77231 11.6046 5.03198 11.0586 4.48595C10.5125 3.93993 9.77223 3.63282 9.00004 3.632V3.632Z" fill="white"/>
</g>
<defs>
<clipPath id="clip0_143_2334">
<rect width="18" height="12.9842" fill="white"/>
</clipPath>
</defs>
</svg>
