<svg width="22" height="32" viewBox="0 0 22 32" fill="none" xmlns="http://www.w3.org/2000/svg">
<g clip-path="url(#clip0_285_400)">
<path d="M10.4668 11.4714C10.3303 11.4757 10.1956 11.4381 10.0803 11.3635C9.96498 11.2889 9.87423 11.1808 9.81978 11.053C9.76533 10.9253 9.74971 10.7838 9.77491 10.6469C9.8001 10.51 9.86497 10.384 9.96112 10.2851L14.4107 5.74602L9.96112 1.1864C9.84735 1.05316 9.78748 0.880756 9.79367 0.704166C9.79986 0.527575 9.87165 0.359991 9.99445 0.235371C10.1173 0.110752 10.2819 0.0384226 10.4551 0.0330385C10.6282 0.0276543 10.7969 0.0896192 10.9269 0.206377L15.3765 4.74025C15.6349 5.00456 15.7803 5.36243 15.7809 5.73573C15.7813 5.92116 15.7453 6.10478 15.675 6.27577C15.6046 6.44675 15.5014 6.60162 15.3714 6.73121L10.9269 11.2702C10.804 11.3943 10.6396 11.4662 10.4668 11.4714Z" fill="#171753"/>
<path d="M0.682608 17.1247C0.59278 17.1253 0.503717 17.1078 0.420596 17.0731C0.337475 17.0383 0.261977 16.9871 0.198457 16.9223C0.134937 16.8575 0.0846355 16.7804 0.0505698 16.6956C0.0165042 16.6108 -0.000653847 16.52 1.90515e-05 16.4283C0.0026967 13.4087 1.17978 10.5135 3.27292 8.37828C5.36606 6.24306 8.20419 5.04228 11.1643 5.03955H14.6583C14.8393 5.03955 15.0129 5.11293 15.1409 5.24352C15.2689 5.37411 15.3408 5.55122 15.3408 5.73589C15.3408 5.92057 15.2689 6.09768 15.1409 6.22827C15.0129 6.35885 14.8393 6.43221 14.6583 6.43221H11.1643C8.56626 6.43494 6.07537 7.48898 4.23826 9.36303C2.40115 11.2371 1.36787 13.778 1.3652 16.4283C1.36587 16.52 1.34871 16.6108 1.31465 16.6956C1.28058 16.7804 1.23028 16.8575 1.16676 16.9223C1.10324 16.9871 1.02774 17.0383 0.944621 17.0731C0.8615 17.1078 0.772437 17.1253 0.682608 17.1247Z" fill="#171753"/>
<path d="M11.4069 32.0001C11.3132 32.0027 11.2201 31.9857 11.1332 31.9502C11.0462 31.9147 10.9673 31.8615 10.9012 31.7938L6.49213 27.2187C6.36341 27.0883 6.26126 26.9332 6.19154 26.7623C6.12183 26.5915 6.08594 26.4083 6.08594 26.2232C6.08594 26.0381 6.12183 25.8549 6.19154 25.6841C6.26126 25.5132 6.36341 25.3581 6.49213 25.2277L10.9771 20.7248C11.1065 20.5955 11.2809 20.524 11.462 20.5259C11.6431 20.5279 11.8161 20.6031 11.9428 20.7351C12.0696 20.8671 12.1397 21.0451 12.1378 21.2298C12.1359 21.4146 12.0621 21.591 11.9327 21.7203L7.44778 26.218L11.8569 30.8138C11.9203 30.8785 11.9707 30.9552 12.005 31.0398C12.0393 31.1243 12.057 31.2149 12.057 31.3064C12.057 31.3978 12.0393 31.4885 12.005 31.573C11.9707 31.6575 11.9203 31.7343 11.8569 31.799C11.736 31.9198 11.5759 31.9914 11.4069 32.0001Z" fill="#171753"/>
<path d="M10.8359 26.9554H10.7449L7.25095 26.9245C7.06991 26.9245 6.89629 26.8511 6.76828 26.7205C6.64027 26.5899 6.56836 26.4128 6.56836 26.2281C6.56836 26.0435 6.64027 25.8664 6.76828 25.7358C6.89629 25.6052 7.06991 25.5318 7.25095 25.5318L10.7449 25.5628H10.8258C13.4147 25.5697 15.9012 24.5318 17.7427 22.6755C19.5842 20.8192 20.6312 18.2952 20.6552 15.6543C20.6552 15.4696 20.7271 15.2925 20.8551 15.1619C20.9832 15.0314 21.1568 14.958 21.3378 14.958C21.5189 14.958 21.6925 15.0314 21.8205 15.1619C21.9485 15.2925 22.0204 15.4696 22.0204 15.6543C21.9951 18.6583 20.8079 21.5305 18.717 23.6459C16.6262 25.7614 13.801 26.949 10.8561 26.9503L10.8359 26.9554Z" fill="#171753"/>
</g>
<defs>
<clipPath id="clip0_285_400">
<rect width="22" height="32" fill="white"/>
</clipPath>
</defs>
</svg>
