<svg width="52" height="52" viewBox="0 0 52 52" fill="none" xmlns="http://www.w3.org/2000/svg">
<g filter="url(#filter0_d_143_3815)">
<circle cx="26" cy="24" r="22" fill="#F5F5F5" fill-opacity="0.25"/>
</g>
<g clip-path="url(#clip0_143_3815)">
<path d="M28.8044 27.2323C28.7238 27.2357 28.6434 27.2227 28.5683 27.194C28.4932 27.1653 28.425 27.1216 28.3681 27.0658C28.2586 26.9571 28.1972 26.8106 28.1972 26.658C28.1972 26.5054 28.2586 26.3589 28.3681 26.2502L33.9392 20.8275C33.9656 20.8017 33.9865 20.7711 34.0008 20.7374C34.015 20.7037 34.0224 20.6676 34.0224 20.6311C34.0224 20.5946 34.015 20.5585 34.0008 20.5248C33.9865 20.4911 33.9656 20.4604 33.9392 20.4347L28.3856 14.9991C28.2751 14.8904 28.2132 14.7432 28.2136 14.5899C28.214 14.4365 28.2767 14.2896 28.3878 14.1815C28.4988 14.0733 28.6492 14.0128 28.8059 14.0132C28.9626 14.0136 29.1127 14.0749 29.2232 14.1836L34.7725 19.6191C35.0458 19.888 35.1992 20.2518 35.1992 20.6311C35.1992 21.0103 35.0458 21.3742 34.7725 21.643L29.2232 27.0786C29.1091 27.1809 28.959 27.236 28.8044 27.2323Z" fill="#BEF0ED"/>
<path d="M16.589 34C16.5115 34.0006 16.4346 33.9861 16.3629 33.9573C16.2912 33.9285 16.226 33.8861 16.1712 33.8325C16.1164 33.7788 16.073 33.715 16.0436 33.6448C16.0142 33.5747 15.9994 33.4994 16 33.4236C16.0035 29.8744 17.4455 26.4716 20.0097 23.962C22.5739 21.4524 26.0506 20.041 29.6769 20.0376H34.0395C34.1957 20.0376 34.3455 20.0983 34.456 20.2064C34.5664 20.3145 34.6285 20.4611 34.6285 20.614C34.6285 20.7669 34.5664 20.9135 34.456 21.0216C34.3455 21.1297 34.1957 21.1905 34.0395 21.1905H29.6769C26.363 21.1938 23.1859 22.4838 20.8426 24.7772C18.4993 27.0706 17.1814 30.1802 17.1779 33.4236C17.1785 33.4994 17.1637 33.5747 17.1343 33.6448C17.1049 33.715 17.0615 33.7788 17.0067 33.8325C16.9519 33.8861 16.8867 33.9285 16.815 33.9573C16.7433 33.9861 16.6665 34.0006 16.589 34Z" fill="#BEF0ED"/>
</g>
<defs>
<filter id="filter0_d_143_3815" x="0" y="0" width="52" height="52" filterUnits="userSpaceOnUse" color-interpolation-filters="sRGB">
<feFlood flood-opacity="0" result="BackgroundImageFix"/>
<feColorMatrix in="SourceAlpha" type="matrix" values="0 0 0 0 0 0 0 0 0 0 0 0 0 0 0 0 0 0 127 0" result="hardAlpha"/>
<feOffset dy="2"/>
<feGaussianBlur stdDeviation="2"/>
<feColorMatrix type="matrix" values="0 0 0 0 0 0 0 0 0 0 0 0 0 0 0 0 0 0 0.16 0"/>
<feBlend mode="normal" in2="BackgroundImageFix" result="effect1_dropShadow_143_3815"/>
<feBlend mode="normal" in="SourceGraphic" in2="effect1_dropShadow_143_3815" result="shape"/>
</filter>
<clipPath id="clip0_143_3815">
<rect width="19.2" height="20" fill="white" transform="translate(16 14)"/>
</clipPath>
</defs>
</svg>
