<svg width="46" height="46" viewBox="0 0 46 46" fill="none" xmlns="http://www.w3.org/2000/svg">
<g clip-path="url(#clip0_143_2251)">
<path d="M23.0093 46H22.8137C16.7137 45.9753 10.8734 43.5284 6.57748 39.1976C2.28161 34.8668 -0.117861 29.0068 -0.0931645 22.9068C-0.0684682 16.8069 2.37843 10.9665 6.70923 6.67065C11.04 2.37478 16.9 -0.0247515 23 -5.53817e-05H23.1862C29.2862 0.0234063 35.127 2.46911 39.4238 6.79904C43.7205 11.129 46.1212 16.9884 46.0977 23.0884C46.0742 29.1884 43.6285 35.0292 39.2986 39.326C34.9687 43.6227 29.1093 46.0234 23.0093 46ZM23.0093 2.32788C17.5267 2.30565 12.2598 4.46229 8.36731 8.32334C4.47483 12.1844 2.27564 17.4336 2.25341 22.9162C2.23119 28.3987 4.38782 33.6656 8.24887 37.5581C12.1099 41.4506 17.3591 43.6498 22.8417 43.672H23.0185C28.5011 43.693 33.7676 41.5352 37.6592 37.6733C41.5508 33.8114 43.7488 28.5617 43.7698 23.0791C43.7908 17.5965 41.6329 12.3302 37.771 8.43857C33.9091 4.54696 28.6594 2.34887 23.1769 2.32788H23.0093Z" fill="#FF4141"/>
<path d="M23.1583 29.7883C22.7878 29.7883 22.4325 29.6411 22.1706 29.3792C21.9087 29.1172 21.7615 28.7619 21.7615 28.3915V12.8875C21.7615 12.517 21.9087 12.1618 22.1706 11.8998C22.4325 11.6379 22.7878 11.4907 23.1583 11.4907C23.5287 11.4907 23.884 11.6379 24.1459 11.8998C24.4079 12.1618 24.555 12.517 24.555 12.8875V28.3915C24.555 28.7619 24.4079 29.1172 24.1459 29.3792C23.884 29.6411 23.5287 29.7883 23.1583 29.7883Z" fill="#FF4141"/>
<path d="M23.1583 34.6209C23.7086 34.6209 24.1547 34.2457 24.1547 33.7829C24.1547 33.32 23.7086 32.9448 23.1583 32.9448C22.608 32.9448 22.1619 33.32 22.1619 33.7829C22.1619 34.2457 22.608 34.6209 23.1583 34.6209Z" fill="#FF4141"/>
<path d="M23.1582 35.785C22.7677 35.756 22.3942 35.6136 22.0834 35.3753C21.7726 35.137 21.5381 34.8131 21.4088 34.4435C21.2794 34.0739 21.2609 33.6745 21.3552 33.2944C21.4496 32.9143 21.6528 32.5701 21.9401 32.3039C22.2273 32.0377 22.586 31.8612 22.9722 31.7959C23.3583 31.7307 23.7551 31.7796 24.1139 31.9367C24.4726 32.0937 24.7777 32.3521 24.9917 32.68C25.2057 33.008 25.3194 33.3914 25.3186 33.783C25.2968 34.3346 25.0571 34.8551 24.6522 35.2304C24.2472 35.6057 23.71 35.8051 23.1582 35.785ZM23.1582 33.457C23.1063 33.4934 23.0646 33.5424 23.0369 33.5995C23.0091 33.6565 22.9965 33.7197 23 33.783C23.0209 33.8114 23.0488 33.834 23.081 33.8485C23.1131 33.863 23.1484 33.869 23.1836 33.8658C23.2188 33.8626 23.2525 33.8504 23.2816 33.8303C23.3106 33.8102 23.334 33.7831 23.3494 33.7513C23.3649 33.7196 23.3719 33.6843 23.3697 33.6491C23.3675 33.6138 23.3562 33.5798 23.3369 33.5502C23.3177 33.5206 23.2912 33.4965 23.2599 33.4802C23.2286 33.4638 23.1935 33.4558 23.1582 33.457Z" fill="#FF4141"/>
</g>
<defs>
<clipPath id="clip0_143_2251">
<rect width="46" height="46" fill="white"/>
</clipPath>
</defs>
</svg>
