<svg width="20" height="20" viewBox="0 0 20 20" fill="none" xmlns="http://www.w3.org/2000/svg">
<g clip-path="url(#clip0_407_5357)">
<path d="M17.6833 20.0001H2.32029C1.92537 20.0002 1.53702 19.8994 1.19208 19.7074C0.847145 19.5154 0.557061 19.2386 0.349435 18.9032C0.14181 18.5678 0.0235072 18.1851 0.0057591 17.7912C-0.011989 17.3973 0.0714064 17.0055 0.248029 16.6528L7.90947 1.28222C8.10147 0.897002 8.39734 0.572894 8.76373 0.346337C9.13013 0.11978 9.55257 -0.000244141 9.98355 -0.000244141C10.4145 -0.000244141 10.837 0.11978 11.2034 0.346337C11.5698 0.572894 11.8656 0.897002 12.0576 1.28222L19.7373 16.6528C19.9139 17.0055 19.9973 17.3973 19.9796 17.7912C19.9618 18.1851 19.8435 18.5678 19.6359 18.9032C19.4282 19.2386 19.1382 19.5154 18.7933 19.7074C18.4483 19.8994 18.06 20.0002 17.6651 20.0001H17.6833ZM9.99998 0.983543C9.75312 0.980716 9.51046 1.0476 9.30002 1.17649C9.08959 1.30537 8.91996 1.49102 8.81063 1.71201L1.12728 17.0863C1.02696 17.2892 0.980044 17.5142 0.990917 17.7403C1.00179 17.9663 1.07011 18.1858 1.18945 18.3782C1.30879 18.5706 1.47522 18.7295 1.67306 18.8399C1.8709 18.9503 2.09363 19.0087 2.32029 19.0094H17.6833C17.9099 19.0087 18.1327 18.9503 18.3305 18.8399C18.5284 18.7295 18.6948 18.5706 18.8142 18.3782C18.9335 18.1858 19.0018 17.9663 19.0127 17.7403C19.0236 17.5142 18.9766 17.2892 18.8763 17.0863L11.1929 1.71201C11.0833 1.49046 10.9131 1.30444 10.702 1.17551C10.4908 1.04658 10.2475 0.980025 9.99998 0.983543Z" fill="#373765"/>
<path d="M10.1131 13.9938C9.98246 13.9938 9.85719 13.942 9.76482 13.8498C9.67246 13.7576 9.62057 13.6325 9.62057 13.5021V5.12476C9.62057 4.99435 9.67246 4.86928 9.76482 4.77707C9.85719 4.68485 9.98246 4.63306 10.1131 4.63306C10.2437 4.63306 10.369 4.68485 10.4614 4.77707C10.5537 4.86928 10.6056 4.99435 10.6056 5.12476V13.5021C10.6061 13.5668 10.5937 13.631 10.5691 13.6908C10.5445 13.7507 10.5083 13.8051 10.4624 13.8509C10.4166 13.8966 10.3621 13.9328 10.3021 13.9574C10.2422 13.9819 10.1779 13.9943 10.1131 13.9938Z" fill="#373765"/>
<path d="M10.1131 16.507C10.4113 16.507 10.653 16.3032 10.653 16.0517C10.653 15.8003 10.4113 15.5964 10.1131 15.5964C9.81489 15.5964 9.57315 15.8003 9.57315 16.0517C9.57315 16.3032 9.81489 16.507 10.1131 16.507Z" fill="#373765"/>
<path d="M10.1131 16.9987C9.92903 16.9824 9.75372 16.9131 9.60848 16.7991C9.46324 16.6851 9.35435 16.5314 9.29509 16.3567C9.23583 16.182 9.22877 15.9938 9.27474 15.8152C9.32071 15.6365 9.41775 15.4751 9.55402 15.3505C9.69028 15.226 9.85987 15.1437 10.0422 15.1137C10.2245 15.0837 10.4115 15.1073 10.5806 15.1817C10.7497 15.256 10.8935 15.3778 10.9945 15.5323C11.0954 15.6868 11.1492 15.8672 11.1492 16.0517C11.1369 16.3142 11.021 16.5611 10.8268 16.7386C10.6327 16.916 10.3761 17.0095 10.1131 16.9987Z" fill="#373765"/>
</g>
<defs>
<clipPath id="clip0_407_5357">
<rect width="20" height="20" fill="white"/>
</clipPath>
</defs>
</svg>
