<svg width="94" height="74" viewBox="0 0 94 74" fill="none" xmlns="http://www.w3.org/2000/svg">
<path d="M3.0632 4.7223C4.39293 4.7223 5.47089 3.66343 5.47089 2.35724C5.47089 1.05106 4.39293 -0.0078125 3.0632 -0.0078125C1.73347 -0.0078125 0.655518 1.05106 0.655518 2.35724C0.655518 3.66343 1.73347 4.7223 3.0632 4.7223Z" fill="#5ED9D1"/>
<path d="M27.5109 2.35724C27.5109 3.63073 26.3997 4.7223 25.1032 4.7223C23.8068 4.7223 22.6956 3.63073 22.6956 2.35724C22.6956 1.08375 23.8068 -0.0078125 25.1032 -0.0078125C26.3997 -0.0078125 27.5109 1.08375 27.5109 2.35724Z" fill="#5ED9D1"/>
<path d="M49.5511 2.35724C49.5511 3.63073 48.4398 4.7223 47.1434 4.7223C45.847 4.7223 44.7357 3.63073 44.7357 2.35724C44.7357 1.08375 45.847 -0.0078125 47.1434 -0.0078125C48.4398 -0.0078125 49.5511 1.08375 49.5511 2.35724Z" fill="#5ED9D1"/>
<path d="M69.3681 4.7223C70.6979 4.7223 71.7758 3.66343 71.7758 2.35724C71.7758 1.05106 70.6979 -0.0078125 69.3681 -0.0078125C68.0384 -0.0078125 66.9604 1.05106 66.9604 2.35724C66.9604 3.66343 68.0384 4.7223 69.3681 4.7223Z" fill="#5ED9D1"/>
<path d="M93.8131 2.35724C93.8131 3.63073 92.7019 4.7223 91.4054 4.7223C90.109 4.7223 88.9977 3.63073 88.9977 2.35724C88.9977 1.08375 90.109 -0.0078125 91.4054 -0.0078125C92.7019 -0.0078125 93.8131 1.08375 93.8131 2.35724Z" fill="#5ED9D1"/>
<path d="M3.0632 27.4635C4.39293 27.4635 5.47089 26.4046 5.47089 25.0985C5.47089 23.7923 4.39293 22.7334 3.0632 22.7334C1.73347 22.7334 0.655518 23.7923 0.655518 25.0985C0.655518 26.4046 1.73347 27.4635 3.0632 27.4635Z" fill="#5ED9D1"/>
<path d="M27.5109 25.0985C27.5109 26.3719 26.3997 27.4635 25.1032 27.4635C23.8068 27.4635 22.6956 26.3719 22.6956 25.0985C22.6956 23.825 23.8068 22.7334 25.1032 22.7334C26.3997 22.9153 27.5109 23.825 27.5109 25.0985Z" fill="#5ED9D1"/>
<path d="M49.5511 25.0985C49.5511 26.3719 48.4398 27.4635 47.1434 27.4635C45.847 27.4635 44.7357 26.3719 44.7357 25.0985C44.7357 23.825 45.847 22.7334 47.1434 22.7334C48.4398 22.9153 49.5511 23.825 49.5511 25.0985Z" fill="#5ED9D1"/>
<path d="M69.3681 27.4635C70.6979 27.4635 71.7758 26.4046 71.7758 25.0985C71.7758 23.7923 70.6979 22.7334 69.3681 22.7334C68.0384 22.7334 66.9604 23.7923 66.9604 25.0985C66.9604 26.4046 68.0384 27.4635 69.3681 27.4635Z" fill="#5ED9D1"/>
<path d="M93.8131 25.0984C93.8131 26.3719 92.7018 27.4635 91.4054 27.4635C90.109 27.4635 88.9977 26.3719 88.9977 25.0984C88.9977 23.825 90.109 22.7334 91.4054 22.7334C92.7018 22.9153 93.8131 23.825 93.8131 25.0984Z" fill="#5ED9D1"/>
<path d="M5.28615 48.0208C5.28615 49.2943 4.17491 50.3859 2.87846 50.3859C1.58201 50.3859 0.470764 49.2943 0.470764 48.0208C0.470764 46.7473 1.58201 45.6558 2.87846 45.6558C4.36011 45.6558 5.28615 46.7473 5.28615 48.0208Z" fill="#5ED9D1"/>
<path d="M27.5107 48.0208C27.5107 49.2943 26.3994 50.3859 25.103 50.3859C23.8066 50.3859 22.6953 49.2943 22.6953 48.0208C22.6953 46.7473 23.8066 45.6558 25.103 45.6558C26.3994 45.6558 27.5107 46.7473 27.5107 48.0208Z" fill="#5ED9D1"/>
<path d="M49.551 48.0208C49.551 49.2943 48.4398 50.3859 47.1433 50.3859C45.8469 50.3859 44.7357 49.2943 44.7357 48.0208C44.7357 46.7473 45.8469 45.6558 47.1433 45.6558C48.4398 45.6558 49.551 46.7473 49.551 48.0208Z" fill="#5ED9D1"/>
<path d="M71.5912 48.0208C71.5912 49.2943 70.4799 50.3859 69.1835 50.3859C67.887 50.3859 66.7758 49.2943 66.7758 48.0208C66.7758 46.7473 67.887 45.6558 69.1835 45.6558C70.4799 45.6558 71.5912 46.7473 71.5912 48.0208Z" fill="#5ED9D1"/>
<path d="M93.8159 48.0208C93.8159 49.2943 92.7047 50.3859 91.4082 50.3859C90.1118 50.3859 89.0005 49.2943 89.0005 48.0208C89.0005 46.7473 90.1118 45.6558 91.4082 45.6558C92.7047 45.6558 93.8159 46.7473 93.8159 48.0208Z" fill="#5ED9D1"/>
<path d="M3.06321 73.3092C4.39294 73.3092 5.4709 72.2503 5.4709 70.9442C5.4709 69.638 4.39294 68.5791 3.06321 68.5791C1.73348 68.5791 0.655518 69.638 0.655518 70.9442C0.655518 72.2503 1.73348 73.3092 3.06321 73.3092Z" fill="#5ED9D1"/>
<path d="M27.5109 70.9442C27.5109 72.2176 26.3997 73.3092 25.1032 73.3092C23.8068 73.3092 22.6956 72.2176 22.6956 70.9442C22.6956 69.6707 23.8068 68.5791 25.1032 68.5791C26.3997 68.5791 27.5109 69.6707 27.5109 70.9442Z" fill="#5ED9D1"/>
<path d="M49.5511 70.9442C49.5511 72.2176 48.4398 73.3092 47.1434 73.3092C45.847 73.3092 44.7357 72.2176 44.7357 70.9442C44.7357 69.6707 45.847 68.5791 47.1434 68.5791C48.4398 68.5791 49.5511 69.6707 49.5511 70.9442Z" fill="#5ED9D1"/>
<path d="M69.3682 73.3092C70.6979 73.3092 71.7759 72.2503 71.7759 70.9442C71.7759 69.638 70.6979 68.5791 69.3682 68.5791C68.0384 68.5791 66.9604 69.638 66.9604 70.9442C66.9604 72.2503 68.0384 73.3092 69.3682 73.3092Z" fill="#5ED9D1"/>
<path d="M93.8133 70.9442C93.8133 72.2176 92.702 73.3092 91.4056 73.3092C90.1092 73.3092 88.9979 72.2176 88.9979 70.9442C88.9979 69.6707 90.1092 68.5791 91.4056 68.5791C92.702 68.5791 93.8133 69.6707 93.8133 70.9442Z" fill="#5ED9D1"/>
</svg>
