<svg width="375" height="168" viewBox="0 0 375 168" fill="none" xmlns="http://www.w3.org/2000/svg">
<path d="M289.503 37.3194C271.722 40.5414 254.131 47.473 241.602 60.9727C235.859 67.0429 231.616 74.3739 229.214 82.3788C227.252 89.6768 226.738 97.2889 227.703 104.785C229.437 120.308 235.515 135.022 240.19 149.803C242.758 157.924 245.071 166.326 245.971 174.877H241.842C241.726 173.894 241.594 172.902 241.437 171.928C238.959 156.098 232.584 141.219 228.066 125.935C223.747 111.32 220.873 95.5479 225.382 80.619C230.337 64.1534 243.246 51.0834 258.243 43.2513C275.587 34.1634 295.408 31.3048 314.733 30.7017C336.024 30.0325 357.249 32.3541 378.474 33.676C387.509 34.246 396.742 34.6013 406 34.5021V38.7239C367.217 39.2857 328.153 30.33 289.503 37.3194Z" fill="#5ED9D1"/>
<path d="M472.245 5.89409L460.766 4.73744C416.598 0.226547 370.936 -4.43306 332.26 15.7834C309.185 27.8455 291.305 47.7232 274.02 66.9482C259.732 82.8437 244.949 99.2845 227.185 111.438C191.672 135.743 146.101 141.304 110.365 143.435C101.281 143.98 92.0556 144.36 83.1114 144.732C51.8274 146.038 19.478 147.359 -11.0957 155.712C-12.4832 156.084 -13.8459 156.48 -15.2251 156.877H-18C-15.8362 156.199 -13.6064 155.539 -11.3104 154.911C19.3459 146.542 51.7448 145.211 83.0784 143.906C92.0143 143.534 101.248 143.154 110.332 142.617C145.96 140.486 191.383 134.95 226.78 110.752C244.454 98.6566 259.204 82.2571 273.466 66.3946C290.81 47.12 308.723 27.1845 331.938 15.0481C370.771 -5.28401 416.565 -0.60788 460.848 3.93607C464.702 4.33263 468.529 4.71817 472.328 5.0927C489.795 6.80287 508.997 7.92648 528 6.54677V7.37294C508.955 8.72786 489.737 7.60426 472.245 5.89409Z" fill="white"/>
</svg>
