<svg width="29" height="24" viewBox="0 0 29 24" fill="none" xmlns="http://www.w3.org/2000/svg">
<g clip-path="url(#clip0_149_2959)">
<path d="M0.500001 14.5202C0.50415 12.0077 1.50567 9.59936 3.28498 7.82324C5.06428 6.04712 7.47616 5.04817 9.99178 5.04541C12.5065 5.04955 14.9171 6.04911 16.6952 7.82508C18.4734 9.60105 19.4742 12.0086 19.4784 14.5202C19.4756 17.0327 18.4754 19.4416 16.6971 21.2187C14.9187 22.9958 12.5074 23.9961 9.99178 24.0002C7.47525 23.9974 5.06258 22.9978 3.28313 21.2205C1.50367 19.4433 0.502767 17.0336 0.500001 14.5202ZM18.1724 14.5202C18.171 12.3537 17.3087 10.2763 15.7748 8.74435C14.241 7.21239 12.161 6.35114 9.99178 6.34976C7.8221 6.35114 5.74159 7.21222 4.2069 8.74403C2.67221 10.2758 1.80874 12.3532 1.80597 14.5202C1.80874 16.6877 2.67204 18.7656 4.20658 20.2982C5.74112 21.8308 7.82162 22.6931 9.99178 22.6958C12.1615 22.6931 14.2414 21.8307 15.7751 20.2979C17.3088 18.7651 18.171 16.6872 18.1724 14.5202Z" fill="#171753"/>
<path d="M12.8806 5.93716C12.8795 5.81118 12.9159 5.6877 12.9851 5.58237L13.7477 4.40846C13.9949 4.03052 14.3805 3.76427 14.8218 3.66676C15.2631 3.56924 15.7252 3.6482 16.1089 3.88672C16.7149 4.26237 17.2477 4.61194 17.6761 4.9302C17.8792 5.07648 18.048 5.26522 18.1707 5.48327C18.2934 5.70131 18.3671 5.94344 18.3865 6.19281C18.4031 6.444 18.365 6.69581 18.2748 6.93088C18.1846 7.16596 18.0445 7.37872 17.8642 7.55455L16.6679 8.75455C16.545 8.87437 16.38 8.94145 16.2082 8.94145C16.0364 8.94145 15.8714 8.87437 15.7485 8.75455C15.6877 8.69397 15.6394 8.622 15.6065 8.54277C15.5736 8.46353 15.5566 8.3786 15.5566 8.29281C15.5566 8.20703 15.5736 8.12208 15.6065 8.04285C15.6394 7.96362 15.6877 7.89165 15.7485 7.83107L16.9448 6.63629C16.9883 6.59172 17.022 6.53849 17.0436 6.48006C17.0652 6.42163 17.0742 6.35931 17.0701 6.29716C17.0658 6.23506 17.0476 6.1747 17.0168 6.12054C16.9861 6.06637 16.9436 6.01976 16.8925 5.98412C16.4746 5.68151 15.9731 5.34759 15.3933 4.99803C15.2985 4.94062 15.1851 4.92213 15.077 4.94646C14.9689 4.97078 14.8744 5.03602 14.8134 5.12846L14.0507 6.30238C14.0041 6.37437 13.9438 6.43647 13.8731 6.48515C13.8024 6.53382 13.7229 6.56811 13.6389 6.58604C13.555 6.60397 13.4684 6.60519 13.3839 6.58964C13.2995 6.5741 13.219 6.54207 13.147 6.49542C13.0598 6.43165 12.9898 6.34727 12.9433 6.24983C12.8968 6.1524 12.8753 6.04497 12.8806 5.93716Z" fill="#171753"/>
<path d="M16.041 4.91481C16.0394 4.82455 16.0591 4.73517 16.0985 4.65394C16.1298 4.58089 16.8925 2.89046 18.397 2.56698C18.876 2.48316 19.3683 2.51676 19.8314 2.66489C20.2946 2.81303 20.7148 3.07127 21.0559 3.41742C22.5865 4.72177 23.4537 4.53915 23.7254 4.22089C23.8383 4.09339 23.9954 4.01336 24.165 3.9969C24.3346 3.98044 24.5042 4.02879 24.6396 4.1322C24.7716 4.23622 24.858 4.38749 24.8805 4.55399C24.9029 4.7205 24.8596 4.88919 24.7597 5.02438C24.4119 5.43433 23.9164 5.69109 23.3806 5.73916C22.4298 5.8435 21.3589 5.39481 20.2045 4.4035C20.0125 4.19755 19.7753 4.03897 19.5115 3.94028C19.2477 3.84159 18.9645 3.80548 18.6843 3.83481C17.9686 4.00177 17.4254 4.87829 17.2895 5.19655C17.255 5.27507 17.2053 5.346 17.1432 5.40529C17.0811 5.46458 17.008 5.51106 16.9279 5.54208C16.8479 5.57309 16.7625 5.58803 16.6766 5.58604C16.5908 5.58405 16.5061 5.56516 16.4276 5.53046C16.3101 5.47661 16.2109 5.38966 16.1423 5.28028C16.0736 5.17091 16.0384 5.04388 16.041 4.91481Z" fill="#171753"/>
<path d="M25.0104 3.31823C25.0111 3.1583 25.0706 3.00418 25.1776 2.88519L26.2746 1.6591C26.3318 1.59482 26.4011 1.54246 26.4785 1.50503C26.556 1.46759 26.6402 1.44583 26.7261 1.44098C26.812 1.43613 26.898 1.4483 26.9792 1.47678C27.0605 1.50526 27.1352 1.54949 27.1992 1.60693C27.3277 1.72204 27.4052 1.88324 27.415 2.0553C27.4248 2.22736 27.366 2.39629 27.2515 2.52519L26.1492 3.75128C26.0926 3.81539 26.0237 3.86764 25.9467 3.90501C25.8696 3.94237 25.7859 3.96411 25.7004 3.96896C25.6149 3.97381 25.5293 3.96169 25.4486 3.93328C25.3678 3.90487 25.2935 3.86073 25.2299 3.80345C25.1607 3.74296 25.1052 3.66834 25.0674 3.58463C25.0295 3.50093 25.0101 3.41008 25.0104 3.31823Z" fill="#171753"/>
<path d="M25.3866 5.33723C25.3866 5.16426 25.4554 4.99838 25.5778 4.87608C25.7003 4.75377 25.8664 4.68506 26.0396 4.68506L27.847 4.68506C28.0202 4.68506 28.1863 4.75377 28.3087 4.87608C28.4312 4.99838 28.5 5.16427 28.5 5.33723C28.5 5.5102 28.4312 5.67608 28.3087 5.79839C28.1863 5.92069 28.0202 5.98941 27.847 5.98941L26.0396 5.98941C25.8664 5.98941 25.7003 5.92069 25.5778 5.79839C25.4554 5.67608 25.3866 5.5102 25.3866 5.33723Z" fill="#171753"/>
<path d="M23.2239 2.47805L23.2239 0.678053C23.2239 0.505086 23.2927 0.339204 23.4151 0.216898C23.5376 0.0945913 23.7037 0.0258789 23.8769 0.0258789C24.05 0.0258789 24.2162 0.0945914 24.3386 0.216898C24.4611 0.339204 24.5298 0.505086 24.5298 0.678053L24.5298 2.47805C24.5231 2.64646 24.4513 2.80571 24.3296 2.92243C24.2079 3.03915 24.0456 3.10427 23.8769 3.10414C23.7081 3.10427 23.5459 3.03915 23.4241 2.92243C23.3024 2.80571 23.2306 2.64646 23.2239 2.47805Z" fill="#171753"/>
</g>
<defs>
<clipPath id="clip0_149_2959">
<rect width="24" height="28" fill="white" transform="translate(28.5) rotate(90)"/>
</clipPath>
</defs>
</svg>
