<svg width="331" height="335" viewBox="0 0 331 335" fill="none" xmlns="http://www.w3.org/2000/svg">
<g opacity="0.9">
<g style="mix-blend-mode:multiply" opacity="0.1">
<g style="mix-blend-mode:multiply" opacity="0.1">
<path d="M78.8476 236.719C78.7706 236.576 78.7054 236.426 78.6527 236.271C78.2391 234.995 78.014 233.664 77.9844 232.323C77.9902 229.172 78.7217 226.066 80.1223 223.244C81.1978 221 82.4974 218.871 84.0014 216.889C94.2924 203.173 115.064 191.637 134.943 187.592C139.592 186.613 144.326 186.097 149.077 186.053C149.355 186.042 149.626 186.04 149.922 186.043C152.251 186.058 154.575 186.23 156.88 186.558L156.732 187.221L156.28 188.923C156.219 189.067 156.182 189.221 156.171 189.377C155.547 191.559 156.066 194.064 157.755 196.777C158.129 197.362 158.564 197.964 159.045 198.586C159.083 198.608 159.117 198.635 159.149 198.665C159.611 199.213 160.082 199.769 160.625 200.348C161.466 201.201 162.329 202.026 163.317 202.902C165.875 205.054 168.607 206.99 171.484 208.691C175.143 210.894 178.944 212.855 182.86 214.561C185.358 215.651 187.978 216.7 190.645 217.666C201.678 221.699 213.183 224.299 224.878 225.402C227.273 225.592 229.624 225.703 231.895 225.723C232.491 225.745 233.065 225.737 233.623 225.731C237.152 225.72 240.671 225.366 244.131 224.674C248.426 223.748 251.566 222.281 253.496 220.366C254.101 219.755 254.608 219.054 254.997 218.287V218.287L255.631 216.113L255.573 216.501L255.503 216.807L255.592 216.516L256.622 212.612L256.81 211.859L256.853 211.803C257.457 209.276 258.137 205.851 258.706 203.253C258.613 203.654 258.448 204.034 258.22 204.376C257.801 205.017 257.254 205.565 256.614 205.986C254.654 207.355 251.374 208.4 246.854 208.975C243.144 209.439 239.407 209.644 235.669 209.588C235.425 209.595 235.166 209.562 234.922 209.569C232.178 209.471 229.357 209.309 226.461 209.084C216.485 208.262 206.586 206.679 196.85 204.349C193.896 203.582 190.932 202.807 188.064 201.986C183.493 200.67 178.996 199.109 174.593 197.308C171.498 196.053 168.494 194.583 165.604 192.907C164.568 192.308 163.568 191.662 162.708 191.049C161.628 190.288 160.616 189.434 159.686 188.496C157.912 186.675 157.205 184.983 157.525 183.51C157.527 183.433 157.54 183.357 157.563 183.284C154.601 182.804 151.605 182.56 148.604 182.553V182.553C148.196 182.539 147.783 182.552 147.393 182.553C124.059 182.757 94.4088 193.787 80.5214 207.575C79.206 208.847 78.0021 210.231 76.923 211.709C75.3418 213.735 74.2234 216.082 73.6463 218.586C73.3854 219.873 73.386 221.2 73.6481 222.487C73.6974 222.751 73.7629 223.01 73.8445 223.265L73.8672 223.372L74.2359 224.492L74.2491 224.591C74.2879 224.756 74.3787 224.93 74.4152 225.077C74.4517 225.225 74.4152 225.077 74.4152 225.077C74.7097 226.02 75.0601 227.065 75.4156 228.085C75.8613 229.337 76.3374 230.628 76.8519 231.889L77.2284 232.939C77.312 233.123 77.3601 233.294 77.4321 233.454C77.5043 233.629 77.5676 233.807 77.6215 233.988L78.2478 235.453C78.4145 235.88 78.5956 236.287 78.7861 236.702C78.9766 237.117 79.1266 237.546 79.3172 237.961C79.3587 238.082 79.4407 238.19 79.4822 238.311C79.4632 238.218 79.4314 238.129 79.3876 238.044L79.1998 237.587L79.6152 238.547L79.1118 237.37L78.8476 236.719Z" fill="white"/>
</g>
<g style="mix-blend-mode:multiply" opacity="0.1">
<path d="M68.8526 202.691C68.857 201.606 69.1883 200.547 69.8034 199.653C70.901 198.085 72.2638 196.721 73.8304 195.622C74.7701 194.922 75.8572 194.185 77.0724 193.456C83.7359 189.457 93.4788 185.827 104.303 183.01C110.777 181.329 117.336 179.995 123.951 179.012C131.679 177.806 139.489 177.205 147.311 177.214C150.669 177.222 154.023 177.444 157.353 177.878C157.678 177.902 158.017 177.967 158.344 178.008C158.405 177.323 158.481 176.619 158.57 176.015L158.579 175.887C158.618 175.484 158.634 175.033 158.698 174.559C158.698 174.486 158.709 174.413 158.729 174.343C158.688 174.67 158.931 175.036 159.412 175.404C160.029 175.834 160.695 176.189 161.397 176.46C162.229 176.798 163.286 177.174 164.529 177.543C165.426 177.796 166.455 178.091 167.577 178.382C170.466 179.099 173.94 179.831 177.722 180.454C182.934 181.455 188.824 182.214 195.094 182.964C206.625 184.319 219.329 185.332 230.8 185.73C233.597 185.824 236.321 185.877 238.905 185.957C241.489 186.037 244.288 185.953 246.596 185.867C250.609 185.842 254.612 185.466 258.559 184.744C259.264 184.599 259.946 184.363 260.59 184.042C260.933 183.912 261.221 183.668 261.404 183.35V183.35C261.418 183.231 261.424 183.112 261.424 182.992L261.445 183.082L261.474 182.537C261.63 181.162 261.724 179.829 261.788 178.593C261.783 178.424 261.811 178.251 261.814 178.09L261.823 177.903C261.895 176.463 261.952 174.728 262.005 173.02L262.021 172.569C262.01 172.408 262.014 172.246 262.033 172.085C262.057 171.506 262.084 170.944 262.095 170.384L262.112 169.874C262.103 169.764 262.102 169.654 262.11 169.544C262.1 169.489 262.098 169.432 262.105 169.376C262.105 169.376 262.105 169.376 262.105 169.376C262.096 169.322 262.098 169.267 262.109 169.214C262.102 169.132 262.105 169.049 262.118 168.968L262.098 168.877C262.098 168.877 261.573 168.879 260.714 168.909L257.972 168.917C254.766 168.928 249.74 168.876 243.075 168.856L239.72 168.827C233.407 168.777 226.466 168.708 219.363 168.636L205.706 168.477C196.092 168.366 186.79 168.238 179.004 168.121L168.053 167.942C166.916 167.923 165.889 167.899 164.987 167.866C163.715 167.849 162.664 167.836 161.805 167.806C159.943 167.74 159.041 167.708 159.013 167.686C159.016 166.628 159.019 165.375 159.001 164.344C158.98 164.185 158.973 164.025 158.98 163.865C158.98 163.865 158.98 163.865 158.98 163.865C158.983 163.825 158.978 163.785 158.964 163.748V163.748C157.43 163.8 155.839 163.926 153.962 163.939C151.723 163.974 149.226 163.975 146.481 163.95C143.529 163.902 140.548 163.892 137.366 163.772C126.282 163.416 114.131 162.617 103.027 161.544C96.8548 160.959 91.0088 160.279 85.8254 159.554C81.7653 159.001 78.0857 158.381 75.0159 157.765L74.9885 158.132L75.0159 157.765C73.9263 157.548 72.941 157.332 72.0603 157.116C70.8169 156.829 69.5893 156.478 68.3825 156.064C67.0132 155.569 66.2655 155.101 66.1249 154.679L66.1116 154.579L66.014 155.82L65.9574 156.733L65.9541 156.835C65.8027 159.902 65.7164 163.841 65.6525 167.185L65.6233 168.941C66.2996 168.789 66.9903 168.712 67.6833 168.709C68.683 168.653 69.9961 168.597 71.5963 168.537L74.6421 168.462L74.6433 168.09L74.6421 168.462C78.1081 168.366 82.2385 168.3 87.0169 168.207C96.875 168.058 108.933 167.963 120.89 167.941L121.118 167.936C129.868 167.925 138.571 167.938 146.324 168L149.305 168.01C153.264 168.052 156.42 168.107 158.93 168.146C158.93 168.654 158.932 169.178 158.91 169.714L158.877 171.183L158.832 172.061C158.81 172.079 158.793 172.101 158.782 172.127L158.768 172.34L158.734 172.912L158.65 174.133C154.643 173.694 150.613 173.483 146.581 173.502C143.902 173.468 141.12 173.49 138.257 173.6C122.579 174.148 106.97 175.946 91.5789 178.977C86.0994 180.039 80.6951 181.458 75.4005 183.225C74.2526 183.631 73.2537 184.077 72.2938 184.433C70.8407 185.008 69.4652 185.763 68.199 186.678C67.8124 186.898 67.4739 187.193 67.2037 187.545C66.9336 187.898 66.7373 188.302 66.6265 188.732L66.6225 188.894C66.6289 188.95 66.6307 189.006 66.6279 189.062L66.5919 189.109L66.6052 189.209L66.8076 191.053L66.816 191.179L66.9202 192.155C67.0737 193.438 67.2686 194.843 67.478 196.229L67.609 197.151C67.7294 197.931 67.8948 198.73 67.9942 199.478L68.0191 199.602L68.0484 199.759L68.4282 201.918L68.3995 201.701L68.4354 201.908C68.4641 202.124 68.4979 202.315 68.541 202.512C68.5841 202.709 68.5542 202.612 68.5609 202.662C68.5814 202.795 68.6103 202.927 68.6472 203.057L68.6118 202.79C68.6118 202.79 68.8381 202.71 68.8526 202.691Z" fill="white"/>
</g>
<g style="mix-blend-mode:multiply" opacity="0.1">
<path d="M68.9623 203.582C68.9623 203.582 68.985 203.689 69.0082 203.737C68.9607 203.506 68.937 203.264 68.875 203.052L68.9623 203.582Z" fill="white"/>
</g>
<g style="mix-blend-mode:multiply" opacity="0.1">
<path d="M182.257 35.112L181.506 34.9409C181.203 34.8881 180.907 34.8258 180.613 34.7801C181.588 34.9891 182.574 35.2054 183.492 35.4897C183.114 35.3199 182.685 35.216 182.257 35.112Z" fill="white"/>
</g>
<g style="mix-blend-mode:multiply" opacity="0.1">
<path d="M153.292 133.463C153.103 133.319 152.869 133.215 152.657 133.082C152.798 133.19 152.959 133.313 153.2 133.408L153.292 133.463Z" fill="white"/>
</g>
<g style="mix-blend-mode:multiply" opacity="0.1">
<path d="M117.994 287.131C118.029 287.15 118.061 287.174 118.089 287.203L118.174 287.268L118.673 287.65C119.059 287.946 119.508 288.2 119.961 288.487C120.413 288.773 120.793 289.019 121.225 289.275C120.98 289.088 120.744 288.907 120.482 288.781C119.247 287.955 118.207 287.264 117.306 286.664C118.216 287.271 119.277 287.993 120.482 288.781C111.239 282.467 101.531 269.79 105.656 244.958C105.411 244.77 105.176 244.59 104.873 244.478C105.118 244.665 105.397 244.789 105.664 244.949C106.463 241.042 107.624 237.218 109.132 233.527C111.324 228.247 114.192 223.274 117.663 218.732C126.911 206.653 139.992 198.271 153.461 196.821L152.966 197.937L152.719 198.435L152.528 198.782C138.869 201.925 126.774 212.571 119.839 226.958C117.752 231.26 116.166 235.788 115.114 240.452C114.533 243.09 114.111 245.761 113.848 248.449C111.575 272.891 124.058 293.461 142.752 298.537C144.237 298.882 145.509 299.153 146.582 299.391C146.648 299.442 146.783 299.441 146.911 299.449C147.934 299.694 148.888 299.872 149.817 300.045C150.746 300.218 152.044 300.435 153.265 300.578C153.754 300.623 154.237 300.694 154.744 300.754C155.548 300.816 156.373 300.91 157.298 300.99C150.954 300.172 144.931 297.723 139.815 293.883C135.741 290.832 132.209 287.117 129.367 282.895C122.793 272.953 119.455 261.221 119.811 249.308C119.859 246.952 120.047 244.601 120.374 242.267C120.912 238.13 121.875 234.06 123.247 230.12C128.419 215.399 138.992 204.126 151.855 199.895L151.905 199.829C151.697 200.238 151.475 200.665 151.278 201.098C140.299 206.382 132.225 217.416 129.276 231.283C128.529 234.826 128.121 238.431 128.056 242.051C128.016 244.138 128.084 246.225 128.26 248.304C128.861 255.73 130.777 262.991 133.918 269.747C141.221 285.409 154.571 296.9 169.576 299.3C174.598 300.113 179.736 299.849 184.649 298.526C187.298 297.759 190.771 296.503 193.365 295.574C194.24 295.213 195.121 294.842 195.927 294.472C196.287 294.314 196.623 294.168 196.981 293.994L197.355 293.817C197.873 293.57 198.431 293.31 198.97 293.035L199.163 292.959L199.296 292.882L199.494 292.78L199.986 292.528L199.943 292.585L199.986 292.528L200.439 292.307L200.374 292.392L200.77 292.187L200.813 292.13L201.949 291.506C201.24 291.904 200.52 292.279 199.799 292.654L198.588 293.222C194.976 294.781 191.115 295.686 187.186 295.895C186.381 295.951 185.602 296.013 184.743 295.983C166.498 295.824 148.833 282.375 139.704 263.536C137.051 258.042 135.2 252.196 134.208 246.177V246.177C133.885 244.25 133.666 242.307 133.553 240.356C133.352 237.122 133.451 233.875 133.848 230.659C135.424 217.923 141.714 207.54 151.072 201.836C149.557 205.968 149.37 210.47 150.539 214.714C151.02 216.683 151.681 218.604 152.511 220.453C153.103 221.788 153.79 223.135 154.567 224.522L154.689 224.362L154.567 224.522C156.468 227.768 158.693 230.814 161.208 233.611C164.218 236.989 167.525 240.091 171.089 242.879C173.454 244.69 175.905 246.447 178.464 248.062C188.32 254.377 199.405 258.528 210.985 260.24C213.243 260.542 215.518 260.706 217.796 260.732C218.539 260.718 219.294 260.728 220.001 260.702C223.674 260.61 227.312 259.964 230.793 258.786C234.368 257.633 237.575 255.558 240.092 252.769C240.679 252.11 241.217 251.407 241.7 250.668L242.144 249.932L244.916 244.671L245.017 244.54L245.17 244.223L245.401 243.922C246.37 241.854 247.466 239.271 248.419 237.266C247.954 238.153 247.396 238.988 246.752 239.755C244.264 242.486 241.047 244.446 237.48 245.405C234.221 246.36 230.853 246.895 227.458 246.998C226.525 247.046 225.569 247.046 224.56 247.036C223.077 247.021 221.615 246.979 220.11 246.857C208.095 245.938 194.966 241.791 183.465 235.751C180.863 234.387 178.35 232.926 175.959 231.364C172.389 229.086 169.006 226.527 165.843 223.71C163.239 221.407 160.86 218.86 158.739 216.105V216.105C157.885 214.999 157.098 213.843 156.383 212.642C155.415 211.11 154.601 209.486 153.953 207.793C152.444 204.23 152.342 200.227 153.668 196.591L153.711 196.534L153.812 196.402L154.254 195.336C142.576 195.736 130.67 201.117 120.806 209.571C115.566 214.085 111.028 219.355 107.342 225.207C104.221 230.147 101.801 235.496 100.15 241.101C95.9273 257.296 98.4807 269.831 107.909 279.515L108.231 279.836C108.291 279.868 108.345 279.909 108.391 279.959C108.957 280.391 109.505 280.886 110.112 281.381C110.291 281.518 110.442 281.633 110.602 281.756L110.715 281.842C111.733 282.621 112.549 283.351 113.27 283.932C112.478 283.327 111.629 282.601 110.602 281.756C111.565 282.568 112.507 283.348 113.342 284.033C114.621 284.862 116.467 286.081 117.994 287.131Z" fill="white"/>
</g>
<g style="mix-blend-mode:multiply" opacity="0.1">
<path d="M76.8691 142.909C79.8382 144.443 82.9005 145.789 86.0379 146.939C90.1901 148.504 94.8745 149.998 99.8336 151.329C103.555 152.324 107.362 153.207 111.289 154.031C119.313 155.695 127.427 156.887 135.59 157.601C138.834 157.872 142.013 158.034 145.041 158.14C145.797 158.167 146.524 158.155 147.262 158.167C150.886 158.228 154.51 158.057 158.113 157.657L158.686 157.572L158.731 157.846C158.651 157.052 159.464 156.166 161.205 155.257C162.251 154.717 163.331 154.245 164.438 153.846C165.35 153.513 166.433 153.192 167.526 152.818C172.376 151.421 177.296 150.285 182.267 149.413C198.828 146.5 215.584 144.841 232.394 144.449C234.588 144.395 236.755 144.395 238.829 144.399C243.894 144.368 248.956 144.683 253.978 145.341C255.446 145.542 256.896 145.854 258.317 146.272C260.047 146.804 261.063 147.447 261.353 148.162C261.353 148.162 261.353 148.162 261.419 148.213L261.459 148.453L261.432 148.059L261.212 146.082L260.946 143.442L260.824 142.392L260.514 140.123C260.242 138.525 260.042 136.952 259.819 135.526C259.737 135.164 259.688 134.798 259.64 134.432C259.627 134.295 259.606 134.16 259.577 134.026L259.511 133.781L259.495 133.664C258.999 132.029 257.19 130.644 254.172 129.589C252.195 128.932 250.163 128.457 248.1 128.169C244.317 127.634 240.5 127.369 236.678 127.375C230.45 127.365 224.227 127.737 218.043 128.487C208.675 129.523 199.391 131.214 190.258 133.548C180.724 136.007 172.183 139.063 166.139 142.371C164.917 143.05 163.895 143.642 162.872 144.354C161.683 145.148 160.585 146.072 159.598 147.108C158.183 148.625 157.604 150.064 157.843 151.353C157.844 151.426 157.854 151.499 157.872 151.569L157.92 151.935L158.056 152.831L158.201 153.794C155.258 154.217 152.291 154.442 149.318 154.466L147.979 154.457C145.651 154.428 143.248 154.312 140.773 154.111C129.257 153.071 117.907 150.663 106.961 146.937C104.267 146.025 101.642 145.062 99.1272 144.033C95.0335 142.373 91.0457 140.463 87.1863 138.314C84.3063 136.712 81.5586 134.884 78.9692 132.845C78.0732 132.129 77.2148 131.368 76.3976 130.563C75.2303 129.484 74.1896 128.277 73.2956 126.963C71.9368 125.222 71.2808 123.034 71.4574 120.833L71.5141 120.623C71.6052 120.289 71.6918 119.922 71.8046 119.56L71.5897 120.172L70.9668 122.684C70.2212 125.61 69.4972 129.465 68.8601 132.698L68.5294 134.223L68.4959 134.736C68.5803 135.504 68.8167 136.249 69.1914 136.926C69.5661 137.603 70.0715 138.198 70.6784 138.678C71.7047 139.629 72.8183 140.482 74.0044 141.224C74.929 141.812 75.8469 142.351 76.8691 142.909Z" fill="white"/>
</g>
<g style="mix-blend-mode:multiply" opacity="0.1">
<path d="M108.616 138.685C119.768 144.335 131.863 147.89 144.298 149.174C146.122 149.329 147.929 149.428 149.7 149.438L149.794 149.316L149.88 149.203L149.766 149.489C150.656 149.497 151.517 149.484 152.36 149.457C154.09 149.395 155.816 149.245 157.531 149.008L157.357 148.142L157.321 147.994L157.298 147.887L157.241 147.844L156.843 146.179C155.859 146.292 154.845 146.368 153.8 146.405C152.976 146.447 152.131 146.457 151.267 146.454L151.08 146.699L151.145 146.614L151.267 146.454C149.314 146.442 147.363 146.326 145.423 146.104C134.033 144.857 121.936 140.378 111.405 133.93C109.038 132.492 106.751 130.95 104.579 129.317C100.877 126.577 97.4295 123.508 94.2792 120.147C91.7215 117.416 89.4406 114.439 87.47 111.258L87.2957 111.603L87.47 111.258C86.69 109.974 86.0336 108.664 85.3999 107.462C84.4604 105.522 83.7148 103.495 83.1741 101.409C81.9701 97.2313 82.197 92.7709 83.8189 88.7369L83.9933 88.3922L84.9751 86.5435C84.7298 86.8638 84.5578 87.2253 84.3763 87.5795L84.3402 87.6266L82.9488 90.3423L82.8516 90.5667L82.7866 90.6515L82.664 90.8117L82.1312 91.8982C81.6639 92.8406 81.2059 93.7901 80.7718 94.728C80.2672 95.8362 79.7187 97.0601 79.3051 98.0885L79.0325 98.7765L78.5383 100.027L78.4218 100.296L77.8743 101.656L77.7371 102.089L77.6939 102.145C76.8887 105.309 77.1657 108.651 78.4806 111.639C79.1993 113.417 80.1055 115.112 81.1838 116.698C81.8808 117.739 82.5994 118.753 83.4505 119.808L83.6038 119.432L83.4505 119.808C85.667 122.513 88.1318 125.006 90.8128 127.252C94.23 130.124 97.8746 132.714 101.711 134.997C103.89 136.172 106.205 137.481 108.616 138.685Z" fill="white"/>
</g>
<g style="mix-blend-mode:multiply" opacity="0.1">
<path d="M179.845 34.6119L179.734 34.6013L180.063 34.6592L179.845 34.6119Z" fill="white"/>
</g>
<g style="mix-blend-mode:multiply" opacity="0.1">
<path d="M160.219 301.313C159.265 301.271 158.315 301.186 157.404 301.086L160.219 301.313Z" fill="white"/>
</g>
<g style="mix-blend-mode:multiply" opacity="0.1">
<path d="M89.4909 252.488C88.7089 246.6 89.7343 239.853 92.867 232.657L92.7633 232.577L92.867 232.657C97.1541 223.287 103.542 215.03 111.534 208.526C117.713 203.354 124.665 199.186 132.138 196.174C138.839 193.418 146.006 191.975 153.251 191.923V191.923C153.954 191.923 154.698 191.985 155.32 192.013L155.829 190.43L156.107 189.462C154.563 189.291 153.011 189.201 151.458 189.19L151.546 189.348L151.458 189.19C147.922 189.171 144.393 189.47 140.911 190.083C134.996 191.178 129.227 192.956 123.721 195.379C108.818 201.904 95.2794 212.835 88.1667 225.308C88.3687 225.681 88.5818 226.054 88.806 226.425C88.5888 226.064 88.3789 225.694 88.1595 225.317C86.0824 228.845 84.6055 232.694 83.7892 236.706C82.9511 240.685 83.2509 244.82 84.654 248.636C84.72 248.687 84.721 248.822 84.7676 248.917C84.9088 249.279 85.0832 249.637 85.2577 249.995L85.3973 250.281C85.4925 250.489 85.6044 250.694 85.7141 250.882L85.7612 250.918C86.2399 251.718 86.7679 252.571 87.3075 253.447C87.3961 253.605 87.4919 253.753 87.5972 253.908C89.2863 256.621 91.1916 259.559 92.9014 262.108L93.005 262.187C91.1564 259.242 89.9583 255.935 89.4909 252.488Z" fill="white"/>
</g>
<g style="mix-blend-mode:multiply" opacity="0.1">
<path d="M147.563 61.7688C144.136 66.3894 141.341 71.446 139.25 76.8051C137.826 80.471 136.745 84.2613 136.022 88.1273C132.477 107.262 138.868 123.901 151.152 132.139C151.529 132.427 151.949 132.659 152.353 132.893C152.07 132.677 151.816 132.482 151.354 132.129C149.405 127.911 148.814 123.192 149.662 118.624C150.405 114.474 151.831 110.475 153.88 106.79V106.79C160.427 94.6458 172.799 83.9122 186.628 77.1494C192.999 73.9713 199.793 71.7237 206.801 70.4753C210.045 69.9024 213.334 69.6242 216.628 69.6443C227.576 69.731 235.578 73.4508 239.878 79.5073C239.962 79.5723 240.023 79.7081 240.086 79.8013C240.149 79.8945 240.086 79.8013 240.142 79.8446C240.199 79.8879 240.142 79.8446 240.142 79.8446C240.378 80.2195 240.596 80.5801 240.796 80.9428C240.649 80.666 240.469 80.3937 240.332 80.1242C239.986 79.5606 239.678 79.0259 239.333 78.4624C239.333 78.4624 239.257 78.4047 239.229 78.3831C239.2 78.3505 239.164 78.3236 239.125 78.3038C238.807 77.8212 238.489 77.3386 238.183 76.8206C237.878 76.3025 237.634 75.9963 237.346 75.5521C237.059 75.1078 236.879 74.8354 236.656 74.501C235.515 72.7904 233.942 70.6293 232.611 68.8931C232.441 68.7633 232.336 68.5487 232.205 68.3884C232.164 68.3639 232.126 68.3348 232.092 68.3018L232.036 68.2585C221.627 56.3602 203.316 55.8969 186.042 63.4896C178.656 66.782 171.852 71.2471 165.892 76.712C158.756 83.1813 153.001 91.0251 148.97 99.773V99.773C144.944 109.678 145.119 117.239 146.502 122.616C147.354 125.965 148.83 129.123 150.853 131.925C146.723 128.504 143.63 123.999 141.922 118.916C139.681 112.493 138.872 103.789 141.584 92.1457C145.152 80.2526 151.819 69.5225 160.901 61.0556C177.272 45.9565 199.34 40.8676 215.604 51.7937C215.877 52.0029 216.169 52.2265 216.461 52.4501L216.141 52.2048C216.046 52.1327 215.962 52.0678 215.877 52.0029L215.726 51.8875C215.5 51.7144 215.274 51.5412 215.048 51.3681L214.416 50.8848C214.313 50.8055 214.228 50.7406 214.134 50.6685C213.794 50.4088 213.446 50.1419 213.107 49.8822C212.551 49.4566 211.985 49.0239 211.36 48.6498C211.193 48.5369 211.032 48.414 210.88 48.2819C210.672 48.1232 210.484 47.979 210.295 47.8347L210.05 47.6472C209.937 47.5606 209.815 47.4668 209.692 47.3731L209.57 47.2793C209.363 47.1206 209.174 46.9764 208.967 46.8177C208.76 46.659 208.543 46.4931 208.255 46.3621C208.123 46.2611 207.981 46.1529 207.859 46.0592L207.354 45.7622C207.194 45.6396 207.024 45.5098 206.873 45.3944L206.312 45.0542C206.312 45.0542 206.255 45.0109 206.227 44.9893C206.02 44.8306 205.769 44.7284 205.548 44.5885C205.377 44.4771 205.2 44.3763 205.017 44.2867L204.922 44.2145L204.483 43.9681C204.417 43.9176 204.37 43.8815 204.295 43.8238L203.804 43.5674C203.804 43.5674 203.804 43.5674 203.738 43.5169C198.831 40.8232 193.325 39.409 187.727 39.4048C172.575 39.2078 157.649 48.1646 147.563 61.7688Z" fill="white"/>
</g>
<g style="mix-blend-mode:multiply" opacity="0.1">
<path d="M228.95 269.062L228.675 269.42C225.833 272.252 222.362 274.372 218.544 275.607C214.732 276.856 210.737 277.456 206.726 277.38C206.176 277.377 205.604 277.342 205.044 277.332C202.046 277.194 199.067 276.779 196.144 276.093C187.787 274.068 179.894 270.465 172.888 265.478C169.965 263.437 167.189 261.192 164.581 258.76C160.564 255.042 156.982 250.881 153.903 246.356C151.441 242.704 149.388 238.793 147.783 234.692C147.151 233.127 146.616 231.525 146.181 229.894C145.537 227.603 145.09 225.261 144.845 222.894C144.089 214.843 146.043 207.82 150.255 202.572L150.421 202.355L150.255 202.572L150.464 202.298C150.39 202.416 150.306 202.526 150.212 202.628C143.937 208.405 140.349 217.015 140.408 227.148C140.411 229.869 140.658 232.584 141.146 235.26C141.461 236.996 141.867 238.711 142.35 240.501C143.752 245.321 145.72 249.958 148.213 254.314C151.447 259.916 155.449 265.038 160.103 269.529C168.822 278.012 179.595 284.047 190.481 286.029C192.924 286.491 195.404 286.734 197.89 286.755C201.054 286.8 204.209 286.421 207.271 285.628C211.627 284.505 215.663 282.387 219.062 279.44L219.263 279.295L220.178 278.412C220.94 277.71 221.711 277.015 222.453 276.298L223.491 275.255L224.01 274.695C224.985 273.694 225.933 272.671 226.895 271.629L227.342 271.045C227.58 270.734 227.875 270.466 228.129 270.153L228.295 269.936L228.44 269.748L229.16 268.924C229.34 268.689 229.542 268.425 229.751 268.152L230.739 266.861L229.831 268.048L228.95 269.062Z" fill="white"/>
</g>
</g>
<path opacity="0.9" d="M80.2261 235.308C80.149 235.164 80.0838 235.014 80.0311 234.86V234.86C79.6176 233.583 79.3924 232.253 79.3629 230.911C79.3687 227.761 80.1002 224.654 81.5007 221.832C82.5762 219.589 83.8759 217.459 85.3798 215.477C95.6708 201.761 116.442 190.225 136.321 186.18C140.97 185.201 145.705 184.685 150.456 184.642L151.301 184.631C153.627 184.644 155.95 184.82 158.252 185.155L158.11 185.809C157.986 186.342 157.817 186.914 157.659 187.511C157.6 187.66 157.561 187.816 157.543 187.975C156.926 190.148 157.444 192.652 159.134 195.365C159.507 195.95 159.943 196.552 160.423 197.174C160.455 197.204 160.49 197.23 160.527 197.253C160.989 197.801 161.461 198.357 162.003 198.936C162.837 199.799 163.7 200.624 164.696 201.491C167.253 203.642 169.985 205.578 172.862 207.279C176.544 209.482 180.366 211.44 184.305 213.14C186.803 214.231 189.423 215.279 192.092 216.262C203.127 220.283 214.631 222.877 226.323 223.981C228.711 224.181 231.069 224.282 233.35 224.309C233.936 224.325 234.503 224.326 235.068 224.31C238.597 224.299 242.116 223.945 245.576 223.253C249.864 222.336 253.012 220.86 254.941 218.945C255.557 218.347 256.082 217.661 256.499 216.91L256.535 216.863C256.749 216.115 256.941 215.395 257.159 214.681L257.103 215.086L257.041 215.382L257.113 215.093C257.487 213.766 257.837 212.449 258.15 211.18L258.338 210.428L258.382 210.371C258.986 207.845 259.665 204.419 260.234 201.821C260.141 202.222 259.976 202.602 259.748 202.944C259.326 203.588 258.777 204.139 258.135 204.563C256.175 205.932 252.902 206.968 248.375 207.552C244.663 208.016 240.924 208.224 237.183 208.175C236.946 208.173 236.697 208.147 236.443 208.147C233.688 208.115 230.834 207.977 227.903 207.766C217.929 206.948 208.033 205.367 198.301 203.038C195.337 202.263 192.374 201.489 189.505 200.668C184.92 199.31 180.412 197.705 176.001 195.859C172.904 194.604 169.898 193.136 167.004 191.467C165.975 190.859 164.975 190.213 164.115 189.599C163.031 188.843 162.019 187.989 161.093 187.046C159.319 185.225 158.621 183.54 158.933 182.06C158.933 181.987 158.943 181.914 158.963 181.844C156.004 181.356 153.01 181.108 150.011 181.103V181.103C149.603 181.09 149.19 181.102 148.793 181.113C125.466 181.307 95.8161 192.338 81.9215 206.134C80.6086 207.404 79.4072 208.784 78.3302 210.26C76.7491 212.285 75.6306 214.632 75.0535 217.136C74.7926 218.424 74.7933 219.75 75.0554 221.038C75.1001 221.302 75.1658 221.562 75.2518 221.816L75.2745 221.923L75.6454 223.059L75.6093 223.106C75.648 223.27 75.7389 223.444 75.7849 223.599C75.8308 223.754 75.7849 223.599 75.7849 223.599C76.0793 224.542 76.4297 225.587 76.7946 226.613C77.2309 227.859 77.7165 229.157 78.2215 230.411L78.5907 231.47C78.6816 231.645 78.7298 231.816 78.8018 231.976C78.8738 232.135 78.9429 232.338 78.9911 232.509L79.6268 233.982C79.7841 234.401 79.9652 234.809 80.1579 235.241C80.3506 235.672 80.5057 236.075 80.6962 236.489C80.7377 236.611 80.8197 236.719 80.8613 236.84C80.8423 236.747 80.8104 236.657 80.7666 236.573L80.5789 236.116L80.987 237.086L80.4836 235.908C80.3789 235.694 80.3025 235.501 80.2261 235.308Z" fill="white"/>
<path opacity="0.9" d="M70.231 201.28C70.2337 200.195 70.5688 199.137 71.1913 198.249C72.2847 196.679 73.6444 195.312 75.2089 194.211C76.2505 193.439 77.3302 192.719 78.4438 192.055C85.1073 188.055 94.8668 184.423 105.674 181.608C112.15 179.921 118.711 178.583 125.33 177.601C133.058 176.399 140.868 175.798 148.689 175.803C152.048 175.811 155.402 176.032 158.732 176.467C159.066 176.498 159.388 176.566 159.722 176.597C159.784 175.912 159.85 175.201 159.932 174.606L159.94 174.478C159.987 174.065 160.004 173.614 160.096 173.103C160.096 173.03 160.107 172.957 160.127 172.887C160.086 173.214 160.322 173.589 160.802 173.957C161.42 174.389 162.089 174.741 162.795 175.004C163.627 175.342 164.684 175.718 165.92 176.096C166.824 176.34 167.853 176.635 168.968 176.935C171.856 177.652 175.331 178.384 179.106 179.017C184.353 179.971 190.224 180.774 196.485 181.517C208.015 182.872 220.712 183.895 232.191 184.283C234.985 184.381 237.687 184.456 240.296 184.511C243.12 184.531 245.683 184.5 247.986 184.42C251.996 184.393 255.996 184.02 259.942 183.307C260.649 183.155 261.334 182.916 261.981 182.596C262.324 182.466 262.612 182.221 262.795 181.904C262.808 181.785 262.815 181.665 262.815 181.545L262.835 181.636L262.865 181.09C263.021 179.715 263.114 178.382 263.179 177.146C263.173 176.978 263.201 176.805 263.205 176.644L263.214 176.456C263.285 175.016 263.352 173.289 263.395 171.574L263.412 171.123C263.406 170.961 263.41 170.8 263.423 170.639L263.495 168.945C263.494 168.75 263.489 168.582 263.502 168.428C263.493 168.323 263.493 168.218 263.503 168.114L263.488 167.939L263.531 167.882C263.523 167.828 263.524 167.774 263.535 167.721C263.527 167.642 263.527 167.562 263.538 167.483L263.524 167.384L262.14 167.415C261.455 167.413 260.543 167.432 259.399 167.423C256.193 167.435 251.166 167.383 244.502 167.362L241.137 167.326C234.834 167.283 227.883 167.207 220.78 167.135L207.123 166.976C197.51 166.865 188.208 166.737 180.462 166.665L169.518 166.477C168.381 166.458 167.353 166.434 166.452 166.401C165.18 166.384 164.129 166.371 163.27 166.342C161.4 166.285 160.506 166.243 160.478 166.221C160.49 165.17 160.493 163.917 160.465 162.88C160.449 162.72 160.442 162.56 160.444 162.4C160.455 162.358 160.452 162.314 160.436 162.274V162.274C158.902 162.325 157.311 162.452 155.433 162.464C153.195 162.499 150.698 162.501 147.952 162.476C145 162.428 142.02 162.417 138.845 162.289C127.76 161.933 115.61 161.134 104.499 160.07C98.3337 159.475 92.4806 158.805 87.3044 158.07C83.2443 157.518 79.5646 156.897 76.4948 156.281L76.4673 156.648L76.4948 156.281C75.4052 156.064 74.4199 155.848 73.5392 155.632C72.2939 155.353 71.0659 155.002 69.8614 154.58C68.4921 154.085 67.7444 153.617 67.6132 153.203C67.6132 153.203 67.5661 153.167 67.5906 153.096L67.5023 154.343L67.4457 155.256L67.4352 155.368C67.2839 158.435 67.1952 162.357 67.1314 165.701L67.1022 167.457C67.7811 167.305 68.4739 167.225 69.1694 167.216C70.1691 167.16 71.4822 167.104 73.0824 167.044C74.0012 167.015 74.9909 167.01 76.1282 166.969L76.1295 166.597L76.1282 166.969C79.5942 166.873 83.7606 166.76 88.4958 166.724C98.3611 166.565 110.411 166.479 122.376 166.448L122.604 166.443C131.354 166.432 140.05 166.454 147.81 166.507L150.784 166.527C154.742 166.568 157.906 166.614 160.416 166.653C160.409 167.17 160.418 167.685 160.396 168.221L160.363 169.69L160.326 170.558C160.326 170.558 160.29 170.605 160.275 170.624L160.252 170.831L160.218 171.402L160.134 172.624C156.126 172.184 152.097 171.973 148.065 171.992C145.386 171.958 142.597 171.99 139.741 172.09C124.063 172.643 108.455 174.441 93.0628 177.468C87.5806 178.532 82.174 179.955 76.8773 181.725C75.7293 182.131 74.7376 182.567 73.7777 182.923C72.3314 183.513 70.9575 184.266 69.6828 185.169C69.2937 185.385 68.9532 185.678 68.6827 186.032C68.4121 186.385 68.2173 186.791 68.1104 187.223C68.1104 187.223 68.0598 187.289 68.0969 187.377C68.1079 187.432 68.1098 187.489 68.1025 187.545L68.1157 187.645L68.0796 187.692L68.2822 189.536L68.2904 189.662L68.3852 190.631C68.5387 191.914 68.7265 193.328 68.9432 194.705L69.074 195.627C69.1945 196.406 69.3599 197.206 69.4593 197.954L69.4842 198.078L69.5134 198.235L69.8932 200.393L69.8573 200.187C69.8779 200.254 69.8899 200.323 69.8932 200.393L70.006 200.988C70.006 200.988 70.0194 201.088 70.026 201.138C70.0466 201.271 70.0754 201.403 70.1123 201.532C70.1088 201.443 70.097 201.354 70.0769 201.266C70.0769 201.266 70.2166 201.298 70.231 201.28Z" fill="white"/>
<path opacity="0.9" d="M70.3481 202.161C70.3481 202.161 70.3708 202.268 70.394 202.316C70.3465 202.086 70.3227 201.843 70.2607 201.631L70.3481 202.161Z" fill="white"/>
<path opacity="0.9" d="M183.645 33.7077L182.884 33.5293L181.991 33.3686C182.967 33.5776 183.954 33.8104 184.87 34.0781C184.485 33.9177 184.064 33.8044 183.645 33.7077Z" fill="white"/>
<path opacity="0.9" d="M154.68 132.059C154.482 131.908 154.248 131.803 154.036 131.671C154.177 131.779 154.337 131.901 154.578 131.996L154.68 132.059Z" fill="white"/>
<path opacity="0.9" d="M119.373 285.72L119.552 285.857L120.051 286.239C120.438 286.535 120.893 286.779 121.346 287.066C121.799 287.353 122.179 287.599 122.603 287.864C122.358 287.677 122.123 287.496 121.861 287.37C120.618 286.553 119.595 285.86 118.685 285.253C119.595 285.86 120.656 286.582 121.861 287.37C112.61 281.065 102.919 268.386 107.028 243.556C106.779 243.378 106.52 243.215 106.252 243.067C106.497 243.255 106.776 243.378 107.042 243.538C107.841 239.631 109.002 235.807 110.511 232.116C112.708 226.839 115.576 221.866 119.042 217.321C128.289 205.242 141.373 196.877 154.84 195.41L154.309 196.573L154.069 197.062L153.831 197.372C140.165 200.525 128.086 211.169 121.135 225.558C119.049 229.861 117.463 234.388 116.409 239.052C115.824 241.691 115.404 244.365 115.153 247.057C112.88 271.499 125.353 292.061 144.057 297.145C145.542 297.489 146.814 297.76 147.886 297.999C147.993 298.027 148.1 298.049 148.209 298.066C149.239 298.302 150.193 298.48 151.122 298.653C152.051 298.825 153.349 299.042 154.57 299.185C155.058 299.23 155.551 299.309 156.049 299.361C156.853 299.424 157.678 299.517 158.603 299.597C152.259 298.779 146.235 296.33 141.12 292.49C137.046 289.438 133.514 285.724 130.672 281.502C124.161 271.591 120.858 259.917 121.212 248.063C121.35 241.539 122.502 235.075 124.626 228.904C129.791 214.192 140.371 202.91 153.234 198.679L153.285 198.613C153.076 199.022 152.854 199.449 152.667 199.889C141.678 205.165 133.614 216.207 130.655 230.067C129.906 233.609 129.497 237.215 129.435 240.835C129.403 242.912 129.478 244.99 129.661 247.06C130.278 254.425 132.188 261.624 135.304 268.326C142.599 283.998 155.957 295.48 170.954 297.89C172.782 298.186 174.63 298.336 176.482 298.34C179.712 298.387 182.931 297.973 186.045 297.113C188.684 296.339 192.103 295.056 194.751 294.154C195.625 293.792 196.507 293.421 197.277 293.099L198.331 292.62L198.705 292.444L200.327 291.653L200.513 291.586L200.663 291.507C200.723 291.465 200.786 291.429 200.851 291.397L201.343 291.145L201.3 291.202L201.336 291.155L201.787 290.917L201.714 291.011L202.118 290.797L202.161 290.741L203.297 290.116C202.586 290.498 201.875 290.88 201.145 291.248L199.934 291.815C196.321 293.374 192.461 294.28 188.532 294.489C187.719 294.554 186.947 294.606 186.089 294.576C167.844 294.417 150.124 280.942 141.049 262.129C138.397 256.636 136.546 250.79 135.553 244.771V244.771C135.226 242.844 135.007 240.901 134.899 238.95C134.686 235.713 134.782 232.464 135.184 229.245C136.76 216.509 143.05 206.126 152.407 200.422C150.889 204.554 150.703 209.057 151.874 213.3C152.355 215.269 153.015 217.19 153.847 219.039C154.439 220.374 155.126 221.722 155.903 223.108L156.025 222.948L155.903 223.108C157.807 226.358 160.033 229.408 162.546 232.214C165.56 235.583 168.866 238.679 172.425 241.466C174.794 243.318 177.255 245.047 179.8 246.648C189.656 252.964 200.741 257.115 212.321 258.827C214.579 259.133 216.854 259.297 219.132 259.319C219.868 259.314 220.63 259.314 221.337 259.288C225.008 259.203 228.644 258.561 232.122 257.382C235.7 256.227 238.91 254.148 241.428 251.355C242.015 250.696 242.553 249.993 243.036 249.254L243.48 248.518L246.245 243.267L246.353 243.126L246.506 242.809L246.682 242.481C247.659 240.405 248.795 237.867 249.7 235.825C249.236 236.713 248.677 237.547 248.033 238.315C245.549 241.049 242.331 243.011 238.762 243.965C235.503 244.92 232.135 245.455 228.74 245.558C227.807 245.606 226.85 245.606 225.835 245.605C224.359 245.581 222.897 245.538 221.391 245.416C209.386 244.505 196.248 240.35 184.747 234.311C182.145 232.946 179.632 231.486 177.243 229.941C173.682 227.64 170.311 225.059 167.161 222.223C164.558 219.918 162.178 217.375 160.049 214.626V214.626C159.202 213.514 158.418 212.355 157.701 211.155C156.735 209.621 155.922 207.997 155.271 206.306C153.758 202.743 153.656 198.738 154.985 195.103L155.021 195.056L155.129 194.915L155.555 193.851C143.877 194.251 131.935 199.679 122.1 208.095C116.862 212.606 112.327 217.873 108.643 223.722C105.527 228.664 103.107 234.013 101.451 239.616C97.2283 255.811 99.7911 268.353 109.21 278.03L109.578 278.311C109.635 278.34 109.686 278.379 109.729 278.426C110.294 278.859 110.844 279.37 111.449 279.848C111.629 279.985 111.779 280.101 111.939 280.223L112.052 280.31C113.07 281.089 113.886 281.819 114.607 282.4C113.815 281.794 112.93 281.116 111.942 280.24C112.904 281.052 113.848 281.849 114.682 282.517C116.028 283.413 117.876 284.708 119.373 285.72Z" fill="white"/>
<path opacity="0.9" d="M78.2475 141.498C81.2166 143.031 84.2789 144.377 87.4163 145.528C91.5612 147.102 96.253 148.587 101.212 149.917C104.933 150.913 108.741 151.795 112.621 152.584C120.644 154.248 128.759 155.44 136.922 156.153C140.166 156.425 143.344 156.587 146.372 156.693C147.121 156.729 147.855 156.708 148.586 156.729C152.213 156.782 155.839 156.609 159.444 156.21L160.017 156.125L160.055 156.408C159.982 155.605 160.788 154.728 162.53 153.819C163.577 153.284 164.657 152.813 165.762 152.408C166.674 152.076 167.71 151.718 168.843 151.39C173.689 149.993 178.608 148.859 183.577 147.994C200.137 145.081 216.894 143.422 233.704 143.03C235.89 142.985 238.064 142.976 240.139 142.98C245.204 142.952 250.265 143.267 255.288 143.922C256.758 144.121 258.21 144.437 259.629 144.869C261.349 145.394 262.373 146.028 262.672 146.75C262.672 146.75 262.719 146.787 262.738 146.801L262.771 147.051L262.751 146.647L262.541 144.677L262.258 142.04L262.135 140.99C262.034 140.225 261.942 139.467 261.818 138.73C261.554 137.123 261.354 135.549 261.131 134.123C261.053 133.765 260.997 133.402 260.961 133.037L260.889 132.623L260.823 132.378C260.823 132.378 260.859 132.331 260.807 132.262C260.311 130.626 258.502 129.241 255.484 128.186C253.507 127.53 251.475 127.055 249.412 126.766C245.643 126.246 241.842 125.993 238.037 126.009C231.816 125.979 225.598 126.33 219.42 127.059C210.072 128.104 200.808 129.801 191.696 132.137C182.169 134.587 173.628 137.643 167.593 140.958C166.471 141.562 165.38 142.224 164.327 142.941C163.128 143.73 162.024 144.655 161.036 145.697C160.435 146.218 159.963 146.872 159.66 147.608C159.356 148.343 159.229 149.14 159.288 149.933V149.933C159.288 150 159.297 150.067 159.314 150.133L159.363 150.499L159.499 151.395L159.644 152.357C156.701 152.78 153.733 153.005 150.761 153.029L149.43 153.011C147.107 152.987 144.705 152.871 142.223 152.665C130.706 151.623 119.354 149.218 108.404 145.5C105.717 144.579 103.092 143.616 100.577 142.587C96.4812 140.932 92.493 139.022 88.6362 136.868C85.7563 135.266 83.0086 133.438 80.4191 131.399C79.5213 130.686 78.6606 129.927 77.8404 129.126C76.6814 128.044 75.6465 126.835 74.7549 125.524C73.3942 123.781 72.7351 121.592 72.9073 119.387C72.9315 119.318 72.9505 119.248 72.9641 119.176L73.2474 118.123L73.0397 118.726L72.4262 121.245C71.6806 124.172 70.9638 128.016 70.3267 131.25L69.996 132.775L69.9625 133.287C70.0482 134.056 70.2852 134.8 70.6598 135.477C71.0344 136.153 71.5391 136.749 72.145 137.23C73.1713 138.181 74.2849 139.033 75.471 139.776C76.2786 140.439 77.2253 140.939 78.2475 141.498Z" fill="white"/>
<path opacity="0.9" d="M109.978 137.276C121.126 142.932 133.215 146.499 145.648 147.8C147.5 147.983 149.301 148.071 151.049 148.065L151.136 147.952L151.23 147.829L151.115 148.115C152.005 148.124 152.867 148.111 153.71 148.084C155.44 148.026 157.166 147.876 158.881 147.634L158.7 146.778L158.688 146.695L158.661 146.555L158.614 146.519L158.592 146.412L158.571 146.321L158.172 144.656C157.189 144.77 156.174 144.845 155.13 144.882C154.306 144.924 153.461 144.935 152.597 144.931L152.409 145.176L152.474 145.091L152.59 144.94C150.653 144.952 148.72 144.802 146.745 144.591C135.356 143.344 123.265 138.855 112.727 132.416C110.368 130.969 108.081 129.428 105.902 127.804C102.205 125.055 98.7608 121.983 95.6089 118.624C93.0512 115.893 90.7703 112.916 88.7997 109.735L88.6253 110.08L88.7997 109.735C88.0197 108.451 87.3632 107.141 86.7295 105.939C85.79 104 85.0445 101.972 84.5038 99.8862C83.2997 95.7084 83.5268 91.2481 85.1487 87.2141L85.323 86.8693L86.3048 85.0206C86.0595 85.3409 85.8874 85.7024 85.7059 86.0566L84.3217 88.7628L84.1775 88.9513L84.1126 89.0361L83.9899 89.1963L83.4931 90.2356C83.0185 91.1874 82.5678 92.1276 82.1337 93.0655C81.5931 94.2207 81.0734 95.407 80.631 96.473L80.3583 97.1609L79.8736 98.4188L79.757 98.6882L79.2002 100.04L79.063 100.473L79.0198 100.53C78.1979 103.705 78.4622 107.064 79.7705 110.071C80.499 111.844 81.4046 113.538 82.4735 115.129C83.1777 116.161 83.8965 117.175 84.7476 118.23L84.8935 117.863L84.7476 118.23C86.964 120.936 89.4288 123.428 92.1098 125.674C95.5279 128.545 99.1698 131.138 103.001 133.429C105.247 134.789 107.641 136.054 109.978 137.276Z" fill="white"/>
<path opacity="0.9" d="M181.224 33.2001C181.197 33.1827 181.172 33.1634 181.148 33.1424L181.478 33.2002C181.393 33.2071 181.308 33.2071 181.224 33.2001V33.2001Z" fill="white"/>
<path opacity="0.9" d="M161.56 299.874C160.606 299.831 159.655 299.746 158.745 299.646L161.56 299.874Z" fill="white"/>
<path opacity="0.9" d="M90.8693 251.077C90.0872 245.188 91.1127 238.441 94.2453 231.245C94.2169 231.218 94.1853 231.193 94.1511 231.173L94.2453 231.245C98.5325 221.875 104.92 213.618 112.913 207.115C119.091 201.943 126.044 197.775 133.517 194.763C140.234 192.013 147.418 190.582 154.677 190.548C155.379 190.548 156.077 190.574 156.745 190.637L157.262 189.045L157.539 188.077C155.995 187.907 154.444 187.816 152.89 187.806L152.988 187.97L152.89 187.806C149.358 187.785 145.831 188.086 142.353 188.706C136.435 189.791 130.666 191.569 125.163 194.002C110.26 200.526 96.7121 211.45 89.5922 223.932C89.8022 224.302 90.0121 224.672 90.2387 225.04C90.0215 224.679 89.8116 224.309 89.5922 223.932C87.5239 227.465 86.0476 231.312 85.2219 235.321C84.3877 239.301 84.6873 243.434 86.0867 247.251L86.2003 247.533C86.3509 247.902 86.5087 248.262 86.6904 248.61L86.8228 248.906C86.9252 249.104 87.0371 249.309 87.1562 249.505C87.6421 250.295 88.1628 251.157 88.7096 252.024C88.7983 252.182 88.8941 252.33 88.9922 252.494C90.6885 255.198 92.5938 258.136 94.313 260.692L94.4072 260.764C92.5527 257.823 91.3466 254.521 90.8693 251.077V251.077Z" fill="white"/>
<path opacity="0.9" d="M148.951 60.365C145.514 64.9792 142.718 70.0372 140.638 75.4012C139.201 79.0666 138.117 82.8611 137.403 86.7329C133.856 105.851 140.247 122.49 152.531 130.728C152.908 131.016 153.328 131.248 153.731 131.482C153.449 131.266 153.194 131.071 152.732 130.718C150.803 126.507 150.228 121.801 151.088 117.249C151.829 113.099 153.258 109.102 155.315 105.422V105.422C161.853 93.2708 174.224 82.5372 188.064 75.7816C194.429 72.5969 201.22 70.3466 208.227 69.1003C211.471 68.5315 214.76 68.2534 218.054 68.2693C228.994 68.3655 236.996 72.0852 241.303 78.1324C241.388 78.1973 241.448 78.3332 241.504 78.4358C241.56 78.5384 241.504 78.4358 241.561 78.479C241.617 78.5223 241.561 78.479 241.608 78.5151C241.844 78.89 242.061 79.2506 242.262 79.6133C242.115 79.3365 241.935 79.0642 241.797 78.7947C241.452 78.2311 241.144 77.6964 240.798 77.1329C240.798 77.1329 240.732 77.0824 240.694 77.0536C240.663 77.023 240.628 76.9964 240.591 76.9743C240.28 76.4823 239.962 75.9997 239.656 75.4817C239.35 74.9636 239.107 74.6574 238.819 74.2131C238.531 73.7688 238.354 73.5131 238.122 73.1715C236.988 71.4515 235.414 69.2904 234.093 67.5615C233.914 67.4244 233.809 67.2097 233.68 67.0661C233.551 66.9224 233.586 66.9939 233.558 66.9723L233.501 66.929C223.093 55.0307 204.782 54.5675 187.507 62.1602C180.123 65.4542 173.319 69.9191 167.358 75.3826C160.218 81.8541 154.462 89.7044 150.438 98.4602C146.403 108.358 146.57 115.928 147.915 121.276C148.795 124.607 150.282 127.747 152.302 130.538C148.176 127.112 145.086 122.604 143.379 117.52C141.13 111.106 140.338 102.4 143.04 90.7497C146.609 78.8566 153.276 68.1265 162.358 59.6596C178.729 44.5605 200.797 39.4716 217.06 50.3977C217.334 50.6069 217.626 50.8304 217.918 51.054L217.597 50.8088C217.512 50.7439 217.418 50.6718 217.333 50.6068L217.183 50.4914C216.957 50.3183 216.73 50.1452 216.514 49.9793L215.873 49.4888C215.769 49.4095 215.685 49.3445 215.6 49.2796C215.251 49.0127 214.903 48.7459 214.563 48.4862C214.007 48.0606 213.442 47.6278 212.826 47.261C212.656 47.1455 212.492 47.0202 212.336 46.8859C212.129 46.7272 211.941 46.583 211.752 46.4387L211.517 46.2584C211.401 46.1554 211.279 46.0613 211.149 45.9771L211.027 45.8833C210.819 45.7246 210.631 45.5803 210.424 45.4216C210.216 45.263 210 45.0971 209.711 44.9661C209.573 44.8742 209.44 44.773 209.316 44.6631L208.811 44.3662C208.66 44.2508 208.481 44.1137 208.33 43.9983L207.769 43.6581C207.769 43.6581 207.712 43.6149 207.684 43.5932C207.477 43.4346 207.233 43.323 207.011 43.1831C206.79 43.0433 206.682 42.9306 206.48 42.8812L206.405 42.8235L205.957 42.5699C205.891 42.5194 205.844 42.4833 205.768 42.4256L205.284 42.1598C205.284 42.1598 205.228 42.1165 205.209 42.102C200.3 39.4131 194.795 37.9992 189.198 37.99C173.916 37.7679 159.029 46.7702 148.951 60.365Z" fill="white"/>
<path opacity="0.9" d="M230.328 267.65L230.047 268.018C227.206 270.843 223.741 272.961 219.932 274.203C216.117 275.45 212.12 276.052 208.107 275.984C207.573 275.979 206.992 275.938 206.432 275.928C203.437 275.797 200.46 275.385 197.542 274.696C189.185 272.668 181.292 269.065 174.286 264.08C171.362 262.039 168.586 259.794 165.979 257.363C161.962 253.645 158.379 249.484 155.3 244.958C152.834 241.31 150.781 237.398 149.18 233.295C148.527 231.71 147.967 230.089 147.503 228.439C146.854 226.149 146.407 223.806 146.167 221.438C145.411 213.388 147.358 206.375 151.57 201.126L151.736 200.909L151.57 201.126L151.779 200.853C151.705 200.97 151.621 201.08 151.527 201.182C145.251 206.959 141.656 215.579 141.715 225.712C141.733 228.415 141.989 231.111 142.48 233.77C142.796 235.505 143.201 237.22 143.684 239.01C145.084 243.831 147.052 248.468 149.548 252.824C152.781 258.426 156.783 263.547 161.437 268.038C170.166 276.528 180.929 282.556 191.817 284.555C194.259 285.002 196.735 285.242 199.217 285.274C202.381 285.319 205.536 284.939 208.598 284.147C212.958 283.024 216.997 280.902 220.396 277.95L220.597 277.805L221.512 276.921C222.274 276.219 223.045 275.524 223.788 274.808L224.826 273.764L225.344 273.205C226.329 272.21 227.277 271.187 228.239 270.145C228.383 269.957 228.542 269.75 228.686 269.561C228.83 269.373 229.218 268.983 229.482 268.677L229.8 268.262L230.52 267.439C230.7 267.203 230.902 266.939 231.112 266.666L232.1 265.375L231.191 266.562L230.328 267.65Z" fill="white"/>
</g>
</svg>
