<svg width="45" height="45" viewBox="0 0 45 45" fill="none" xmlns="http://www.w3.org/2000/svg">
<circle cx="22.5" cy="22.5" r="22.5" fill="#9BE7C4"/>
<path d="M20.3055 29C19.7646 29.0026 19.2449 28.7683 18.8602 28.3485L15.2811 24.7067C15.1069 24.5167 15.0062 24.2595 15.0003 23.9893C14.9943 23.719 15.0837 23.4568 15.2493 23.2577C15.415 23.0586 15.6441 22.9382 15.8885 22.9218C16.1329 22.9054 16.3737 22.9943 16.5599 23.1698L20.1694 26.8366C20.2018 26.8713 20.2452 26.8907 20.2904 26.8907C20.3356 26.8907 20.379 26.8713 20.4115 26.8366L29.0756 17.3062C29.2532 17.1101 29.4941 17 29.7452 17C29.9964 17 30.2373 17.1101 30.4149 17.3062C30.5925 17.5022 30.6923 17.7681 30.6923 18.0454C30.6923 18.3227 30.5925 18.5886 30.4149 18.7846L21.7357 28.3151C21.55 28.5277 21.3281 28.6977 21.0826 28.8153C20.8372 28.9328 20.5731 28.9956 20.3055 29Z" fill="#171753"/>
</svg>
