<svg width="45" height="45" viewBox="0 0 45 45" fill="none" xmlns="http://www.w3.org/2000/svg">
<circle cx="22.5" cy="22.5" r="22.5" fill="#9BE7C4"/>
<g clip-path="url(#clip0_149_2950)">
<path d="M27.3772 33.0001H15.057C14.5114 33.0001 13.9882 32.7834 13.6025 32.3976C13.2167 32.0119 13 31.4887 13 30.9431V18.6229C13 18.0774 13.2167 17.5542 13.6025 17.1684C13.9882 16.7826 14.5114 16.5659 15.057 16.5659H27.3772C27.9228 16.5659 28.446 16.7826 28.8317 17.1684C29.2175 17.5542 29.4342 18.0774 29.4342 18.6229V30.9431C29.4342 31.4887 29.2175 32.0119 28.8317 32.3976C28.446 32.7834 27.9228 33.0001 27.3772 33.0001ZM15.057 17.4397C14.7436 17.4412 14.4435 17.5663 14.2219 17.7878C14.0004 18.0094 13.8752 18.3095 13.8738 18.6229V30.9431C13.8752 31.2565 14.0004 31.5566 14.2219 31.7782C14.4435 31.9997 14.7436 32.1249 15.057 32.1263H27.3772C27.6906 32.1249 27.9907 31.9997 28.2123 31.7782C28.4338 31.5566 28.559 31.2565 28.5604 30.9431V18.6229C28.559 18.3095 28.4338 18.0094 28.2123 17.7878C27.9907 17.5663 27.6906 17.4412 27.3772 17.4397H15.057Z" fill="#171753"/>
<path d="M30.943 29.4342C30.8264 29.4342 30.7146 29.3879 30.6322 29.3054C30.5497 29.223 30.5034 29.1112 30.5034 28.9946C30.5034 28.9371 30.5148 28.8802 30.537 28.8272C30.5591 28.7741 30.5916 28.726 30.6325 28.6856C30.6734 28.6452 30.7219 28.6134 30.7752 28.5919C30.8285 28.5704 30.8855 28.5597 30.943 28.5604C31.2564 28.559 31.5565 28.4338 31.7781 28.2123C31.9997 27.9907 32.1248 27.6906 32.1262 27.3772V15.057C32.1248 14.7436 31.9997 14.4435 31.7781 14.2219C31.5565 14.0004 31.2564 13.8752 30.943 13.8738H18.6228C18.3094 13.8752 18.0093 14.0004 17.7877 14.2219C17.5662 14.4435 17.441 14.7436 17.4396 15.057C17.4403 15.1145 17.4296 15.1715 17.4081 15.2248C17.3866 15.2781 17.3548 15.3266 17.3144 15.3675C17.274 15.4084 17.2259 15.4409 17.1728 15.463C17.1198 15.4852 17.0629 15.4966 17.0054 15.4966C16.8888 15.4966 16.777 15.4503 16.6946 15.3678C16.6121 15.2854 16.5658 15.1736 16.5658 15.057C16.5658 14.5114 16.7825 13.9882 17.1683 13.6025C17.5541 13.2167 18.0773 13 18.6228 13H30.943C31.4886 13 32.0118 13.2167 32.3975 13.6025C32.7833 13.9882 33 14.5114 33 15.057V27.3772C33 27.9227 32.7833 28.4459 32.3975 28.8317C32.0118 29.2175 31.4886 29.4342 30.943 29.4342Z" fill="#171753"/>
</g>
<defs>
<clipPath id="clip0_149_2950">
<rect width="20" height="20" fill="white" transform="translate(13 13)"/>
</clipPath>
</defs>
</svg>
