<svg width="375" height="511" viewBox="0 0 375 511" fill="none" xmlns="http://www.w3.org/2000/svg">
<g opacity="0.9">
<g style="mix-blend-mode:multiply" opacity="0.1">
<g style="mix-blend-mode:multiply" opacity="0.1">
<path d="M68.2126 335.87L111.311 292.847L154.213 249.605L239.653 162.79L324.631 75.5241L366.932 31.7198L409.022 -12.3178L365.909 30.7193L323.035 73.9618L237.595 160.776L152.631 248.056L110.303 291.861L68.2126 335.87Z" fill="#FFA54B"/>
</g>
<g style="mix-blend-mode:multiply" opacity="0.1">
<path d="M64.0751 323.767L107.184 284.85L150.097 245.713L235.615 167.111L320.656 88.0145L363.022 48.288L405.192 8.3418L362.069 47.2451L319.156 86.3817L233.653 164.998L148.611 244.094L106.245 283.821L64.0751 323.767Z" fill="#FFA54B"/>
</g>
<g style="mix-blend-mode:multiply" opacity="0.1">
<path d="M59.9257 311.652L103.06 276.855L145.998 241.838L231.564 171.42L316.71 100.507L359.129 64.8724L401.351 28.9902L358.231 63.7734L315.307 98.8039L229.74 169.222L144.594 240.135L102.162 275.784L59.9257 311.652Z" fill="#FFA54B"/>
</g>
<g style="mix-blend-mode:multiply" opacity="0.1">
<path d="M55.8015 299.534L98.9327 268.857L141.867 237.933L227.498 175.74L312.734 112.998L355.219 81.4406L397.521 49.6499L354.404 80.3129L311.442 111.238L225.825 173.444L140.589 236.187L98.1038 267.744L55.8015 299.534Z" fill="#FFA54B"/>
</g>
<g style="mix-blend-mode:multiply" opacity="0.1">
<path d="M51.6514 287.419L94.7798 260.862L137.739 234.057L223.419 180.049L308.76 125.49L351.311 98.0102L393.693 70.2832L350.565 96.84L307.592 123.659L221.912 177.667L136.584 232.212L94.0476 259.705L51.6514 287.419Z" fill="#FFA54B"/>
</g>
<g style="mix-blend-mode:multiply" opacity="0.1">
<path d="M47.5143 275.316L90.6258 252.866L133.61 230.153L219.353 184.37L304.785 137.981L347.389 114.593L389.865 90.9438L346.739 113.38L303.755 136.065L218.026 181.889L132.58 228.265L89.9762 251.653L47.5143 275.316Z" fill="#FFA54B"/>
</g>
<g style="mix-blend-mode:multiply" opacity="0.1">
<path d="M43.3775 263.185L86.4724 244.869L129.468 226.263L215.26 188.664L300.783 150.472L343.466 131.176L386.022 111.59L342.914 129.921L299.918 148.499L214.14 186.111L128.603 224.317L85.9336 243.627L43.3775 263.185Z" fill="#FFA54B"/>
</g>
<g style="mix-blend-mode:multiply" opacity="0.1">
<path d="M39.2407 251.083L82.3325 236.859L125.325 222.373L211.153 192.973L296.794 162.951L339.544 147.732L382.18 132.238L339.102 146.447L296.096 160.948L210.254 190.334L124.626 220.37L81.8767 235.589L39.2407 251.083Z" fill="#FFA54B"/>
</g>
<g style="mix-blend-mode:multiply" opacity="0.1">
<path d="M35.0895 238.966L78.1645 228.849L121.168 218.469L207.059 197.267L292.791 175.442L335.607 164.301L378.351 152.898L335.276 162.987L292.286 173.381L206.395 194.583L120.649 216.422L77.8471 227.549L35.0895 238.966Z" fill="#FFA54B"/>
</g>
<g style="mix-blend-mode:multiply" opacity="0.1">
<path d="M30.9662 226.849L73.9966 220.839L117.011 214.565L202.951 201.547L288.788 187.906L331.67 180.87L374.508 173.544L331.464 179.541L288.464 185.829L202.537 198.833L116.686 212.488L73.8039 219.523L30.9662 226.849Z" fill="#FFA54B"/>
</g>
<g style="mix-blend-mode:multiply" opacity="0.1">
<path d="M26.8153 214.733L69.8288 212.829L112.84 210.648L198.816 205.828L284.772 200.384L327.734 197.44L370.665 194.191L327.652 196.095L284.641 198.277L198.665 203.097L112.723 208.554L69.7608 211.498L26.8153 214.733Z" fill="#FFA54B"/>
</g>
<g style="mix-blend-mode:multiply" opacity="0.1">
<path d="M22.665 202.617L65.6754 204.805L108.683 206.717L194.708 210.081L280.755 212.834L323.798 213.982L366.851 214.838L323.841 212.65L280.833 210.739L194.808 207.375L108.747 204.635L65.7323 203.487L22.665 202.617Z" fill="#FFA54B"/>
</g>
<g style="mix-blend-mode:multiply" opacity="0.1">
<path d="M18.5427 190.501L61.5082 196.768L104.513 202.772L190.601 214.334L276.753 225.271L319.862 230.524L363.009 235.486L320.044 229.218L277.039 223.215L190.951 211.653L104.785 200.729L61.6764 195.476L18.5427 190.501Z" fill="#FFA54B"/>
</g>
<g style="mix-blend-mode:multiply" opacity="0.1">
<path d="M14.3907 178.384L57.3532 188.744L100.368 198.826L186.478 218.572L272.749 237.707L315.924 247.065L359.18 256.146L316.217 245.785L273.202 235.704L187.092 215.957L100.821 196.822L57.6326 187.478L14.3907 178.384Z" fill="#FFA54B"/>
</g>
<g style="mix-blend-mode:multiply" opacity="0.1">
<path d="M10.2535 166.28L53.1848 180.706L96.2108 194.866L182.398 222.796L268.746 250.142L312.001 263.593L355.337 276.792L312.405 262.367L269.379 248.179L183.206 220.262L96.8445 192.93L53.5895 179.48L10.2535 166.28Z" fill="#FFA54B"/>
</g>
<g style="mix-blend-mode:multiply" opacity="0.1">
<path d="M6.11728 154.151L49.0455 172.668L92.0683 190.921L178.304 227.008L264.771 262.551L308.079 280.121L351.495 297.439L308.581 278.936L265.544 260.669L179.322 224.568L92.8413 189.039L49.5336 171.469L6.11728 154.151Z" fill="#FFA54B"/>
</g>
<g style="mix-blend-mode:multiply" opacity="0.1">
<path d="M1.98064 142.049L44.8915 164.617L87.939 186.962L174.224 231.233L260.782 274.974L304.17 296.663L347.68 318.086L304.756 295.504L261.708 273.187L175.423 228.888L88.8515 185.161L45.4774 163.486L1.98064 142.049Z" fill="#FFA54B"/>
</g>
<g style="mix-blend-mode:multiply" opacity="0.1">
<path d="M-2.17106 129.931L40.7504 156.578L83.8222 182.987L170.157 235.442L256.819 287.394L300.246 313.189L343.837 338.732L300.915 312.085L257.844 285.676L171.509 233.22L84.8465 181.268L41.406 155.488L-2.17106 129.931Z" fill="#FFA54B"/>
</g>
<g style="mix-blend-mode:multiply" opacity="0.1">
<path d="M-6.32085 117.815L36.625 148.527L79.7074 179.014L166.105 239.668L252.859 299.817L296.352 329.717L340.009 359.394L297.077 328.668L253.995 298.181L167.583 237.541L80.8297 177.392L37.3366 147.492L-6.32085 117.815Z" fill="#FFA54B"/>
</g>
<g style="mix-blend-mode:multiply" opacity="0.1">
<path d="M-10.4444 105.698L32.4843 140.488L75.5914 175.068L162.066 243.878L248.897 312.239L292.456 346.244L336.166 380.04L293.238 345.25L250.13 310.67L163.656 241.861L76.8114 173.514L33.2657 139.494L-10.4444 105.698Z" fill="#FFA54B"/>
</g>
<g style="mix-blend-mode:multiply" opacity="0.1">
<path d="M-14.596 93.5815L28.3571 132.436L71.5026 171.094L158.026 248.087L244.948 324.646L288.56 362.771L332.323 400.687L289.384 361.818L246.252 323.174L159.728 246.18L72.7928 169.635L29.1807 131.51L-14.596 93.5815Z" fill="#FFA54B"/>
</g>
<g style="mix-blend-mode:multiply" opacity="0.1">
<path d="M-18.7179 81.4659L24.2458 124.399L67.4019 167.135L154.003 252.312L241.016 337.069L284.666 379.3L328.509 421.334L285.532 378.415L242.376 335.679L155.775 250.502L68.7622 165.745L25.1115 123.514L-18.7179 81.4659Z" fill="#FFA54B"/>
</g>
</g>
<path opacity="0.9" d="M72.9927 336.784L116.105 293.746L158.979 250.504L244.433 163.704L329.397 76.4235L371.711 32.6051L413.802 -11.4048L370.703 31.6184L327.801 74.8612L242.361 161.675L157.397 248.955L115.097 292.76L72.9927 336.784Z" fill="#FFA54B"/>
<path opacity="0.9" d="M68.8414 324.667L111.965 285.763L154.877 246.627L240.381 168.011L325.45 88.9141L367.816 49.1876L409.958 9.2417L366.849 48.1587L323.922 87.2816L238.419 165.898L153.378 244.994L111.011 284.721L68.8414 324.667Z" fill="#FFA54B"/>
<path opacity="0.9" d="M64.7185 312.55L107.825 277.753L150.763 242.737L236.329 172.318L321.475 101.406L363.894 65.7708L406.13 29.9023L363.01 64.6855L320.072 99.7023L234.505 170.121L149.359 241.033L106.941 276.668L64.7185 312.55Z" fill="#FFA54B"/>
<path opacity="0.9" d="M60.568 300.434L103.699 269.757L146.648 238.846L232.264 176.64L317.501 113.897L359.986 82.34L402.288 50.5493L359.171 81.2123L316.222 112.123L230.592 174.343L145.355 237.086L102.87 268.643L60.568 300.434Z" fill="#FFA54B"/>
<path opacity="0.9" d="M56.4321 288.332L99.5464 261.762L142.506 234.957L228.213 180.948L313.527 126.389L356.078 98.9101L398.46 71.1831L355.332 97.7399L312.372 124.544L226.679 178.567L141.365 233.126L98.8142 260.605L56.4321 288.332Z" fill="#FFA54B"/>
<path opacity="0.9" d="M52.2947 276.201L95.4062 253.751L138.391 231.066L224.12 185.27L309.552 138.88L352.155 115.493L394.631 91.8433L351.506 114.28L308.535 136.978L222.792 182.789L137.374 229.164L94.7569 252.566L52.2947 276.201Z" fill="#FFA54B"/>
<path opacity="0.9" d="M48.1439 264.085L91.2525 245.755L134.248 227.176L220.026 189.564L305.563 151.386L348.233 132.076L390.789 112.49L347.68 130.82L304.699 149.413L218.906 187.011L133.383 225.203L90.7137 244.513L48.1439 264.085Z" fill="#FFA54B"/>
<path opacity="0.9" d="M44.0072 251.982L87.099 237.759L130.091 223.273L215.933 193.886L301.575 163.864L344.31 148.632L386.946 133.137L343.868 147.347L300.876 161.833L215.034 191.247L129.393 221.27L86.6569 236.474L44.0072 251.982Z" fill="#FFA54B"/>
<path opacity="0.9" d="M39.8699 239.852L82.9311 229.749L125.934 219.369L211.825 198.166L297.558 176.341L340.374 165.201L383.117 153.797L340.056 163.901L297.053 174.28L211.162 195.483L125.429 217.308L82.6137 228.448L39.8699 239.852Z" fill="#FFA54B"/>
<path opacity="0.9" d="M35.7325 227.749L78.7769 221.752L121.777 215.464L207.717 202.446L293.555 188.805L336.437 181.77L379.288 174.43L336.23 180.44L293.23 186.728L207.303 199.732L121.466 213.373L78.5702 220.423L35.7325 227.749Z" fill="#FFA54B"/>
<path opacity="0.9" d="M31.5827 215.633L74.61 213.715L117.607 211.548L203.597 206.714L289.553 201.27L332.515 198.326L375.46 195.091L332.433 196.982L289.436 199.177L203.432 203.997L117.49 209.455L74.5282 212.398L31.5827 215.633Z" fill="#FFA54B"/>
<path opacity="0.9" d="M27.4452 203.53L70.4416 205.705L113.449 207.616L199.475 210.98L285.535 213.72L328.578 214.868L371.617 215.738L328.635 213.549L285.613 211.652L199.574 208.274L113.541 205.534L70.4986 204.386L27.4452 203.53Z" fill="#FFA54B"/>
<path opacity="0.9" d="M23.3089 191.401L66.2884 197.682L109.279 203.672L195.367 215.234L281.519 226.171L324.628 231.424L367.775 236.386L324.81 230.118L281.805 224.115L195.731 212.566L109.565 201.615L66.4426 196.376L23.3089 191.401Z" fill="#FFA54B"/>
<path opacity="0.9" d="M19.1715 179.297L62.1199 189.643L105.135 199.725L191.259 219.458L277.516 238.606L320.704 247.951L363.946 257.045L320.998 246.671L277.982 236.589L191.859 216.856L105.588 197.722L62.413 188.363L19.1715 179.297Z" fill="#FFA54B"/>
<path opacity="0.9" d="M15.0337 167.166L57.9513 181.605L100.977 195.766L187.164 223.696L273.526 251.028L316.767 264.492L360.103 277.692L317.185 263.253L274.16 249.092L187.973 221.162L101.611 193.83L58.3697 180.366L15.0337 167.166Z" fill="#FFA54B"/>
<path opacity="0.9" d="M10.8839 155.05L53.8122 173.568L96.8487 191.807L183.071 227.908L269.538 263.451L312.859 281.034L356.289 298.339L313.347 279.835L270.325 261.583L184.088 225.468L97.622 189.952L54.3003 172.369L10.8839 155.05Z" fill="#FFA54B"/>
<path opacity="0.9" d="M6.74702 142.948L49.6579 165.516L92.7191 187.847L178.991 232.133L265.562 275.887L308.936 297.562L352.447 318.986L309.522 296.404L266.488 274.073L180.189 229.788L93.6316 186.047L50.2437 164.386L6.74702 142.948Z" fill="#FFA54B"/>
<path opacity="0.9" d="M2.59586 130.831L45.5173 157.478L88.5891 183.887L174.938 236.356L261.586 288.295L305.027 314.075L348.604 339.632L305.696 312.999L262.638 286.576L176.276 234.121L89.6274 182.182L46.1729 156.388L2.59586 130.831Z" fill="#FFA54B"/>
<path opacity="0.9" d="M-1.52685 118.715L41.3913 149.427L84.4737 179.914L170.871 240.568L257.625 300.717L301.118 330.617L344.776 360.293L301.844 329.568L258.775 299.067L172.363 238.427L85.6237 178.291L42.1169 148.405L-1.52685 118.715Z" fill="#FFA54B"/>
<path opacity="0.9" d="M-5.67795 106.598L37.2645 141.374L80.3716 175.953L166.832 244.777L253.677 313.124L297.223 347.144L340.933 380.939L298.004 346.149L254.897 311.57L168.423 242.76L81.5916 174.399L38.0462 140.407L-5.67795 106.598Z" fill="#FFA54B"/>
<path opacity="0.9" d="M-9.81403 94.496L33.1251 133.337L76.2705 171.994L162.794 248.988L249.716 325.547L293.328 363.672L337.119 401.587L294.166 362.733L251.02 324.075L164.496 247.081L77.5608 170.536L33.9624 132.397L-9.81403 94.496Z" fill="#FFA54B"/>
<path opacity="0.9" d="M-13.9516 82.3652L29.0121 125.298L72.1682 168.034L158.769 253.212L245.782 337.968L289.433 380.199L333.276 422.233L290.298 379.315L247.156 336.564L160.541 251.401L73.5285 166.644L29.8777 124.414L-13.9516 82.3652Z" fill="#FFA54B"/>
</g>
</svg>
