<svg width="35" height="35" viewBox="0 0 35 35" fill="none" xmlns="http://www.w3.org/2000/svg">
<g clip-path="url(#clip0_279_4574)">
<path d="M17.5071 34.9999H17.3582C12.7169 34.9811 8.27319 33.1194 5.00459 29.8242C1.73599 26.529 -0.0896919 22.0703 -0.0709013 17.4291C-0.0521107 12.7878 1.80966 8.34404 5.10483 5.07544C8.4 1.80684 12.8587 -0.0188911 17.5 -0.00010052H17.6416C22.2829 0.0177508 26.7271 1.87861 29.9963 5.17312C33.2656 8.46763 35.0922 12.9259 35.0743 17.5672C35.0565 22.2085 33.1956 26.6526 29.9011 29.9219C26.6066 33.1911 22.1484 35.0178 17.5071 34.9999ZM17.5071 1.77115C13.3356 1.75424 9.32809 3.39516 6.36642 6.33291C3.40475 9.27067 1.73145 13.2646 1.71454 17.4361C1.69763 21.6077 3.33854 25.6151 6.2763 28.5767C9.21405 31.5384 13.208 33.2118 17.3795 33.2287H17.5141C21.6856 33.2446 25.6927 31.6028 28.6537 28.6644C31.6147 25.726 33.2871 21.7316 33.3031 17.5601C33.319 13.3886 31.6772 9.3816 28.7388 6.42059C25.8004 3.45959 21.8061 1.78713 17.6346 1.77115H17.5071Z" fill="#FFA6A6"/>
<path d="M17.6204 22.665C17.3385 22.665 17.0682 22.553 16.8689 22.3537C16.6696 22.1544 16.5576 21.8841 16.5576 21.6022V9.80567C16.5576 9.52381 16.6696 9.25349 16.8689 9.05419C17.0682 8.85488 17.3385 8.74292 17.6204 8.74292C17.9022 8.74292 18.1726 8.85488 18.3719 9.05419C18.5712 9.25349 18.6831 9.52381 18.6831 9.80567V21.6022C18.6831 21.8841 18.5712 22.1544 18.3719 22.3537C18.1726 22.553 17.9022 22.665 17.6204 22.665Z" fill="#FFA6A6"/>
<path d="M17.6204 26.3422C18.0391 26.3422 18.3785 26.0567 18.3785 25.7045C18.3785 25.3524 18.0391 25.0669 17.6204 25.0669C17.2017 25.0669 16.8623 25.3524 16.8623 25.7045C16.8623 26.0567 17.2017 26.3422 17.6204 26.3422Z" fill="#FFA6A6"/>
<path d="M17.6204 27.2277C17.3232 27.2056 17.039 27.0973 16.8025 26.916C16.5661 26.7346 16.3876 26.4882 16.2892 26.207C16.1908 25.9257 16.1767 25.6219 16.2485 25.3327C16.3203 25.0435 16.4749 24.7816 16.6935 24.579C16.912 24.3765 17.185 24.2422 17.4788 24.1925C17.7726 24.1429 18.0745 24.1801 18.3474 24.2996C18.6204 24.4191 18.8526 24.6157 19.0154 24.8652C19.1782 25.1148 19.2647 25.4064 19.2641 25.7044C19.2475 26.1242 19.0652 26.5202 18.7571 26.8057C18.4489 27.0913 18.0402 27.243 17.6204 27.2277ZM17.6204 25.4564C17.5808 25.4841 17.5491 25.5214 17.528 25.5648C17.5069 25.6082 17.4973 25.6562 17.5 25.7044C17.5158 25.7261 17.5371 25.7432 17.5615 25.7543C17.586 25.7653 17.6129 25.7699 17.6396 25.7675C17.6664 25.765 17.6921 25.7557 17.7142 25.7404C17.7363 25.7252 17.7541 25.7045 17.7658 25.6803C17.7776 25.6562 17.7829 25.6293 17.7812 25.6025C17.7796 25.5757 17.7709 25.5498 17.7563 25.5273C17.7417 25.5048 17.7215 25.4864 17.6977 25.474C17.6739 25.4616 17.6472 25.4555 17.6204 25.4564Z" fill="#FFA6A6"/>
</g>
<defs>
<clipPath id="clip0_279_4574">
<rect width="35" height="35" fill="white"/>
</clipPath>
</defs>
</svg>
