<svg width="375" height="74" viewBox="0 0 375 74" fill="none" xmlns="http://www.w3.org/2000/svg">
<path d="M355.143 -1.99422L345.275 2.69492C307.329 20.7907 268.096 39.4955 227.151 33.7243C202.722 30.2807 180.43 18.1923 158.876 6.49843C141.059 -3.17165 122.626 -13.1717 102.903 -18.3872C63.4731 -28.8234 21.0584 -19.2891 -11.4899 -9.81935C-19.7654 -7.415 -28.1132 -4.81817 -36.2081 -2.30332C-64.5229 6.48835 -93.7931 15.6044 -123.725 17.8662C-125.081 17.9754 -126.423 18.0545 -127.779 18.1388L-130.254 19.0222C-128.108 18.9394 -125.908 18.8207 -123.66 18.6514C-93.6497 16.3781 -64.3327 7.25365 -35.9737 -1.5538C-27.8862 -4.06601 -19.531 -6.66548 -11.2582 -9.07721C21.1944 -18.5128 63.4686 -28.0219 102.762 -17.645C122.385 -12.4523 140.775 -2.47869 158.559 7.1697C180.18 18.8895 202.521 31.0191 227.099 34.4846C268.221 40.3092 307.566 21.5477 345.605 3.38549C348.915 1.80381 352.204 0.240742 355.473 -1.3037C370.503 -8.39414 387.268 -15.512 404.655 -20.3276L404.391 -21.0666C386.975 -16.2157 370.196 -9.09257 355.143 -1.99422Z" fill="white"/>
<path d="M19.7474 54.2942L28.883 49.9612C64.0143 33.2403 100.336 15.9567 138.188 21.1744C160.772 24.2878 181.361 35.3544 201.268 46.06C217.724 54.9127 234.749 64.0676 252.976 68.8204C289.418 78.3307 328.662 69.4723 358.783 60.6945C366.441 58.4658 374.166 56.06 381.658 53.7301C407.861 45.585 434.949 37.1396 462.634 34.995C463.889 34.8917 465.13 34.8161 466.384 34.7356L468.675 33.918C466.69 33.9988 464.656 34.1127 462.577 34.2732C434.819 36.4285 407.687 44.8818 381.442 53.0415C373.958 55.3689 366.226 57.7772 358.57 60.0126C328.538 68.7588 289.424 77.5938 253.109 68.1376C234.973 63.4056 217.988 54.275 201.563 45.442C181.593 34.7128 160.96 23.6084 138.238 20.4752C100.222 15.2088 63.7968 32.5448 28.5798 49.327C25.5151 50.7885 22.4698 52.2328 19.4441 53.6599C5.52894 60.212 -9.98978 66.7931 -26.0793 71.2586L-25.8369 71.9375C-9.72062 67.4395 5.81177 60.8535 19.7474 54.2942Z" fill="#5ED9D1" stroke="#FFA54B"/>
</svg>
