<svg width="375" height="564" viewBox="0 0 375 564" fill="none" xmlns="http://www.w3.org/2000/svg">
<g opacity="0.9">
<path opacity="0.9" d="M546.536 275.096C622.03 351.505 548.645 546.395 382.626 710.393C216.607 874.392 20.8216 945.397 -54.6724 868.987C-130.166 792.577 -56.7815 597.688 109.238 433.689C275.257 269.691 471.042 198.686 546.536 275.096Z" stroke="#5ED9D1" stroke-width="2" stroke-miterlimit="10"/>
<path opacity="0.9" d="M549.268 302.143C619.633 379.791 539.895 566.678 371.168 719.567C202.442 872.456 8.61948 933.451 -61.7456 855.803C-132.111 778.155 -52.3729 591.268 116.354 438.378C285.08 285.489 478.902 224.494 549.268 302.143Z" stroke="#5ED9D1" stroke-width="2" stroke-miterlimit="10"/>
<path opacity="0.9" d="M123.654 442.919C295.093 301.13 486.965 250.143 552.212 329.038C617.459 407.932 531.373 586.831 359.933 728.62C188.494 870.41 -3.37794 921.396 -68.6247 842.502C-133.871 763.608 -47.7852 584.709 123.654 442.919Z" stroke="#5ED9D1" stroke-width="2" stroke-miterlimit="10"/>
<path opacity="0.9" d="M130.758 447.553C304.896 316.881 494.815 275.929 554.952 356.084C615.09 436.24 522.674 607.15 348.536 737.822C174.398 868.494 -15.5207 909.446 -75.6584 829.29C-135.796 749.135 -43.3804 578.225 130.758 447.553Z" stroke="#5ED9D1" stroke-width="2" stroke-miterlimit="10"/>
<path opacity="0.9" d="M137.723 452.085C314.556 332.513 502.513 301.568 557.537 382.968C612.562 464.368 513.817 627.288 336.984 746.86C160.152 866.432 -27.8053 897.377 -82.8296 815.977C-137.854 734.577 -39.109 571.657 137.723 452.085Z" stroke="#5ED9D1" stroke-width="2" stroke-miterlimit="10"/>
<path opacity="0.9" d="M144.773 456.746C324.302 348.285 510.292 327.352 560.193 409.99C610.094 492.627 505.011 647.544 325.482 756.005C145.953 864.466 -40.0369 885.399 -89.9382 802.761C-139.84 720.123 -34.7557 565.207 144.773 456.746Z" stroke="#5ED9D1" stroke-width="2" stroke-miterlimit="10"/>
<path opacity="0.9" d="M151.956 461.432C334.19 364.088 518.224 353.182 563.007 437.073C607.789 520.964 496.362 667.885 314.128 765.229C131.893 862.573 -52.1405 873.479 -96.923 789.588C-141.706 705.697 -30.2786 558.776 151.956 461.432Z" stroke="#5ED9D1" stroke-width="2" stroke-miterlimit="10"/>
<path opacity="0.9" d="M158.991 466.002C343.923 379.761 525.993 378.857 565.656 463.983C605.319 549.109 487.555 688.029 302.623 774.27C117.691 860.512 -64.3782 861.416 -104.041 776.29C-143.704 691.164 -25.9402 552.243 158.991 466.002Z" stroke="#5ED9D1" stroke-width="2" stroke-miterlimit="10"/>
<path opacity="0.9" d="M166.363 470.824C354.022 395.716 534.143 404.852 568.676 491.231C603.208 577.61 479.075 708.521 291.416 783.63C103.757 858.739 -76.3644 849.602 -110.897 763.223C-145.429 676.844 -21.2961 545.933 166.363 470.824Z" stroke="#5ED9D1" stroke-width="2" stroke-miterlimit="10"/>
<path opacity="0.9" d="M173.381 475.398C363.731 411.394 541.89 430.545 571.311 518.174C600.731 605.802 470.272 728.725 279.921 792.729C89.571 856.734 -88.5884 837.582 -118.009 749.953C-147.429 662.325 -16.9697 539.402 173.381 475.398Z" stroke="#5ED9D1" stroke-width="2" stroke-miterlimit="10"/>
<path opacity="0.9" d="M180.366 479.902C373.413 426.995 549.615 456.154 573.925 545.032C598.235 633.909 461.447 748.848 268.4 801.755C75.3532 854.662 -100.849 825.502 -125.159 736.625C-149.469 647.748 -12.6806 532.809 180.366 479.902Z" stroke="#5ED9D1" stroke-width="2" stroke-miterlimit="10"/>
<path opacity="0.9" d="M187.616 484.709C383.367 442.931 557.605 482.124 576.789 572.25C595.972 662.376 452.836 769.305 257.085 811.083C61.3347 852.862 -112.904 813.668 -132.087 723.542C-151.271 633.417 -8.13482 526.487 187.616 484.709Z" stroke="#5ED9D1" stroke-width="2" stroke-miterlimit="10"/>
<path opacity="0.9" d="M194.638 489.205C393.105 458.521 565.401 507.714 579.472 599.081C593.543 690.448 444.061 789.39 245.594 820.074C47.1276 850.758 -125.168 801.565 -139.239 710.198C-153.31 618.831 -3.82835 519.889 194.638 489.205Z" stroke="#5ED9D1" stroke-width="2" stroke-miterlimit="10"/>
<path opacity="0.9" d="M201.921 494.136C403.095 474.589 573.427 533.819 582.367 626.428C591.308 719.037 435.472 809.956 234.298 829.503C33.1237 849.049 -137.208 789.82 -146.149 697.211C-155.089 604.602 0.746926 513.682 201.921 494.136Z" stroke="#5ED9D1" stroke-width="2" stroke-miterlimit="10"/>
<path opacity="0.9" d="M209.027 498.76C412.903 490.322 581.277 559.564 585.102 653.418C588.927 747.272 426.754 830.196 222.878 838.634C19.0024 847.073 -149.372 777.83 -153.197 683.976C-157.022 590.123 5.1513 507.198 209.027 498.76Z" stroke="#5ED9D1" stroke-width="2" stroke-miterlimit="10"/>
<path opacity="0.9" d="M216.064 503.369C422.638 506.035 589.054 585.284 587.765 680.375C586.476 775.466 417.97 850.392 211.396 847.725C4.8221 845.059 -161.594 765.811 -160.305 670.719C-159.016 575.628 9.49021 500.702 216.064 503.369Z" stroke="#5ED9D1" stroke-width="2" stroke-miterlimit="10"/>
<path opacity="0.9" d="M223.207 508.086C432.478 521.874 596.929 611.143 590.52 707.475C584.11 803.808 409.266 870.723 199.995 856.936C-9.276 843.149 -173.727 753.879 -167.317 657.547C-160.908 561.215 13.9362 494.299 223.207 508.086Z" stroke="#5ED9D1" stroke-width="2" stroke-miterlimit="10"/>
<path opacity="0.9" d="M230.337 512.738C442.31 537.637 604.804 636.933 593.276 734.521C581.749 832.11 400.565 891.036 188.592 866.137C-23.3816 841.239 -185.875 741.943 -174.348 644.354C-162.82 546.766 18.3631 487.839 230.337 512.738Z" stroke="#5ED9D1" stroke-width="2" stroke-miterlimit="10"/>
<path opacity="0.9" d="M237.394 517.325C452.066 553.324 612.607 662.613 595.971 761.428C579.334 860.244 391.821 911.166 177.149 875.166C-37.5242 839.167 -198.065 729.878 -181.428 631.063C-164.792 532.247 22.7209 481.325 237.394 517.325Z" stroke="#5ED9D1" stroke-width="2" stroke-miterlimit="10"/>
<path opacity="0.9" d="M244.533 522.064C461.909 569.182 620.49 688.496 598.735 788.56C576.979 888.624 383.125 931.545 165.75 884.428C-51.6259 837.31 -210.207 717.996 -188.452 617.932C-166.696 517.868 27.1577 474.947 244.533 522.064Z" stroke="#5ED9D1" stroke-width="2" stroke-miterlimit="10"/>
<path opacity="0.9" d="M251.655 526.726C471.732 584.957 628.355 714.292 601.483 815.603C574.61 916.913 374.417 951.836 154.34 893.605C-65.7373 835.374 -222.36 706.039 -195.488 604.728C-168.615 503.417 31.5775 468.494 251.655 526.726Z" stroke="#5ED9D1" stroke-width="2" stroke-miterlimit="10"/>
<path opacity="0.9" d="M258.714 531.073C481.495 600.381 636.176 739.705 604.204 842.261C572.231 944.818 365.713 971.771 142.933 902.463C-79.8481 833.154 -234.529 693.831 -202.557 591.274C-170.585 488.718 35.9335 461.765 258.714 531.073Z" stroke="#5ED9D1" stroke-width="2" stroke-miterlimit="10"/>
</g>
</svg>
