<svg width="294" height="217" viewBox="0 0 294 217" fill="none" xmlns="http://www.w3.org/2000/svg">
<path opacity="0.9" d="M47.1769 64.7504L46.0979 65.11C43.5557 65.9908 40.462 67.1454 38.0622 68.0348C35.6624 68.9241 32.4536 70.4563 30.078 71.5305C61.2214 57.6186 94.7272 54.7222 129.586 62.8079L119.752 60.4905C118.575 60.2637 117.528 60.0726 116.565 59.9018C113.213 59.4069 109.265 58.8645 105.27 58.4597C102.894 58.2616 99.9817 58.0715 95.9596 57.8067C93.9648 57.772 91.6428 57.7529 89.3463 57.8328C75.0234 58.0209 60.8093 60.3526 47.1769 64.7504Z" fill="#BEF0ED"/>
<path opacity="0.9" d="M165.237 77.9491C106.327 44.8676 39.571 66.41 18.7637 77.5856L18.4984 77.7908C17.4315 78.4295 16.1124 79.2463 15.1045 79.8733L13.0307 81.206L12.8927 81.3128C24.5522 73.9052 116.42 38.1115 185.786 92.9988C184.815 92.1382 183.871 91.2907 182.984 90.5175C178.07 86.7524 171.351 82.0587 166.095 78.5752L165.237 77.9491Z" fill="#BEF0ED"/>
<path opacity="0.9" d="M6.05529 85.9401L4.74976 86.95L1.6292 89.3639C10.3735 82.8372 170.1 34.0982 223.702 144.645C222.312 141.445 220.189 137.319 218.669 134.169C216.552 130.292 213.404 125.28 211.093 121.503C147.12 34.5696 18.2133 78.2996 6.05529 85.9401Z" fill="#BEF0ED"/>
<path opacity="0.9" d="M233.867 180.705C209.217 45.1668 15.8389 85.582 -4.27945 94.3585L-4.62974 94.6294L-5.32105 95.2491L-5.67127 95.52L-8.22573 97.9201L-8.55476 98.1747C23.0658 97.9073 53.6424 87.3858 85.4444 88.8443C100.996 89.5385 137.423 91.1857 169.582 106.178C233.891 136.17 235.628 185.723 234.998 208.113L235.104 205.859L235.358 202.218C235.169 195.833 234.57 187.338 233.903 180.949L233.867 180.705Z" fill="#BEF0ED"/>
<path opacity="0.9" d="M203.325 291.874L203.124 292.03L203.566 291.484C204.595 290.247 205.906 288.52 206.874 287.228C208.872 284.547 211.432 280.904 213.182 278.057C214.246 276.317 215.69 273.996 216.684 272.209C217.876 270.066 219.376 267.158 220.495 264.986C221.614 262.814 223.003 259.653 223.965 257.365C225.07 254.627 226.371 251.177 227.489 248.038C238.118 214.844 236.654 175.886 212.331 149.488C154.876 87.3209 43.9579 100.001 2.2048 104.781C-12.2489 106.427 -12.2489 106.427 -14.6284 104.536L-14.8195 104.683C-16.158 106.177 -17.8015 108.11 -19.072 109.669L-19.2312 109.793C-19.6459 110.419 -19.4335 111.527 -19.4601 112.26C-16.2545 113.75 -12.3548 113.55 8.28131 111.957C61.282 107.79 117.182 106.911 166.948 128.455C279.155 177.161 222.638 290.982 175.907 310.623C185.661 307.88 195.043 301.147 203.325 291.874Z" fill="#BEF0ED"/>
<path opacity="0.9" d="M11.3227 124.924C-21.7756 126.352 -29.6963 126.727 -25.479 118.121L-25.6526 118.357L-28.2175 122.038L-29.9252 124.699C-36.0377 136.536 -22.9458 136.265 8.36422 135.509C43.0122 134.681 86.1419 133.654 132.352 145.207C268.749 179.324 228.705 279.35 175.872 310.753C239.9 280.224 298.73 112.479 11.3227 124.924Z" fill="#BEF0ED"/>
<path opacity="0.9" d="M11.8881 151.665C-27.845 151.863 -42.7817 151.898 -35.9126 135.183L-36.1007 135.532C-37.4517 138.172 -38.9375 141.493 -40.1342 144.048C-45.4356 157.174 -36.4979 160.745 -26.0551 162.643C17.6216 170.592 62.1895 163.77 105.93 170.617C246.742 192.699 226.32 273.611 175.905 310.795C229.939 276.36 276.798 150.516 11.8881 151.665Z" fill="#BEF0ED"/>
<path opacity="0.9" d="M4.8524 182.42C-33.7131 181.715 -50.0737 178.067 -45.3541 157.96C-46.2946 161.13 -47.4299 165.452 -48.3283 168.743C-48.6918 170.466 -49.1122 172.335 -49.4665 174.136C-52.3422 190.816 -43.0247 191.412 68.5994 198.528C230.408 208.846 210.193 272.327 183.664 302.841C208.048 275.564 266.231 186.904 4.8524 182.42Z" fill="#BEF0ED"/>
<path opacity="0.9" d="M38.1579 216.308C-25.8531 215.08 -51.9109 212.011 -51.237 186.279L-51.2864 186.742C-51.661 190.425 -51.8337 195.224 -52.0635 198.896L-52.0653 199.135C-51.8987 222.554 -29.1884 229.74 44.9742 229.901C238.429 230.313 188.004 297.398 175.905 310.795C185.146 301.577 259.766 220.611 38.1579 216.308Z" fill="#BEF0ED"/>
<path opacity="0.9" d="M49.6435 248.022C-20.7975 249.206 -46.2751 241.667 -51.1163 218.149C-51.0208 218.974 -50.9639 219.727 -50.8144 220.579L-50.714 221.366C-50.6331 221.932 -50.558 222.467 -50.4723 222.995L-49.237 229.877C-49.0522 230.752 -48.8755 231.617 -48.6941 232.443C-40.9938 263.014 18.0369 261.291 57.2217 260.143C184.867 256.409 192.259 285.572 175.929 310.827C191.151 291.027 209.351 245.359 49.6435 248.022Z" fill="#BEF0ED"/>
<path opacity="0.9" d="M67.4826 275.601C7.26638 278.292 -30.2892 277.993 -43.1548 251.316C-42.7889 252.272 -42.4229 253.227 -42.0547 254.164C-40.6314 257.627 -38.9185 261.442 -37.566 264.485C-23.2401 289.913 13.7358 289.133 73.0326 285.627C112.163 283.334 185.016 279.062 175.904 310.795C196.949 269.814 99.5099 274.171 67.4826 275.601Z" fill="#BEF0ED"/>
<path opacity="0.9" d="M80.2527 298.008C14.2856 303.485 -10.6139 302.133 -26.5973 283.094C-26.3017 283.476 -25.9978 283.869 -25.7766 284.308L-22.2033 289.213L-18.5092 293.769C-18.0904 294.31 -17.6351 294.789 -17.2033 295.304C0.404822 314.579 40.9901 310.329 92.2734 304.929C128.353 301.127 169.241 296.829 175.905 310.795C177.974 289.871 119.17 294.76 80.2527 298.008Z" fill="#BEF0ED"/>
</svg>
