<svg width="375" height="175" viewBox="0 0 375 175" fill="none" xmlns="http://www.w3.org/2000/svg">
<path d="M78.4973 137.558C96.2783 134.336 113.869 127.404 126.398 113.904C132.141 107.834 136.383 100.503 138.786 92.4982C140.748 85.2001 141.262 77.588 140.297 70.0924C138.563 54.5686 132.484 39.8545 127.81 25.0743C125.242 16.953 122.929 8.55088 122.029 1.99897e-06L126.158 1.63797e-06C126.274 0.983146 126.406 1.97455 126.563 2.94943C129.041 18.7789 135.416 33.6582 139.934 48.9424C144.253 63.5574 147.127 79.329 142.618 94.2579C137.663 110.724 124.754 123.794 109.757 131.626C92.4132 140.714 72.5923 143.572 53.2669 144.175C31.976 144.844 10.7511 142.523 -10.4738 141.201C-19.5088 140.631 -28.7421 140.276 -38.0001 140.375L-38.0001 136.153C0.782824 135.591 39.8465 144.547 78.4973 137.558Z" fill="#FFA6A6"/>
<path d="M-104.245 168.983L-92.7658 170.14C-48.5982 174.65 -2.9358 179.31 35.7398 159.094C58.8146 147.032 76.6947 127.154 93.9802 107.929C108.268 92.0333 123.051 75.5924 140.815 63.4395C176.328 39.1335 221.899 33.5734 257.635 31.4418C266.719 30.8966 275.944 30.5165 284.889 30.1447C316.173 28.8394 348.522 27.5175 379.096 19.1649C380.483 18.7931 381.846 18.3966 383.225 18L386 18C383.836 18.6775 381.606 19.3384 379.31 19.9663C348.654 28.3354 316.255 29.6655 284.922 30.9709C275.986 31.3427 266.752 31.7227 257.668 32.2597C222.04 34.3913 176.617 39.9266 141.22 64.1252C123.546 76.2203 108.796 92.6198 94.5335 108.482C77.1902 127.757 59.2771 147.692 36.0619 159.829C-2.77059 180.161 -48.5652 175.485 -92.8484 170.941C-96.7024 170.544 -100.529 170.159 -104.328 169.784C-121.795 168.074 -140.997 166.951 -160 168.33L-160 167.504C-140.955 166.149 -121.737 167.273 -104.245 168.983Z" fill="white"/>
</svg>
